STARTFONT 2.3
FONT -FontForge-Lobster-Book-R-Normal--28-280-72-72-P-164-ISO10646-1
SIZE 28 72 72  2
FONTBOUNDINGBOX 56 42 -13 -14
COMMENT "Generated by fontforge, http://fontforge.sourceforge.net"
COMMENT "Copyright 2010 The Lobster Project Authors (https://github.com/impallari/The-Lobster-Font), with Reserved Font Name "Lobster"."
STARTPROPERTIES 41
FOUNDRY "FontForge"
FAMILY_NAME "Lobster"
WEIGHT_NAME "Book"
SLANT "R"
SETWIDTH_NAME "Normal"
ADD_STYLE_NAME ""
PIXEL_SIZE 28
POINT_SIZE 280
RESOLUTION_X 72
RESOLUTION_Y 72
SPACING "P"
AVERAGE_WIDTH 164
CHARSET_REGISTRY "ISO10646"
CHARSET_ENCODING "1"
FONTNAME_REGISTRY ""
CHARSET_COLLECTIONS "ISO8859-2 ISO8859-5 ISO8859-9 ISO8859-4 ISO10646-1"
BITS_PER_PIXEL 2
FONT_NAME "Lobster-Regular"
FACE_NAME "Lobster Regular"
COPYRIGHT "Copyright 2010 The Lobster Project Authors (https://github.com/impallari/The-Lobster-Font), with Reserved Font Name "Lobster"."
FONT_VERSION "2.100"
FONT_ASCENT 22
FONT_DESCENT 6
UNDERLINE_POSITION -3
UNDERLINE_THICKNESS 2
X_HEIGHT 14
CAP_HEIGHT 20
DEFAULT_CHAR 1
RAW_ASCENT 800
RAW_DESCENT 200
NORM_SPACE 6
RELATIVE_WEIGHT 40
RELATIVE_SETWIDTH 50
SUPERSCRIPT_X 0
SUPERSCRIPT_Y 9
SUPERSCRIPT_SIZE 16
SUBSCRIPT_X 0
SUBSCRIPT_Y 2
SUBSCRIPT_SIZE 16
AVG_LOWERCASE_WIDTH 131
AVG_UPPERCASE_WIDTH 174
ENDPROPERTIES
CHARS 1148
STARTCHAR NULL.dup1
ENCODING 0
SWIDTH 600 0
DWIDTH 17 0
BBX 1 1 0 0
BITMAP
00
ENDCHAR
STARTCHAR nonmarkingreturn
ENCODING 13
SWIDTH 600 0
DWIDTH 17 0
BBX 1 1 0 0
BITMAP
00
ENDCHAR
STARTCHAR space
ENCODING 32
SWIDTH 217 0
DWIDTH 6 0
BBX 1 1 0 0
BITMAP
00
ENDCHAR
STARTCHAR exclam
ENCODING 33
SWIDTH 257 0
DWIDTH 7 0
BBX 8 21 1 0
BITMAP
005A
01FE
01FE
02FD
02FC
03F8
03F4
07F0
07E0
07E0
0BD0
0BC0
0F80
0F40
0A00
0000
0000
7E00
FF40
FF40
7E00
ENDCHAR
STARTCHAR quotedbl
ENCODING 34
SWIDTH 353 0
DWIDTH 10 0
BBX 10 6 2 15
BITMAP
0BC7D0
1F8BC0
2F0F40
3D1F00
7C3D00
B47C00
ENDCHAR
STARTCHAR numbersign
ENCODING 35
SWIDTH 659 0
DWIDTH 18 0
BBX 16 19 1 1
BITMAP
00050050
000F01E0
000F01E0
001E02D0
002E03D0
002D03C0
0BFFFFFD
0ABEAFA9
00780B40
00B40F00
00B40F00
2AFAAFA4
7FFFFFF0
01E02D00
02D03C00
03C07800
03C07800
0780B400
01001000
ENDCHAR
STARTCHAR dollar
ENCODING 36
SWIDTH 548 0
DWIDTH 15 0
BBX 15 27 0 -3
BITMAP
00000700
00000A00
00000E00
0006FF40
002FAEF0
007E28F8
00FD38FC
00FD35F8
00FE71F4
00BFE000
007FE000
001FF400
000BFD00
0002FF00
0003FF80
1B837FC0
3FE72FD0
7F4B1FE0
BD0A1FD0
BD0D1FD0
7E1D3F80
3F5DBF00
0FFFF800
01BF9000
00340000
00700000
00A00000
ENDCHAR
STARTCHAR percent
ENCODING 37
SWIDTH 796 0
DWIDTH 22 0
BBX 21 21 1 0
BITMAP
01BE0003C000
07D780078000
1F47C00F0000
2E07D02D0000
3D07D03C0000
7D07C0B40000
BC0BC1E00000
BC0F42D00000
7C1F07800000
3D7C0F000000
1BE01E01BE00
00003C0B8B40
0000B42F0B80
0000F03D0BC0
0002D07C0BC0
000780BC0B80
000B40F80F80
001E00F81F40
003C00B82E00
0078007C7800
00F0001F9000
ENDCHAR
STARTCHAR ampersand
ENCODING 38
SWIDTH 682 0
DWIDTH 19 0
BBX 19 21 0 0
BITMAP
0001BE4000
000BFBE000
003F81F400
00BF01F400
00FE02F400
00FD03F000
00FE004000
00BF000000
003FD00010
007F9000B4
02FE02BFF4
0BF80FFFF0
2FF02FFF80
3FE02E6800
7FD0143400
BFD0007400
BFE001E000
7FF40BD000
3FFFFF4000
1FFFFD0000
02FF900000
ENDCHAR
STARTCHAR quotesingle
ENCODING 39
SWIDTH 196 0
DWIDTH 5 0
BBX 5 7 2 14
BITMAP
0BC0
0F80
1F00
2E00
3C00
7800
5000
ENDCHAR
STARTCHAR parenleft
ENCODING 40
SWIDTH 437 0
DWIDTH 12 0
BBX 11 28 4 -7
BITMAP
000068
0001E0
000B80
002E00
00BC00
01F800
03F000
0BD000
0FC000
1F8000
3F4000
3F4000
7F0000
BE0000
BE0000
BE0000
BD0000
BD0000
BD0000
BD0000
7E0000
3E0000
2F0000
1F0000
0B4000
07C000
01D000
004000
ENDCHAR
STARTCHAR parenright
ENCODING 41
SWIDTH 413 0
DWIDTH 12 0
BBX 11 28 -2 -7
BITMAP
001C00
000F00
000B80
0007C0
0003E0
0002F0
0002F4
0002F4
0001F8
0001F8
0001F8
0002F8
0002F8
0002F8
0003F4
0003F0
0007F0
000BE0
000FC0
001F80
003F00
007D00
00F800
02E000
078000
2E0000
B40000
400000
ENDCHAR
STARTCHAR asterisk
ENCODING 42
SWIDTH 515 0
DWIDTH 14 0
BBX 10 11 2 10
BITMAP
00B800
00F400
34F590
7EB7F0
2FFFE0
06FD00
6FFFD0
BEB7E0
14F5D0
00F400
00F000
ENDCHAR
STARTCHAR plus
ENCODING 43
SWIDTH 442 0
DWIDTH 12 0
BBX 11 10 0 4
BITMAP
001F00
002E00
002D00
003D00
2ABEA8
7FFFFC
00B800
00F400
00F000
01F000
ENDCHAR
STARTCHAR comma
ENCODING 44
SWIDTH 216 0
DWIDTH 6 0
BBX 5 8 0 -4
BITMAP
1F40
3F80
7F80
2F80
0B00
0D00
2800
2000
ENDCHAR
STARTCHAR hyphen
ENCODING 45
SWIDTH 290 0
DWIDTH 8 0
BBX 7 2 0 6
BITMAP
2AA4
7FF4
ENDCHAR
STARTCHAR period
ENCODING 46
SWIDTH 263 0
DWIDTH 7 0
BBX 5 4 1 0
BITMAP
7D00
FF40
FF40
7D00
ENDCHAR
STARTCHAR slash
ENCODING 47
SWIDTH 311 0
DWIDTH 9 0
BBX 8 28 0 -7
BITMAP
000F
000F
001E
001E
002D
003C
003C
0078
00B4
00B4
00F0
01E0
01E0
02D0
02D0
03C0
0780
0780
0B40
0F00
0F00
1E00
2D00
2D00
3C00
3C00
7800
B400
ENDCHAR
STARTCHAR zero
ENCODING 48
SWIDTH 546 0
DWIDTH 15 0
BBX 16 21 0 0
BITMAP
0001BE80
001FFFE0
007F83F8
01FE02FC
03FC01FD
07F801FD
0FF401FD
1FF001FD
2FE001FD
3FD002FD
3FD002FC
7FC003FC
7FC003F8
7FC007F4
7F800BF0
7F800FE0
7FC01FC0
3FC03F40
1FD0BE00
0BFBF800
01BF9000
ENDCHAR
STARTCHAR one
ENCODING 49
SWIDTH 317 0
DWIDTH 9 0
BBX 9 21 0 0
BITMAP
000080
001B80
0AFF80
1FFF40
00BF00
00FF00
01FE00
01FE00
02FD00
03FC00
03FC00
07F800
0BF400
0BF400
0FF000
1FE000
1FE000
2FD000
3FC000
3FC000
7F8000
ENDCHAR
STARTCHAR two
ENCODING 50
SWIDTH 492 0
DWIDTH 14 0
BBX 15 21 -1 0
BITMAP
001BF900
00BEFF80
01F42FE0
03E01FF0
03E00FF4
03F00FF0
02F81FF0
00502FD0
00003F80
0000BE00
0002F800
000BE000
002F4000
00B80000
02E00000
0B800000
1FA94190
3FFFFFD0
7FFFFFD0
7FFFFF80
1006BE00
ENDCHAR
STARTCHAR three
ENCODING 51
SWIDTH 514 0
DWIDTH 14 0
BBX 14 21 0 0
BITMAP
001BF900
00BEBF80
02F80FE0
03F00BF0
03F00BF0
02F80FE0
00A42FD0
00007F40
0002FD00
000BF800
0001FF40
0000BFC0
0A803FD0
3FE03FE0
BF402FE0
BE002FD0
BD003FC0
BD007F40
7E01FE00
2FEFF400
06FE8000
ENDCHAR
STARTCHAR four
ENCODING 52
SWIDTH 476 0
DWIDTH 13 0
BBX 14 21 0 0
BITMAP
000F8000
000FE000
000FF000
000FE000
001FD000
002FC540
003F4B40
00BE0F00
01F81F00
02F02E00
07C03D00
1F007D80
3EFEFFD0
BFFFFFC0
AAAFFF40
0002F800
0003F000
0007F000
000FE000
001FD000
002FD000
ENDCHAR
STARTCHAR five
ENCODING 53
SWIDTH 517 0
DWIDTH 14 0
BBX 14 20 0 0
BITMAP
00500160
00BFFFF0
00FFFFE0
01F6BF80
01F00000
02E00000
03D00000
03EFF900
07FFFF40
0A41FFC0
00007FD0
00002FD0
0BD02FD0
2FE02FD0
7F402FD0
BE003FC0
BE00BF40
7F41FE00
2FFFF400
06FE4000
ENDCHAR
STARTCHAR six
ENCODING 54
SWIDTH 500 0
DWIDTH 14 0
BBX 15 21 0 0
BITMAP
0001BE40
001FFBE0
007F41F4
01FE01F4
03FC02F0
0BF40290
0FF00000
2FE00000
3FD1A800
3FDFFF40
7FE47FC0
7FD01FD0
7F800FD0
BF800FE0
BF800FD0
7F801FC0
7F802F80
3F803F00
2FD0BD00
0FFBF400
01BF8000
ENDCHAR
STARTCHAR seven
ENCODING 55
SWIDTH 464 0
DWIDTH 13 0
BBX 14 21 1 0
BITMAP
0BE40000
3FFE4190
7FFFFFC0
741A7F40
00007E00
0000FC00
0002F400
000BE000
001FC000
007F4000
00FF0000
02FD0000
07F80000
0BF40000
1FF00000
2FE00000
2FD00000
3FD00000
2FD00000
1FE00000
0BE00000
ENDCHAR
STARTCHAR eight
ENCODING 56
SWIDTH 499 0
DWIDTH 14 0
BBX 14 21 0 0
BITMAP
000BF900
007FEFC0
01FD07E0
03FC03F0
03F803F0
07FC07E0
03FD0FD0
02FF6F40
00FFF900
007FF400
00BFFD00
07E7FF40
2FC1FFC0
7F40BFD0
FF003FE0
FE002FD0
FE002FD0
BF003F80
7F80BF00
1FFBF800
02BF9000
ENDCHAR
STARTCHAR nine
ENCODING 57
SWIDTH 489 0
DWIDTH 14 0
BBX 14 21 0 0
BITMAP
001BF800
00BEFF40
03F43F80
0BD01FD0
1FC01FE0
3F801FE0
3F401FE0
7F401FE0
7F402FE0
3F803FE0
2FD1FFE0
0BFFAFD0
01A93FC0
00007F80
0000BF40
1900FF00
7E01FD00
BC03F800
BC1FE000
3FFF8000
0BF90000
ENDCHAR
STARTCHAR colon
ENCODING 58
SWIDTH 267 0
DWIDTH 7 0
BBX 6 11 1 2
BITMAP
0BD0
1FF0
1FF0
0BD0
0000
0000
0000
2E00
BF40
BF40
6E00
ENDCHAR
STARTCHAR semicolon
ENCODING 59
SWIDTH 276 0
DWIDTH 8 0
BBX 6 14 1 -3
BITMAP
0BD0
1FF0
1FF0
0BD0
0000
0000
2E00
BF40
BF40
7F00
1E00
1C00
3400
5000
ENDCHAR
STARTCHAR less
ENCODING 60
SWIDTH 358 0
DWIDTH 10 0
BBX 10 11 0 2
BITMAP
000010
0001E0
001FE0
01FE40
1FF400
BF4000
7F8000
0BF400
01BF40
001F40
000100
ENDCHAR
STARTCHAR equal
ENCODING 61
SWIDTH 515 0
DWIDTH 14 0
BBX 12 9 1 3
BITMAP
1FFFFF
2FFFFE
2FFFFE
000000
000000
000000
BFFFF8
BFFFF8
FFFFF4
ENDCHAR
STARTCHAR greater
ENCODING 62
SWIDTH 362 0
DWIDTH 10 0
BBX 10 11 0 2
BITMAP
040000
1E4000
1FE000
02FE00
002FD0
001BE0
00BF80
0BF800
7F8000
B80000
400000
ENDCHAR
STARTCHAR question
ENCODING 63
SWIDTH 441 0
DWIDTH 12 0
BBX 11 21 1 0
BITMAP
01BF80
0FEFF4
3E07F8
7D03FC
BD02FC
7E03F8
3F47F4
000FD0
002F40
00BD00
01F400
03D000
0B4000
0F0000
0E0000
000000
000000
2E0000
BF8000
BF8000
2E0000
ENDCHAR
STARTCHAR at
ENCODING 64
SWIDTH 688 0
DWIDTH 19 0
BBX 20 20 -1 -3
BITMAP
00001AA400
0002FFFF80
001FE407E0
007F4000F4
01FD0000BC
03F02EA47C
0BD1FEF47D
0F83F1F07C
1F4BD1F07C
2F0F82E0B8
3E1F43D1F4
3D1F47C2E0
7D1F4BDBD0
7D0FF6FF40
3D0690A400
3E00001000
2F0000B000
0F9006F000
07FEBFD000
006FE90000
ENDCHAR
STARTCHAR A
ENCODING 65
SWIDTH 668 0
DWIDTH 19 0
BBX 20 24 0 -3
BITMAP
00000006FD
0000002FFC
000000BBFC
000002D7F8
00000B4BF8
00002E0BF4
00007D0FF0
0000F80FF0
01AAF41FE0
1FFFFFAFD0
7F4BC1BFD0
BD1F803FC0
BD3F407F80
147F007F80
00BE00BF40
01FD00FF00
02FC00FF00
03F801FE00
07F402FE00
07F002FD00
0BF003FC00
0BE0000000
07E0000000
01F0000000
ENDCHAR
STARTCHAR B
ENCODING 66
SWIDTH 641 0
DWIDTH 18 0
BBX 17 21 0 0
BITMAP
0006BFA000
007FEBFD00
02F8007F00
0BC6B82F40
2F0BF41F40
7D0FF02F40
BC0FF07E00
BC1FE1F800
7C1FFFF400
2C2FFFFE00
003FC1FF40
003F807F80
007F803FC0
00BF403FC0
00BF403F80
00FF007F80
01FE00BF40
01FE41FF00
02FDFFFD00
03FCBFF400
03FC6F9000
ENDCHAR
STARTCHAR C
ENCODING 67
SWIDTH 497 0
DWIDTH 14 0
BBX 15 21 0 0
BITMAP
0001BF80
001FFAF4
007FD0B8
01FF407C
03FE00BC
07FC01F8
0FF80050
1FF40000
2FF00000
2FE00000
3FE00000
7FD00000
7FD00000
7FD00000
7FD00000
7FD00004
7FE00034
3FF402E0
2FFFFF80
0BFFFD00
01BF9000
ENDCHAR
STARTCHAR D
ENCODING 68
SWIDTH 663 0
DWIDTH 19 0
BBX 18 21 0 0
BITMAP
0006BFA000
007FEBFD00
02F4007F40
0F86A42FC0
3F0BF40FD0
7D0FF00FE0
BC1FE00BF0
BC1FE00FF0
B82FD00FF0
2C3FC00FF0
003FC00FF0
007F801FE0
00BF401FD0
00BF402FD0
00FF003F80
01FF00BF40
01FE00FF00
02FD02FD00
02FE5BF800
03FFFFE000
07F9BE4000
ENDCHAR
STARTCHAR E
ENCODING 69
SWIDTH 459 0
DWIDTH 13 0
BBX 14 21 0 0
BITMAP
0001BE40
001FEBD0
003F42E0
00BE01E0
00FD02E0
01FD07C0
01FD0000
00FE0000
007F8000
00BF9000
07FE0000
0FF80000
2FF00000
7FD00000
BFD00000
BFC00050
BFD000C0
BFE00B40
7FFFFE00
2FFFF400
06FE4000
ENDCHAR
STARTCHAR F
ENCODING 70
SWIDTH 459 0
DWIDTH 13 0
BBX 17 21 0 0
BITMAP
001BFFFF80
01FFFFFF40
0B8BFABD00
2E0BF40000
3D0FF00000
7C1FF00000
BC1FE00000
BC2FD00000
BC3FD00000
7C3FFFD000
047FFFC000
00BF800000
00BF400000
00FF400000
00FF000000
01FE000000
02FE000000
02FD000000
03FC000000
07FC000000
07F8000000
ENDCHAR
STARTCHAR G
ENCODING 71
SWIDTH 578 0
DWIDTH 16 0
BBX 16 27 0 -6
BITMAP
0001BFA0
002FFAFC
00FF903E
03FE002F
0BFC003E
1FF400BD
2FE00014
3FD00000
7FC00000
7FC000A8
7FC001FC
7FC002F8
7FC007F8
3FD00FF4
2FF46FF0
0BFFEFF0
02FF8FE0
00001FD0
00001FD0
00692FC0
03FF3F80
0BD17F40
0F407F00
0F40FE00
0B82F800
03FFE000
006A4000
ENDCHAR
STARTCHAR H
ENCODING 72
SWIDTH 665 0
DWIDTH 19 0
BBX 20 21 0 0
BITMAP
0006FD02FD
006FFC03FC
02FFF803FC
0BD7F807F8
2F4BF407F4
3E0BF40BF4
7D0FF00FF0
BC1FE00FF0
BC1FE01FE0
3C2FFFFFD0
043FFFFFD0
003FC03FC0
007F803F80
00BF807F80
00BF40BF40
00FF00BF00
01FF00FF00
01FE01FE00
02FD01FE00
03FC02FD00
03FC03FC00
ENDCHAR
STARTCHAR I
ENCODING 73
SWIDTH 375 0
DWIDTH 11 0
BBX 11 21 0 0
BITMAP
0006FC
007FF8
02EBF8
0F8BF4
3E0FF0
7D0FF0
BC1FE0
B81FE0
B82FD0
283FC0
003FC0
007F80
00BF40
00BF40
00FF00
01FE00
01FE00
02FD00
03FD00
03FC00
07F800
ENDCHAR
STARTCHAR J
ENCODING 74
SWIDTH 536 0
DWIDTH 15 0
BBX 16 27 0 -6
BITMAP
000001BF
00001FFF
0000BAFE
0002E2FD
000BC2FD
001F43FC
002F07F8
002F07F8
002F0BF4
000B0FF4
00000FF0
00001FE0
00002FE0
00002FD0
00003FC0
00007FC0
00007F80
0000BF40
0000FF40
0690FF00
2FF9FE00
7E16FE00
7C03FC00
7C07F800
7D1BF000
2FFF8000
06A50000
ENDCHAR
STARTCHAR K
ENCODING 75
SWIDTH 601 0
DWIDTH 17 0
BBX 19 21 0 0
BITMAP
0006FC02F4
007FF807D0
03EBF81F40
1F8BF43E00
3E0FF0B800
7D0FF1E000
BC1FE7C000
B81FEF0000
B82FFD0000
283FFFE400
003FD7FC00
007F82FD00
00BF42FD00
00BF42FC00
00FF03FC00
01FE07F800
01FE07F400
02FD0BF000
03FD0FF000
03FC0FF000
07F807F400
ENDCHAR
STARTCHAR L
ENCODING 76
SWIDTH 379 0
DWIDTH 11 0
BBX 19 28 0 -7
BITMAP
0006FC0000
007FF80000
03EBF80000
1F4BF40000
3E0FF00000
7D0FF00000
BC1FE00000
B82FD00000
B82FD00000
183FC00000
007F800000
007F800000
00BF400000
00FF400000
00FF000000
01FE000000
01FE000000
02FD000000
03FC000000
03FC000000
07FF400000
006FF40000
0002FE0000
00007FE414
00001FFFF4
000007FFF0
000000BFE0
0000001B80
ENDCHAR
STARTCHAR M
ENCODING 77
SWIDTH 787 0
DWIDTH 22 0
BBX 21 21 2 0
BITMAP
001BFC00BF40
01BFFC00FF40
07D7FC02FF00
1F4BF803FF00
7D0FF807FF00
BC1FF80BFE00
F82FF81FFE00
F87FF82FFD00
B8BFF83FFD00
28FBF87BFD00
01F7F8B7FC00
02E7F5F7FC00
03D7F6E7F800
07C7F7C7F800
0B47FB8BF400
0F0BFF4BF400
1E0BFF0BF400
3D0BFE0FF000
7C0BFC0FF000
B80BF81FE000
F40BF41FE000
ENDCHAR
STARTCHAR N
ENCODING 78
SWIDTH 668 0
DWIDTH 19 0
BBX 20 21 0 0
BITMAP
001BF8002F
01FFFC003E
0BE7FD003E
2F4BFE007D
3E0BFE00BC
BD0FFF00BC
BC1FFF40F8
BC1FFF40F4
BC2F7F81F4
3D3F3FC2F0
053E2FC2E0
007D2FD3E0
00BD1FE7D0
00BC0FE7D0
00F80FFBC0
01F80BFF80
01F407FF80
02F003FF40
03E003FF00
03E002FF00
07D001FE00
ENDCHAR
STARTCHAR O
ENCODING 79
SWIDTH 665 0
DWIDTH 19 0
BBX 19 21 0 0
BITMAP
0001AFE800
002FFAFF40
01FD041FD0
07E0BD0BE0
1F83F80BF0
3E0BF007F4
7D1FD007F4
BC3FC007F4
7C7F800BF4
2CFF400BF4
01FF000FF0
01FE000FE0
02FE001FD0
02FD002FD0
03FD007F80
03FD00BF40
03FD01FE00
02FD03FC00
01FF5FF000
00BFFF8000
001BF90000
ENDCHAR
STARTCHAR P
ENCODING 80
SWIDTH 573 0
DWIDTH 16 0
BBX 17 21 0 0
BITMAP
0006FF9000
007FABF800
02F400BE00
0F86A43F40
2E0BF42F40
7D0FF02F80
BC1FE02F40
BC1FE03F40
B82FD07F00
2C3FD0BD00
003FC1F800
007F8BD000
00BFFE4000
00BF400000
00FF000000
01FF000000
01FE000000
02FD000000
02FD000000
03FC000000
07F8000000
ENDCHAR
STARTCHAR Q
ENCODING 81
SWIDTH 665 0
DWIDTH 19 0
BBX 19 24 0 -3
BITMAP
0001AFE800
002FFAFF40
01F9041FD0
0BD0BD0BE0
1F47F80BF0
3E0FF007F4
7D2FD007F4
BC3FC007F4
7C7F800BF4
18FF400BF4
01FF000FF0
01FE001FE0
02FD002FE0
02FD003FD0
03FD007FC0
03FD00FF40
03FEFAFE00
02FE6FFD00
01FF1FF400
00BFBFD000
001BFFE000
000003FD40
000002FF80
000000BE00
ENDCHAR
STARTCHAR R
ENCODING 82
SWIDTH 601 0
DWIDTH 17 0
BBX 17 21 0 0
BITMAP
0006FF9000
007FEBF800
03F4007E00
1F86B42F40
3E0BF42F40
7D0FF02F40
BC1FE03E00
B81FE0BD00
782FD6F400
183FFFE400
003FC3FC00
007F82FD00
00BF42FD00
00BF42FC00
00FF03FC00
01FE07F800
01FE07F400
02FD0BF000
03FD0FF000
03FC0FF000
07F807F400
ENDCHAR
STARTCHAR S
ENCODING 83
SWIDTH 570 0
DWIDTH 16 0
BBX 15 21 1 0
BITMAP
0006FE40
003FEBE0
00FF02F4
01FD01F4
02FD01F4
02FE03F0
01FF0190
00FF8000
007FE000
002FF800
000BFE00
0002FF40
0B90FF80
3FF07FD0
BF403FD0
FD003FD0
FC003FC0
FD007F80
7F41FF00
2FFFF800
06FF9000
ENDCHAR
STARTCHAR T
ENCODING 84
SWIDTH 481 0
DWIDTH 13 0
BBX 20 21 0 0
BITMAP
001BFE4001
01FFFFF907
0BE5BFFFFE
2F40FFFFFD
3E00FFABE4
7C01FF0000
BC02FE0000
B802FE0000
B803FD0000
7807FC0000
1807FC0000
000BF80000
000BF40000
000FF00000
001FF00000
001FE00000
002FD00000
003FD00000
003FC00000
007F800000
00BF800000
ENDCHAR
STARTCHAR U
ENCODING 85
SWIDTH 716 0
DWIDTH 20 0
BBX 22 21 0 0
BITMAP
0006BE002FD0
00BFFE003FC0
07E2FD003F80
1F43FC007F80
7D03F800BF40
BC07F800BF40
F80BF400FF00
F80FF001FE00
B80FE001FE00
2C1FD002FD00
002FD003FC00
003FC003FC00
007F8007F800
007F400BF400
00BF400FF000
00BF001FE000
00BF002FD000
007F40BF8000
003FEAFE0000
001FFFF80000
0006FF900000
ENDCHAR
STARTCHAR V
ENCODING 86
SWIDTH 615 0
DWIDTH 17 0
BBX 19 21 0 0
BITMAP
0006FC003C
007FFC0078
02E7FC00B4
0F83FC00F0
3E03FD01E0
7D03FD02C0
BC03FD0380
B803FD0740
B803FD0B00
2803FD0E00
0003FD1D00
0003FD2C00
0002FD3800
0002FD7400
0002FDA000
0002FDD000
0002FEC000
0002FF8000
0002FF4000
0002FF0000
0002FE0000
ENDCHAR
STARTCHAR W
ENCODING 87
SWIDTH 962 0
DWIDTH 27 0
BBX 29 21 0 0
BITMAP
0006FC003F800780
007FFC007F800B40
02E7FC00BFC00F00
0F83FC00FFC01E00
3E03FD01FFC02D00
7D03FD02FFC03C00
BC03FD03FFC07400
B803FD07BFC0B000
B803FD0B7FC0E000
2803FD0E7FC1D000
0003FD1D3FC2C000
0003FD2C3FC38000
0002FD383FC74000
0002FD743FCB0000
0002FDB03FCE0000
0002FDD03FDC0000
0002FEC03FE80000
0002FF803FF40000
0002FF403FF00000
0002FF003FE00000
0002FE003FD00000
ENDCHAR
STARTCHAR X
ENCODING 88
SWIDTH 620 0
DWIDTH 17 0
BBX 18 21 0 0
BITMAP
0006FD02D0
007FFD0780
02E3FE0B00
0F82FE1E00
3E02FF3C00
7D01FFB400
BC00FFE000
B800FFD000
B800BFC000
28007FC000
00007FD000
00003FD000
00007FE000
0000FFF000
0002EFF000
00039FF400
000B0FF800
001D0BF800
002C0BFC00
007407FC00
00E003FD00
ENDCHAR
STARTCHAR Y
ENCODING 89
SWIDTH 620 0
DWIDTH 17 0
BBX 20 21 0 0
BITMAP
0006FD002D
007FFD003C
02E3FE0074
0F82FF00B0
3E01FF40E0
7D00FF42C0
BC00FF8380
B800BFC740
B8007FCA00
28003FED00
00003FFC00
00002FF400
00001FF000
00002FF000
00002FE000
00003FD000
00007FD000
00007FC000
0000BF8000
0000FF8000
0000FF4000
ENDCHAR
STARTCHAR Z
ENCODING 90
SWIDTH 542 0
DWIDTH 15 0
BBX 16 21 0 0
BITMAP
01BFFFFD
03FAAFF8
07D01FF4
0BD02FE0
02807FD0
0000BF80
0001FF40
0002FE00
0007FD00
000FF800
001FF400
003FE000
007FD000
00FF8000
01FF4000
03FE0000
07FD0190
0FF803F0
1FF403F0
3FFAAFD0
7FFFFE40
ENDCHAR
STARTCHAR bracketleft
ENCODING 91
SWIDTH 400 0
DWIDTH 11 0
BBX 12 28 0 -7
BITMAP
001FFE
002FA9
003F00
003F00
007E00
007D00
00BD00
00FC00
00F800
01F800
02F400
02F000
03F000
03E000
07E000
0BD000
0BC000
0FC000
1F8000
1F4000
2F4000
3F0000
3E0000
7E0000
7D0000
BD0000
FEA000
FFF000
ENDCHAR
STARTCHAR backslash
ENCODING 92
SWIDTH 362 0
DWIDTH 10 0
BBX 8 28 1 -7
BITMAP
B400
B800
7800
3C00
3C00
2D00
1E00
1E00
0F00
0B40
0B40
0780
07C0
03C0
02D0
02D0
01E0
00F0
00F0
00B4
0078
0078
003C
003D
002D
001E
001E
000F
ENDCHAR
STARTCHAR bracketright
ENCODING 93
SWIDTH 400 0
DWIDTH 11 0
BBX 12 28 -2 -7
BITMAP
000FFF
000ABF
00007E
00007D
0000BD
0000BC
0000F8
0001F8
0001F4
0002F4
0003F0
0003E0
0007E0
000BD0
000BC0
000FC0
000F80
001F80
002F40
002F00
003F00
007E00
007D00
00BD00
00FC00
00FC00
6AF800
BFF400
ENDCHAR
STARTCHAR asciicircum
ENCODING 94
SWIDTH 421 0
DWIDTH 12 0
BBX 8 5 2 15
BITMAP
0070
01F4
0BF8
2E1C
A009
ENDCHAR
STARTCHAR underscore
ENCODING 95
SWIDTH 444 0
DWIDTH 12 0
BBX 10 2 1 0
BITMAP
6AAAA0
FFFFF0
ENDCHAR
STARTCHAR grave
ENCODING 96
SWIDTH 201 0
DWIDTH 6 0
BBX 4 5 1 15
BITMAP
F8
BC
7C
2D
1D
ENDCHAR
STARTCHAR a
ENCODING 97
SWIDTH 526 0
DWIDTH 15 0
BBX 17 14 -1 0
BITMAP
001BEBF400
00FFBFF000
02FD1FF000
0BF41FE000
0FF02FD000
2FD02FD000
3FD03FC000
3FC07F8000
7FC07F8000
7F80BF4180
7FC1FF4340
3FEBFFEE00
2FFE7FF800
0BE41F9000
ENDCHAR
STARTCHAR b
ENCODING 98
SWIDTH 444 0
DWIDTH 12 0
BBX 12 20 0 0
BITMAP
001400
03FC00
07F800
0BF400
0BF400
0FF000
1FFBE0
1FFBF8
2FD0FC
2FC0BD
3FC07D
7F80BD
7F40BD
BF40FC
FF01F8
FF02F4
FF07E0
FFFFC0
BFFF40
1FE400
ENDCHAR
STARTCHAR c
ENCODING 99
SWIDTH 384 0
DWIDTH 11 0
BBX 13 14 -1 0
BITMAP
001BE400
00BFBC00
02FC3D00
0BF43C00
0FF02400
2FE00000
3FD00000
3FC00000
7FC00000
7F800240
7FC00A00
3FE57800
2FFFE000
06FE4000
ENDCHAR
STARTCHAR d
ENCODING 100
SWIDTH 525 0
DWIDTH 15 0
BBX 17 20 -1 0
BITMAP
0000000500
000002FD00
000002FD00
000003FC00
000007F800
000007F800
001BEBF400
00FFBFF000
02FC1FF000
0BF41FE000
0FE02FD000
2FD02FD000
3FC03FC000
3FC07F8000
7F807F8040
7F80BF4280
7FC1FF4740
3FFFBFFE00
2FFE3FF800
0BE41FD000
ENDCHAR
STARTCHAR e
ENCODING 101
SWIDTH 384 0
DWIDTH 11 0
BBX 13 14 -1 0
BITMAP
001BE400
00BFBC00
02FC3D00
0BF43D00
0FF07C00
2FD0F400
3FD7E000
3FFF8000
7FE40000
7F800140
7FC00A00
3FE57800
2FFFE000
06FE4000
ENDCHAR
STARTCHAR f
ENCODING 102
SWIDTH 267 0
DWIDTH 7 0
BBX 17 28 -6 -7
BITMAP
000002F900
00001FFF40
00002FE680
00007F8280
0000BF4000
0000BF4000
0000FF0000
0001FFF000
0001FFA000
0002FE0000
0003FD0000
0003FC0000
0007FC0000
0007F80000
000BF40000
000FF40000
000FF00000
001FE00000
002FE00000
002FD00000
003FC00000
06FFC00000
2EBF800000
74BF400000
A0BF400000
B5FE000000
7FFC000000
1BE0000000
ENDCHAR
STARTCHAR g
ENCODING 103
SWIDTH 507 0
DWIDTH 14 0
BBX 16 21 -1 -7
BITMAP
001BEBF4
00FFBFF0
02FC1FF0
0BF41FE0
0FE02FD0
2FD02FD0
3FC03FC0
3FC07F80
7F807F81
7F80BF43
7FC1FF0A
3FFFFF1C
2FFFFFB4
0BE6FF80
001BFD00
00BFFC00
02D3FC00
0387F800
034BF400
03EFE000
00BE4000
ENDCHAR
STARTCHAR h
ENCODING 104
SWIDTH 505 0
DWIDTH 14 0
BBX 16 20 -1 0
BITMAP
00050000
00FF0000
01FE0000
02FE0000
02FD0000
03FC0000
03FCBE00
07FFFF80
0BFFFFC0
0BF83FC0
0FF43FC0
1FF03F80
1FE07F40
2FD0BF00
3FD0BF00
3FC0FE07
7F80FE0A
BF80FFFC
BF40BFF4
FF002F90
ENDCHAR
STARTCHAR i
ENCODING 105
SWIDTH 267 0
DWIDTH 7 0
BBX 10 19 -1 0
BITMAP
00B900
01FE00
01FE00
00B900
000000
07F800
07F800
0BF400
0FF400
0FF000
1FE000
1FE000
2FD000
3FC000
3FC090
7FC1C0
3FEB40
2FFD00
0BE400
ENDCHAR
STARTCHAR j
ENCODING 106
SWIDTH 240 0
DWIDTH 7 0
BBX 14 26 -6 -7
BITMAP
00002E00
0000BF80
0000BF80
00002E00
00000000
0001FF00
0001FE00
0002FD00
0002FD00
0003FC00
0007F800
0007F800
000BF400
000FF400
000FF060
001FE090
002FE1C0
002FD740
003FE800
01BFC000
0BFF8000
3EBF4000
B4BF4000
B1FE0000
7BFC0000
1FE00000
ENDCHAR
STARTCHAR k
ENCODING 107
SWIDTH 518 0
DWIDTH 15 0
BBX 17 20 -1 0
BITMAP
0005000000
00FF000000
01FE000000
02FD000000
02FD000000
03FC000000
07FC07E000
07F81F4000
0BF4B80000
0BF6D00000
0FFFFD0000
1FFFFF4000
1FF4BF8000
2FD0BF8000
3FC0BF4000
3FC0BF4240
7F80FF0700
BF40FFAE00
BF40BFF800
FF002FD000
ENDCHAR
STARTCHAR l
ENCODING 108
SWIDTH 267 0
DWIDTH 7 0
BBX 10 20 -1 0
BITMAP
000100
00FF00
01FE00
02FE00
02FD00
03FC00
03FC00
07F800
0BF400
0BF400
0FF000
1FE000
1FE000
2FD000
3FC000
3FC090
7FC1C0
3FEB40
2FFE00
0BE400
ENDCHAR
STARTCHAR m
ENCODING 109
SWIDTH 752 0
DWIDTH 21 0
BBX 23 14 -1 0
BITMAP
07F9BE06F800
07FFFFAFFE00
0BFD7FF5FF00
0FF43FD0FF00
0FF07FC0FE00
1FE07F81FE00
1FE0BF42FD00
2FD0BF42FC00
3FC0FF03F804
3FC1FE03F81C
7F81FE07F838
BF42FD07FFF0
BF43FD02FFD0
FF03FC00BE40
ENDCHAR
STARTCHAR n
ENCODING 110
SWIDTH 505 0
DWIDTH 14 0
BBX 16 14 -1 0
BITMAP
07F9BE00
07FFFF80
0BFD7FC0
0FF43FC0
0FF03FC0
1FE07F80
1FE07F40
2FD0BF00
3FC0FF01
3FC0FE07
7F80FE0A
BF40FFFC
BF40BFF4
FF002F90
ENDCHAR
STARTCHAR o
ENCODING 111
SWIDTH 439 0
DWIDTH 12 0
BBX 17 14 -1 0
BITMAP
001BE40000
00BFBD0000
02FD2E0000
0BF42E0280
0FF07FAE00
2FE03F9000
3FD02E0000
3FC03D0000
7FC03D0000
7F80BC0000
7FC0F40000
3FD6E00000
2FFF800000
06F9000000
ENDCHAR
STARTCHAR p
ENCODING 112
SWIDTH 468 0
DWIDTH 13 0
BBX 16 22 -3 -7
BITMAP
003FC000
007FDBE0
007FFBF8
00BF82FD
00FF01FD
00FF01FD
01FE02FD
01FE02FD
02FD03FC
03FC07F8
03FC0BF4
07F81FF0
0BFDBFD0
0BFFFF40
0FF7F900
1FE00000
1FE00000
2FD00000
3FD00000
3FC00000
7F800000
54000000
ENDCHAR
STARTCHAR q
ENCODING 113
SWIDTH 486 0
DWIDTH 14 0
BBX 15 21 -1 -7
BITMAP
001BEBF4
00FFBFF0
02FC1FF0
0BF41FE0
0FE02FD0
2FD02FD0
3FC03FC0
3FC07F80
7F807F80
7F80BF40
7FC1FF00
3FFFFF00
2FFFFE00
0BE6FD00
0002FD00
0003FC00
0007FC00
0007F800
000BF400
000BF400
00090000
ENDCHAR
STARTCHAR r
ENCODING 114
SWIDTH 376 0
DWIDTH 11 0
BBX 12 14 -1 0
BITMAP
07F8BD
07FFFE
0BFDBE
0FF43D
0FF000
1FE000
1FE000
2FD000
3FC000
3FC000
7F8000
BF4000
BF4000
FF0000
ENDCHAR
STARTCHAR s
ENCODING 115
SWIDTH 382 0
DWIDTH 11 0
BBX 13 15 -1 0
BITMAP
00158000
007FD000
00BFD000
00FFD000
01EFD000
02AFD000
036FE000
0A2FE000
1D1FE000
7D1FE000
BD1FE240
E41FFD00
B02FE000
7EFF4000
1BF90000
ENDCHAR
STARTCHAR t
ENCODING 116
SWIDTH 267 0
DWIDTH 7 0
BBX 10 19 -1 0
BITMAP
000100
01FE00
02FD00
02FD00
03FC00
0FFF80
0BFE40
0BF800
0BF400
0FF000
1FF000
1FE000
2FD000
3FD000
3FC090
7FC1C0
3FEB40
2FFE00
0BE400
ENDCHAR
STARTCHAR u
ENCODING 117
SWIDTH 505 0
DWIDTH 14 0
BBX 16 14 -1 0
BITMAP
07F81FE0
07F82FE0
0BF42FD0
0FF43FC0
0FF03FC0
1FE07F80
1FE0BF40
2FD0BF40
3FC0FF00
3FC1FF03
7FC3FE0A
3FEEFFBC
2FFCBFF4
0BE02F80
ENDCHAR
STARTCHAR v
ENCODING 118
SWIDTH 414 0
DWIDTH 12 0
BBX 12 14 -1 0
BITMAP
07F82E
07F87F
0BF42F
0FF40B
0FF00B
1FE00E
1FE01E
2FD02D
3FC03C
3FC0B4
7FC2E0
3FEFC0
2FFF40
0BF800
ENDCHAR
STARTCHAR w
ENCODING 119
SWIDTH 661 0
DWIDTH 19 0
BBX 19 14 -1 0
BITMAP
07F81FE0B4
07F82FE1FC
0BF42FD0BC
0FF43FC02C
0FF03FC02C
1FE07F8038
1FE0BF4074
2FD0BF40B4
3FC0FF01E0
3FC1FF02D0
7FC3FE0B80
3FEFFFBF00
2FFCFFFD00
0BE02FE000
ENDCHAR
STARTCHAR x
ENCODING 120
SWIDTH 522 0
DWIDTH 15 0
BBX 16 15 0 0
BITMAP
000003D0
007F47F0
02FFC2F0
0A1FD0E0
0C0FE2C0
240FFB40
300BFD00
600BF400
900BF400
802FF401
007BF809
01D3FC2C
0782FFF4
0F01FFE0
2D007E40
ENDCHAR
STARTCHAR y
ENCODING 121
SWIDTH 486 0
DWIDTH 14 0
BBX 16 21 -1 -7
BITMAP
07F81FE0
07F82FE0
0BF42FD0
0FF43FC0
0FF03FC0
1FE07F80
1FE0BF40
2FD0BF40
3FC0FF00
3FC1FE0A
7FC3FE0D
3FEFFD28
2FFFFDE0
0BE7FF40
001FF800
01FBF800
078BF400
0B0FF000
0B6FE000
07FFC000
01FE0000
ENDCHAR
STARTCHAR z
ENCODING 122
SWIDTH 428 0
DWIDTH 12 0
BBX 12 14 0 0
BITMAP
02FFFE
0FABFC
1F47F8
1F0FF0
041FD0
003FC0
00BF40
01FE00
02FD00
07F800
0FF0B8
2FD0B8
3FFAF4
BFFF90
ENDCHAR
STARTCHAR braceleft
ENCODING 123
SWIDTH 352 0
DWIDTH 10 0
BBX 10 28 1 -7
BITMAP
0006F0
002FE0
007E00
00BD00
00FC00
01F800
01F800
01F800
02F400
02F400
02F400
02F000
07E000
6F8000
BF4000
0BC000
0BC000
0FC000
1F8000
1F4000
2F4000
3F0000
7E0000
BE0000
BE0000
BF0000
7F8000
1BD000
ENDCHAR
STARTCHAR bar
ENCODING 124
SWIDTH 532 0
DWIDTH 15 0
BBX 3 28 6 -7
BITMAP
F8
F8
F8
F8
F8
F8
F8
F8
F8
F8
F8
F8
F8
F8
F8
F8
F8
F8
F8
F8
F8
F8
F8
F8
F8
F8
F8
F8
ENDCHAR
STARTCHAR braceright
ENCODING 125
SWIDTH 352 0
DWIDTH 10 0
BBX 10 28 -2 -7
BITMAP
002E40
002FE0
000BF0
0007F0
0007F0
0007E0
000BD0
000BD0
000FC0
001F80
001F40
002F40
002F00
001FE0
000BF0
007E00
00BD00
00FC00
00FC00
00FC00
01FC00
01F800
01F800
02F400
03F400
07E000
7FD000
BE0000
ENDCHAR
STARTCHAR asciitilde
ENCODING 126
SWIDTH 431 0
DWIDTH 12 0
BBX 12 3 1 16
BITMAP
06F945
2FFFF8
516F90
ENDCHAR
STARTCHAR uni00A0
ENCODING 160
SWIDTH 217 0
DWIDTH 6 0
BBX 1 1 0 0
BITMAP
00
ENDCHAR
STARTCHAR exclamdown
ENCODING 161
SWIDTH 219 0
DWIDTH 6 0
BBX 9 21 -2 -7
BITMAP
006E00
00BF40
00BF40
006E00
000000
000000
00F800
00F400
01F400
02F000
03F000
07E000
0BE000
0FE000
0FD000
1FD000
2FC000
3FC000
7F8000
BF4000
500000
ENDCHAR
STARTCHAR cent
ENCODING 162
SWIDTH 384 0
DWIDTH 11 0
BBX 12 21 0 -1
BITMAP
0001C0
000280
000280
001BF8
01FF3E
07DA3E
0F8E3D
2F4D14
3F1C00
7E2C00
BE2800
BE3400
BE7400
7F7000
3FF5A0
1FFFD0
06FE40
01C000
02C000
028000
014000
ENDCHAR
STARTCHAR sterling
ENCODING 163
SWIDTH 455 0
DWIDTH 13 0
BBX 15 21 0 0
BITMAP
00006F90
0007FBF0
000FE1F4
002FC1F4
003F82E0
007F8000
007F4000
00BF0000
00FE0000
2FFFFE00
2AFEA900
02FD0000
02FC0000
03F80000
07F80000
07F40000
0BD00000
0FFA40A0
2FFFFFE0
7FFFFFD0
5406BE40
ENDCHAR
STARTCHAR currency
ENCODING 164
SWIDTH 500 0
DWIDTH 14 0
BBX 10 10 2 5
BITMAP
500050
B6F9F0
3FAFC0
2D03C0
3401D0
7400D0
3801D0
2E0780
7FFFD0
A1A4B0
ENDCHAR
STARTCHAR yen
ENCODING 165
SWIDTH 558 0
DWIDTH 16 0
BBX 14 21 2 0
BITMAP
3FE000F0
2FF001D0
1FF402C0
0FF40380
0FF80B40
0BFC0E00
07FC1D00
07FD2C00
03FE3400
02FEB000
01FFE000
01FFD000
00FF8000
2FFFFF00
16FF5500
6BFFA900
BFFFFD00
03FE0000
07FD0000
07FC0000
0BFC0000
ENDCHAR
STARTCHAR brokenbar
ENCODING 166
SWIDTH 532 0
DWIDTH 15 0
BBX 3 28 6 -7
BITMAP
F8
F8
F8
F8
F8
F8
F8
F8
F8
F8
F8
F8
00
00
00
F8
F8
F8
F8
F8
F8
F8
F8
F8
F8
F8
F8
F8
ENDCHAR
STARTCHAR section
ENCODING 167
SWIDTH 542 0
DWIDTH 15 0
BBX 15 23 0 -2
BITMAP
0000AF90
0007E4B4
001FC078
002F8078
002F80A0
002FC000
00BFE000
02EFFD00
07D3FF40
0BE0BFD0
0BF82FE0
07FE0BF0
01FF83F0
007FE2F0
001FF6E0
1A07FBD0
7F83FE40
BD02FC00
BC02F800
BC03F400
7E5BE000
1FFF4000
00500000
ENDCHAR
STARTCHAR dieresis
ENCODING 168
SWIDTH 392 0
DWIDTH 11 0
BBX 9 3 1 16
BITMAP
2D0B40
7F1FC0
2D0B80
ENDCHAR
STARTCHAR copyright
ENCODING 169
SWIDTH 587 0
DWIDTH 16 0
BBX 14 14 1 2
BITMAP
006FA000
02906D00
0E000740
282F91C0
34BEF490
71D02860
A2C00070
A2C00070
71E02460
34BEF490
282F91C0
0E000740
02906D00
006FA000
ENDCHAR
STARTCHAR ordfeminine
ENCODING 170
SWIDTH 345 0
DWIDTH 10 0
BBX 8 8 1 12
BITMAP
07EF
2E2E
3C3D
787C
B47C
B8B8
BFBD
2928
ENDCHAR
STARTCHAR guillemotleft
ENCODING 171
SWIDTH 589 0
DWIDTH 16 0
BBX 16 9 0 3
BITMAP
00009009
000BC1B8
00B91B90
0B91B900
7D079000
7E07D000
07E07E00
00BD0BD0
000A0090
ENDCHAR
STARTCHAR logicalnot
ENCODING 172
SWIDTH 444 0
DWIDTH 12 0
BBX 11 7 0 1
BITMAP
2AAAA8
7FFFFC
0002F8
0002F4
0003F4
0007F0
000550
ENDCHAR
STARTCHAR uni00AD
ENCODING 173
SWIDTH 290 0
DWIDTH 8 0
BBX 7 2 0 6
BITMAP
2AA4
7FF4
ENDCHAR
STARTCHAR registered
ENCODING 174
SWIDTH 553 0
DWIDTH 15 0
BBX 14 14 1 2
BITMAP
00BF9000
07906800
1D000A00
34FF8280
A0D0A1C0
D0D0B0D0
D0FFD090
D0D28090
D0D1C0D0
A0D0E1C0
34D06280
1D000A00
07906800
00BF9000
ENDCHAR
STARTCHAR macron
ENCODING 175
SWIDTH 446 0
DWIDTH 12 0
BBX 10 2 2 16
BITMAP
6AAA90
FFFFC0
ENDCHAR
STARTCHAR degree
ENCODING 176
SWIDTH 314 0
DWIDTH 9 0
BBX 7 9 1 10
BITMAP
06E0
2E38
7828
B438
F438
F074
F0B0
B5D0
2F40
ENDCHAR
STARTCHAR plusminus
ENCODING 177
SWIDTH 479 0
DWIDTH 13 0
BBX 13 14 0 3
BITMAP
00028000
0007C000
000B8000
000B4000
0FFFFF40
1FFFFF00
056E5500
002E0000
002D0000
003D0000
00280000
00000000
2AAAA800
7FFFF800
ENDCHAR
STARTCHAR uni00B2
ENCODING 178
SWIDTH 328 0
DWIDTH 9 0
BBX 8 12 1 9
BITMAP
06F8
1D3E
2D2F
1D2E
007D
00B4
02D0
0B00
2C00
7A45
BFFD
41A4
ENDCHAR
STARTCHAR uni00B3
ENCODING 179
SWIDTH 336 0
DWIDTH 9 0
BBX 8 12 1 9
BITMAP
02F8
0B1E
1E1F
0F1F
003D
01F4
007D
2D3E
782F
B43E
787C
1FE0
ENDCHAR
STARTCHAR acute
ENCODING 180
SWIDTH 316 0
DWIDTH 9 0
BBX 6 5 3 15
BITMAP
07D0
0F80
1E00
3C00
7400
ENDCHAR
STARTCHAR uni00B5
ENCODING 181
SWIDTH 505 0
DWIDTH 14 0
BBX 17 19 -2 -5
BITMAP
01FE07F800
01FE0BF800
02FD0BF400
03FD0FF000
03FC0FF000
07F81FE000
07F82FD000
0BF42FD000
0FF03FC000
0FF07FC0C0
1FF0BF8280
2FFAFFEB00
2FFF6FFD00
3FF80BE400
7FC0000000
7F80000000
BF40000000
BE00000000
5000000000
ENDCHAR
STARTCHAR paragraph
ENCODING 182
SWIDTH 542 0
DWIDTH 15 0
BBX 13 23 2 -2
BITMAP
00BFE000
07FFFD00
1FFFDE00
3FFF9F00
7FFF9F40
BFFF6F00
FFFF2F00
FFFF3E00
FFFE7E00
BFFD7D00
3FFDBC00
1FFFFC00
02FDF800
00F9F400
00F5F400
01F6F000
02F3E000
02E3E000
03E7D000
07D7D000
07DBC000
0BCF8000
0F8F8000
ENDCHAR
STARTCHAR periodcentered
ENCODING 183
SWIDTH 434 0
DWIDTH 12 0
BBX 6 5 3 5
BITMAP
1F80
7FD0
BFE0
7FD0
1F80
ENDCHAR
STARTCHAR cedilla
ENCODING 184
SWIDTH 227 0
DWIDTH 6 0
BBX 7 7 0 -6
BITMAP
0700
0A00
0E50
1FF4
01F8
51F4
6F90
ENDCHAR
STARTCHAR uni00B9
ENCODING 185
SWIDTH 229 0
DWIDTH 6 0
BBX 5 12 1 8
BITMAP
06C0
BF80
6F80
0F40
1F00
1F00
2E00
3E00
3D00
7C00
7C00
6400
ENDCHAR
STARTCHAR ordmasculine
ENCODING 186
SWIDTH 329 0
DWIDTH 9 0
BBX 7 9 1 12
BITMAP
07E0
2E10
7C38
B834
B434
B470
B8A0
BFC0
1A00
ENDCHAR
STARTCHAR guillemotright
ENCODING 187
SWIDTH 586 0
DWIDTH 16 0
BBX 16 9 0 3
BITMAP
09005000
0B807900
01F41F80
002F42F4
0007C02D
001BC1BC
01F91B90
2F82F900
64064000
ENDCHAR
STARTCHAR onequarter
ENCODING 188
SWIDTH 749 0
DWIDTH 21 0
BBX 20 21 1 0
BITMAP
0000002D00
06C0003C00
BF8000B400
6F8001E000
0F4002D000
1F00078000
1F000F0000
2E001E0000
3E003C0000
3D00B40000
7C00F01D29
7C02D01F3D
6407801E7C
000B402DBC
001E0038B8
003C00B0F4
007800FFFD
00F00056F4
02D00002E0
03C00003E0
0B400003D0
ENDCHAR
STARTCHAR onehalf
ENCODING 189
SWIDTH 745 0
DWIDTH 21 0
BBX 20 21 1 0
BITMAP
0000002D00
06C0003C00
BF8000B400
6F8001E000
0F4002D000
1F00078000
1F000F0000
2E001E0000
3E003C0000
3D00B40000
7C00F00BF4
7C02D02C7D
6407803C3E
000B402D7D
001E0000B8
003C0001E0
0078000780
00F0001E00
02D0007400
03C000BAAC
0B4000FFF8
ENDCHAR
STARTCHAR threequarters
ENCODING 190
SWIDTH 836 0
DWIDTH 23 0
BBX 22 21 1 0
BITMAP
02F80000F000
0B1E0002D000
1E1F00078000
0F1F000B4000
003D001E0000
01F4003C0000
007D00780000
2D3E00F00000
782F02D00000
B43E03C00000
787C0B40E1A0
1FE01E00F6E0
00002D00F3E0
00007801E3D0
0000F002D7C0
0001E0034BC0
0003C00BFFE0
000B40055F80
000F00001F40
002D00001F00
007800002E00
ENDCHAR
STARTCHAR questiondown
ENCODING 191
SWIDTH 439 0
DWIDTH 12 0
BBX 12 21 -1 -7
BITMAP
0001F8
0003FD
0003FD
0001F8
000000
000000
0000E0
0001E0
0002D0
0007C0
001F40
007D00
02F400
0BE010
2FC1F8
3F80FD
7F80BD
7F80BC
3FC0F8
1FFBE0
06FE40
ENDCHAR
STARTCHAR Agrave
ENCODING 192
SWIDTH 668 0
DWIDTH 19 0
BBX 20 30 0 -3
BITMAP
0000001F80
0000000F80
0000000BC0
00000007C0
00000003D0
0000000000
00000006FD
0000002FFC
000000BBFC
000002D7F8
00000B4BF8
00002E0BF4
00007D0FF0
0000F80FF0
01AAF41FE0
1FFFFFAFD0
7F4BC1BFD0
BD1F803FC0
BD3F407F80
147F007F80
00BE00BF40
01FD00FF00
02FC00FF00
03F801FE00
07F402FE00
07F002FD00
0BF003FC00
0BE0000000
07E0000000
01F0000000
ENDCHAR
STARTCHAR Aacute
ENCODING 193
SWIDTH 668 0
DWIDTH 19 0
BBX 22 31 0 -3
BITMAP
000000000690
000000000FC0
000000001F40
000000003E00
000000007800
000000006400
000000000000
00000006FD00
0000002FFC00
000000BBFC00
000002D7F800
00000B4BF800
00002E0BF400
00007D0FF000
0000F80FF000
01AAF41FE000
1FFFFFAFD000
7F4BC1BFD000
BD1F803FC000
BD3F407F8000
147F007F8000
00BE00BF4000
01FD00FF0000
02FC00FF0000
03F801FE0000
07F402FE0000
07F002FD0000
0BF003FC0000
0BE000000000
07E000000000
01F000000000
ENDCHAR
STARTCHAR Acircumflex
ENCODING 194
SWIDTH 668 0
DWIDTH 19 0
BBX 21 31 0 -3
BITMAP
000000000100
000000001F00
000000007F40
00000001FB80
0000000B41C0
000000140040
000000000000
00000006FD00
0000002FFC00
000000BBFC00
000002D7F800
00000B4BF800
00002E0BF400
00007D0FF000
0000F80FF000
01AAF41FE000
1FFFFFAFD000
7F4BC1BFD000
BD1F803FC000
BD3F407F8000
147F007F8000
00BE00BF4000
01FD00FF0000
02FC00FF0000
03F801FE0000
07F402FE0000
07F002FD0000
0BF003FC0000
0BE000000000
07E000000000
01F000000000
ENDCHAR
STARTCHAR Atilde
ENCODING 195
SWIDTH 668 0
DWIDTH 19 0
BBX 23 29 0 -3
BITMAP
000000055000
0000007FFEA4
000000ABFFD0
000000005500
000000000000
00000006FD00
0000002FFC00
000000BBFC00
000002D7F800
00000B4BF800
00002E0BF400
00007D0FF000
0000F80FF000
01AAF41FE000
1FFFFFAFD000
7F4BC1BFD000
BD1F803FC000
BD3F407F8000
147F007F8000
00BE00BF4000
01FD00FF0000
02FC00FF0000
03F801FE0000
07F402FE0000
07F002FD0000
0BF003FC0000
0BE000000000
07E000000000
01F000000000
ENDCHAR
STARTCHAR Adieresis
ENCODING 196
SWIDTH 668 0
DWIDTH 19 0
BBX 21 29 0 -3
BITMAP
0000002E0B80
0000007F1FC0
0000002E0B80
000000000000
000000000000
00000006FD00
0000002FFC00
000000BBFC00
000002D7F800
00000B4BF800
00002E0BF400
00007D0FF000
0000F80FF000
01AAF41FE000
1FFFFFAFD000
7F4BC1BFD000
BD1F803FC000
BD3F407F8000
147F007F8000
00BE00BF4000
01FD00FF0000
02FC00FF0000
03F801FE0000
07F402FE0000
07F002FD0000
0BF003FC0000
0BE000000000
07E000000000
01F000000000
ENDCHAR
STARTCHAR Aring
ENCODING 197
SWIDTH 668 0
DWIDTH 19 0
BBX 20 30 0 -3
BITMAP
00000001F4
000000034C
000000030C
000000031C
00000001F4
0000000000
00000006FD
0000002FFC
000000BBFC
000002D7F8
00000B4BF8
00002E0BF4
00007D0FF0
0000F80FF0
01AAF41FE0
1FFFFFAFD0
7F4BC1BFD0
BD1F803FC0
BD3F407F80
147F007F80
00BE00BF40
01FD00FF00
02FC00FF00
03F801FE00
07F402FE00
07F002FD00
0BF003FC00
0BE0000000
07E0000000
01F0000000
ENDCHAR
STARTCHAR AE
ENCODING 198
SWIDTH 764 0
DWIDTH 21 0
BBX 26 24 0 -3
BITMAP
00000006F80010
0000002FFF41D0
000000B7FFFFC0
000003D7FFFF40
00000B4BF86A00
00002E0BF40000
00007C0FF40000
0000F41FF00000
01AAF41FE00000
1FFFFFAFFFE000
7E4BC1BFFFD000
BD1F803FC00000
7D3F407F800000
007F007F800000
00BE00BF400000
01FD00FF000000
02FC00FF000000
03F801FE000000
07F402FFFFE000
07F002FFFFE000
0BF003FFFFD000
0BE00000000000
07E00000000000
02E00000000000
ENDCHAR
STARTCHAR Ccedilla
ENCODING 199
SWIDTH 497 0
DWIDTH 14 0
BBX 15 27 0 -6
BITMAP
0001BF80
001FFAF4
007FD0B8
01FF407C
03FE00BC
07FC01F8
0FF80050
1FF40000
2FF00000
2FE00000
3FE00000
7FD00000
7FD00000
7FD00000
7FD00000
7FD00014
7FE00074
3FF806E0
2FFFFF80
0FFFF900
02BE5000
000D0000
001FE000
0001F000
0001F000
00A5E000
006E4000
ENDCHAR
STARTCHAR Egrave
ENCODING 200
SWIDTH 459 0
DWIDTH 13 0
BBX 14 28 0 0
BITMAP
0002F000
0001F400
0000F400
0000B800
00007800
00000000
00000000
0001BE40
001FEBD0
003F42E0
00BE01E0
00FD02E0
01FD07C0
01FD0000
00FE0000
007F8000
00BF9000
07FE0000
0FF80000
2FF00000
7FD00000
BFD00000
BFC00050
BFD000C0
BFE00B40
7FFFFE00
2FFFF400
06FE4000
ENDCHAR
STARTCHAR Eacute
ENCODING 201
SWIDTH 459 0
DWIDTH 13 0
BBX 15 28 0 0
BITMAP
000001F4
000003E0
000007C0
00000F40
00002E00
00000000
00000000
0001BE40
001FEBD0
003F42E0
00BE01E0
00FD02E0
01FD07C0
01FD0000
00FE0000
007F8000
00BF9000
07FE0000
0FF80000
2FF00000
7FD00000
BFD00000
BFC00050
BFD000C0
BFE00B40
7FFFFE00
2FFFF400
06FE4000
ENDCHAR
STARTCHAR Ecircumflex
ENCODING 202
SWIDTH 459 0
DWIDTH 13 0
BBX 14 28 0 0
BITMAP
00000340
00001F80
00007FC0
0002E5D0
000A4060
00000000
00000000
0001BE40
001FEBD0
003F42E0
00BE01E0
00FD02E0
01FD07C0
01FD0000
00FE0000
007F8000
00BF9000
07FE0000
0FF80000
2FF00000
7FD00000
BFD00000
BFC00050
BFD000C0
BFE00B40
7FFFFE00
2FFFF400
06FE4000
ENDCHAR
STARTCHAR Edieresis
ENCODING 203
SWIDTH 459 0
DWIDTH 13 0
BBX 15 26 0 0
BITMAP
0002E0B8
0007F1FC
0002E0B8
00000000
00000000
0001BE40
001FEBD0
003F42E0
00BE01E0
00FD02E0
01FD07C0
01FD0000
00FE0000
007F8000
00BF9000
07FE0000
0FF80000
2FF00000
7FD00000
BFD00000
BFC00050
BFD000C0
BFE00B40
7FFFFE00
2FFFF400
06FE4000
ENDCHAR
STARTCHAR Igrave
ENCODING 204
SWIDTH 375 0
DWIDTH 11 0
BBX 11 27 0 0
BITMAP
000BC0
0007D0
0003D0
0002E0
0001E0
000000
0006FC
007FF8
02EBF8
0F8BF4
3E0FF0
7D0FF0
BC1FE0
B81FE0
B82FD0
283FC0
003FC0
007F80
00BF40
00BF40
00FF00
01FE00
01FE00
02FD00
03FD00
03FC00
07F800
ENDCHAR
STARTCHAR Iacute
ENCODING 205
SWIDTH 375 0
DWIDTH 11 0
BBX 14 28 0 0
BITMAP
00000690
00000BC0
00001F40
00002E00
00007C00
00006400
00000000
0006FC00
007FF800
02EBF800
0F8BF400
3E0FF000
7D0FF000
BC1FE000
B81FE000
B82FD000
283FC000
003FC000
007F8000
00BF4000
00BF4000
00FF0000
01FE0000
01FE0000
02FD0000
03FD0000
03FC0000
07F80000
ENDCHAR
STARTCHAR Icircumflex
ENCODING 206
SWIDTH 375 0
DWIDTH 11 0
BBX 13 28 0 0
BITMAP
00000500
00001E00
0000BF00
0002EB40
001E4280
00140040
00000000
0006FC00
007FF800
02EBF800
0F8BF400
3E0FF000
7D0FF000
BC1FE000
B81FE000
B82FD000
283FC000
003FC000
007F8000
00BF4000
00BF4000
00FF0000
01FE0000
01FE0000
02FD0000
03FD0000
03FC0000
07F80000
ENDCHAR
STARTCHAR Idieresis
ENCODING 207
SWIDTH 375 0
DWIDTH 11 0
BBX 14 26 0 0
BITMAP
001F47D0
002F8BE0
001F47D0
00000000
00000000
0006FC00
007FF800
02EBF800
0F8BF400
3E0FF000
7D0FF000
BC1FE000
B81FE000
B82FD000
283FC000
003FC000
007F8000
00BF4000
00BF4000
00FF0000
01FE0000
01FE0000
02FD0000
03FD0000
03FC0000
07F80000
ENDCHAR
STARTCHAR Eth
ENCODING 208
SWIDTH 663 0
DWIDTH 19 0
BBX 18 21 0 0
BITMAP
0006FFA000
007FEBFE00
02F4007F80
1F86B41FD0
3F0BF40FE0
7D0FF00FF0
BC1FE00BF0
BC1FE00BF0
B82FD00FF0
28BFE90FF0
01FFFC0FE0
007F801FE0
00BF401FD0
00BF402FC0
00FF003F80
01FE00BF40
01FE00FF00
02FD02FD00
03FE5BF800
03FFFFE000
07F9BE4000
ENDCHAR
STARTCHAR Ntilde
ENCODING 209
SWIDTH 686 0
DWIDTH 19 0
BBX 20 26 0 0
BITMAP
000006FE41
00001FFFFD
000011AFE0
0000000000
0000000000
001BF8002F
01FFFC003E
0BE7FD003E
2F4BFE007D
3E0BFE00BC
BD0FFF00BC
BC1FFF40F8
BC1FFF40F4
BC2F7F81F4
3D3F3FC2F0
053E2FC2E0
007D2FD3E0
00BD1FE7D0
00BC0FE7D0
00F80FFBC0
01F80BFF80
01F407FF80
02F003FF40
03E003FF00
03E002FF00
07D001FE00
ENDCHAR
STARTCHAR Ograve
ENCODING 210
SWIDTH 665 0
DWIDTH 19 0
BBX 19 28 0 0
BITMAP
00007D0000
00003E0000
00002E0000
00001F0000
00000F0000
0000000000
0000000000
0001AFE800
002FFAFF40
01FD041FD0
07E0BD0BE0
1F83F80BF0
3E0BF007F4
7D1FD007F4
BC3FC007F4
7C7F800BF4
2CFF400BF4
01FF000FF0
01FE000FE0
02FE001FD0
02FD002FD0
03FD007F80
03FD00BF40
03FD01FE00
02FD03FC00
01FF5FF000
00BFFF8000
001BF90000
ENDCHAR
STARTCHAR Oacute
ENCODING 211
SWIDTH 665 0
DWIDTH 19 0
BBX 19 28 0 0
BITMAP
0000001A40
0000003F00
0000007D00
000000F800
000001F000
0000019000
0000000000
0001AFE800
002FFAFF40
01FD041FD0
07E0BD0BE0
1F83F80BF0
3E0BF007F4
7D1FD007F4
BC3FC007F4
7C7F800BF4
2CFF400BF4
01FF000FF0
01FE000FE0
02FE001FD0
02FD002FD0
03FD007F80
03FD00BF40
03FD01FE00
02FD03FC00
01FF5FF000
00BFFF8000
001BF90000
ENDCHAR
STARTCHAR Ocircumflex
ENCODING 212
SWIDTH 665 0
DWIDTH 19 0
BBX 19 28 0 0
BITMAP
0000001000
000000B400
000002F800
00000FAC00
0000790900
0000500100
0000000000
0001AFE800
002FFAFF40
01FD041FD0
07E0BD0BE0
1F83F80BF0
3E0BF007F4
7D1FD007F4
BC3FC007F4
7C7F800BF4
2CFF400BF4
01FF000FF0
01FE000FE0
02FE001FD0
02FD002FD0
03FD007F80
03FD00BF40
03FD01FE00
02FD03FC00
01FF5FF000
00BFFF8000
001BF90000
ENDCHAR
STARTCHAR Otilde
ENCODING 213
SWIDTH 665 0
DWIDTH 19 0
BBX 19 26 0 0
BITMAP
00000BF904
00007FFFF4
0000ABFFD0
0000005500
0000000000
0001AFE800
002FFAFF40
01FD041FD0
07E0BD0BE0
1F83F80BF0
3E0BF007F4
7D1FD007F4
BC3FC007F4
7C7F800BF4
2CFF400BF4
01FF000FF0
01FE000FE0
02FE001FD0
02FD002FD0
03FD007F80
03FD00BF40
03FD01FE00
02FD03FC00
01FF5FF000
00BFFF8000
001BF90000
ENDCHAR
STARTCHAR Odieresis
ENCODING 214
SWIDTH 665 0
DWIDTH 19 0
BBX 19 26 0 0
BITMAP
0000781E00
0000FD3F40
0000781E00
0000000000
0000000000
0001AFE800
002FFAFF40
01FD041FD0
07E0BD0BE0
1F83F80BF0
3E0BF007F4
7D1FD007F4
BC3FC007F4
7C7F800BF4
2CFF400BF4
01FF000FF0
01FE000FE0
02FE001FD0
02FD002FD0
03FD007F80
03FD00BF40
03FD01FE00
02FD03FC00
01FF5FF000
00BFFF8000
001BF90000
ENDCHAR
STARTCHAR multiply
ENCODING 215
SWIDTH 414 0
DWIDTH 12 0
BBX 9 9 1 5
BITMAP
240200
BD0FC0
3F7F40
0FFD00
07F800
0FFD00
3F7F40
BD0F80
240200
ENDCHAR
STARTCHAR Oslash
ENCODING 216
SWIDTH 658 0
DWIDTH 18 0
BBX 18 23 0 -2
BITMAP
000000A000
000000E000
0005BFF400
006E41FE00
02E0BADF80
0F87F38FD0
2E0FD34FE0
7D2FC74FE0
BC7F8B0FE0
7CBF0A0FE0
28FF0E1FE0
01FE0D1FD0
02FD1C2FC0
03FC2C3F80
03FC287F40
03FC34FF00
03FC75FD00
03FC77F800
02FEBFF000
00FFFF8000
002FF90000
0001D00000
0001C00000
ENDCHAR
STARTCHAR Ugrave
ENCODING 217
SWIDTH 716 0
DWIDTH 20 0
BBX 21 28 0 0
BITMAP
000001F40000
000000F80000
000000F80000
000000BC0000
0000007C0000
000000000000
000000000000
0006FE003FC0
00BFFD003FC0
07D2FC007F80
1F43FC00BF40
7D07F800BF40
BC0BF400FF00
F80BF001FE00
F80FE001FE00
F41FE002FD00
682FD003FC00
002FC003FC00
003F8007F800
007F400BF400
007F400FF000
00BF001FE000
00BF002FD000
00BF003FC000
00BF40BF4000
007FEBFE0000
003FFFF80000
000AFF900000
ENDCHAR
STARTCHAR Uacute
ENCODING 218
SWIDTH 716 0
DWIDTH 20 0
BBX 21 28 0 0
BITMAP
000000019000
00000007D000
0000000F8000
0000001F0000
0000003D0000
000000640000
000000000000
0006FE003FC0
00BFFD003FC0
07D2FC007F80
1F43FC00BF40
7D07F800BF40
BC0BF400FF00
F80BF001FE00
F80FE001FE00
F41FE002FD00
682FD003FC00
002FC003FC00
003F8007F800
007F400BF400
007F400FF000
00BF001FE000
00BF002FD000
00BF003FC000
00BF40BF4000
007FEBFE0000
003FFFF80000
000AFF900000
ENDCHAR
STARTCHAR Ucircumflex
ENCODING 219
SWIDTH 716 0
DWIDTH 20 0
BBX 21 28 0 0
BITMAP
000000014000
00000007C000
0000001FD000
000000BEE000
000002D07000
000005001000
000000000000
0006FE003FC0
00BFFD003FC0
07D2FC007F80
1F43FC00BF40
7D07F800BF40
BC0BF400FF00
F80BF001FE00
F80FE001FE00
F41FE002FD00
682FD003FC00
002FC003FC00
003F8007F800
007F400BF400
007F400FF000
00BF001FE000
00BF002FD000
00BF003FC000
00BF40BF4000
007FEBFE0000
003FFFF80000
000AFF900000
ENDCHAR
STARTCHAR Udieresis
ENCODING 220
SWIDTH 716 0
DWIDTH 20 0
BBX 21 26 0 0
BITMAP
000002D0B400
000007F1FC00
000002D0B800
000000000000
000000000000
0006FE003FC0
00BFFD003FC0
07D2FC007F80
1F43FC00BF40
7D07F800BF40
BC0BF400FF00
F80BF001FE00
F80FE001FE00
F41FE002FD00
682FD003FC00
002FC003FC00
003F8007F800
007F400BF400
007F400FF000
00BF001FE000
00BF002FD000
00BF003FC000
00BF40BF4000
007FEBFE0000
003FFFF80000
000AFF900000
ENDCHAR
STARTCHAR Yacute
ENCODING 221
SWIDTH 620 0
DWIDTH 17 0
BBX 20 28 0 0
BITMAP
0000000064
00000001F8
00000002F0
00000007D0
0000000B80
0000000500
0000000000
0006FD002D
007FFD003C
02E3FE0074
0F82FF00B0
3E01FF40E0
7D00FF42C0
BC00FF8380
B800BFC740
B8007FCA00
28003FED00
00003FFC00
00002FF400
00001FF000
00002FF000
00002FE000
00003FD000
00007FD000
00007FC000
0000BF8000
0000FF8000
0000FF4000
ENDCHAR
STARTCHAR Thorn
ENCODING 222
SWIDTH 583 0
DWIDTH 16 0
BBX 17 20 0 0
BITMAP
0002BC0000
0007F80000
0007F80000
001FFF9000
01AFF1BD00
0B9FF03F00
2E1FE02F40
7D2FD02F80
BC3FD02F80
BC3FC03F40
B87F807F00
2CBF40BD00
00BF42F800
00FF1BD000
01FFFA0000
01FE000000
02FD000000
03FD000000
03FC000000
07F8000000
ENDCHAR
STARTCHAR germandbls
ENCODING 223
SWIDTH 480 0
DWIDTH 13 0
BBX 16 26 -3 -7
BITMAP
00006F90
0002FEF4
0007F4B8
000FE0B8
001FD0F4
002FC0F0
003FC2E0
007F83C0
00BF4740
00BF4F80
00FF07E0
01FE02F4
01FE01FC
02FD00FC
03FC01FD
03FC01FC
07F803F8
0BF5EFE0
0BF5BE40
0FF00000
1FE00000
1FE00000
2FD00000
3FC00000
3F800000
64000000
ENDCHAR
STARTCHAR agrave
ENCODING 224
SWIDTH 526 0
DWIDTH 15 0
BBX 17 21 -1 0
BITMAP
0002F00000
0001F40000
0000F40000
0000B80000
0000780000
0000000000
0000000000
001BEBF400
00FFBFF000
02FD1FF000
0BF41FE000
0FF02FD000
2FD02FD000
3FD03FC000
3FC07F8000
7FC07F8000
7F80BF4180
7FC1FF4340
3FEBFFEE00
2FFE7FF800
0BE41F9000
ENDCHAR
STARTCHAR aacute
ENCODING 225
SWIDTH 526 0
DWIDTH 15 0
BBX 17 21 -1 0
BITMAP
00000BC000
00001F4000
00002E0000
00007D0000
0000B80000
0000500000
0000000000
001BEBF400
00FFBFF000
02FD1FF000
0BF41FE000
0FF02FD000
2FD02FD000
3FD03FC000
3FC07F8000
7FC07F8000
7F80BF4180
7FC1FF4340
3FEBFFEE00
2FFE7FF800
0BE41F9000
ENDCHAR
STARTCHAR acircumflex
ENCODING 226
SWIDTH 526 0
DWIDTH 15 0
BBX 17 21 -1 0
BITMAP
0000070000
00001F4000
00007F8000
0002F6C000
000B40D000
0004005000
0000000000
001BEBF400
00FFBFF000
02FD1FF000
0BF41FE000
0FF02FD000
2FD02FD000
3FD03FC000
3FC07F8000
7FC07F8000
7F80BF4180
7FC1FF4340
3FEBFFEE00
2FFE7FF800
0BE41F9000
ENDCHAR
STARTCHAR atilde
ENCODING 227
SWIDTH 526 0
DWIDTH 15 0
BBX 17 19 -1 0
BITMAP
0006F94100
002FFFF800
00506F9000
0000000000
0000000000
001BEBF400
00FFBFF000
02FD1FF000
0BF41FE000
0FF02FD000
2FD02FD000
3FD03FC000
3FC07F8000
7FC07F8000
7F80BF4180
7FC1FF4340
3FEBFFEE00
2FFE7FF800
0BE41F9000
ENDCHAR
STARTCHAR adieresis
ENCODING 228
SWIDTH 526 0
DWIDTH 15 0
BBX 17 19 -1 0
BITMAP
000781E000
000FD3F400
000781E000
0000000000
0000000000
001BEBF400
00FFBFF000
02FD1FF000
0BF41FE000
0FF02FD000
2FD02FD000
3FD03FC000
3FC07F8000
7FC07F8000
7F80BF4180
7FC1FF4340
3FEBFFEE00
2FFE7FF800
0BE41F9000
ENDCHAR
STARTCHAR aring
ENCODING 229
SWIDTH 526 0
DWIDTH 15 0
BBX 17 19 -1 0
BITMAP
0000BD0000
0001C70000
0001860000
0000B90000
0000000000
001BEBF400
00FFBFF000
02FD1FF000
0BF41FE000
0FF02FD000
2FD02FD000
3FD03FC000
3FC07F8000
7FC07F8000
7F80BF4180
7FC1FF4340
3FEBFFEE00
2FFE7FF800
0BE41F9000
ENDCHAR
STARTCHAR ae
ENCODING 230
SWIDTH 650 0
DWIDTH 18 0
BBX 20 14 -1 0
BITMAP
001BF82FE0
00FAFFFEF4
02807FF878
00003FE0B8
00003FD0F4
00007FC2F0
01BFFF9BD0
0FFEFFFE00
2FD0FFA400
3F81FF4002
7FC2FF4009
3FFFBF8074
2FFD3FEBD0
0BE40BF900
ENDCHAR
STARTCHAR ccedilla
ENCODING 231
SWIDTH 384 0
DWIDTH 11 0
BBX 13 20 -1 -6
BITMAP
001BE400
00BFBC00
02FC3D00
0BF43C00
0FF02400
2FE00000
3FD00000
3FC00000
7FC00000
7F800140
7FC00A00
3FD06800
2FFFE000
06FE4000
001C0000
00294000
003FD000
0003D000
0193C000
01BE0000
ENDCHAR
STARTCHAR egrave
ENCODING 232
SWIDTH 384 0
DWIDTH 11 0
BBX 13 21 -1 0
BITMAP
001F4000
000F8000
000B8000
0007C000
0003C000
00000000
00000000
001BE400
00BFBC00
02FC3D00
0BF43D00
0FF07C00
2FD0F400
3FD7E000
3FFF8000
7FE40000
7F800140
7FC00A00
3FE57800
2FFFE000
06FE4000
ENDCHAR
STARTCHAR eacute
ENCODING 233
SWIDTH 384 0
DWIDTH 11 0
BBX 13 21 -1 0
BITMAP
00001F40
00003E00
00007D00
0000B800
0001F000
00019000
00000000
001BE400
00BFBC00
02FC3D00
0BF43D00
0FF07C00
2FD0F400
3FD7E000
3FFF8000
7FE40000
7F800140
7FC00A00
3FE57800
2FFFE000
06FE4000
ENDCHAR
STARTCHAR ecircumflex
ENCODING 234
SWIDTH 384 0
DWIDTH 11 0
BBX 13 21 -1 0
BITMAP
00002800
0000BC00
0002FD00
000B9E00
00390700
00500100
00000000
001BE400
00BFBC00
02FC3D00
0BF43D00
0FF07C00
2FD0F400
3FD7E000
3FFF8000
7FE40000
7F800140
7FC00A00
3FE57800
2FFFE000
06FE4000
ENDCHAR
STARTCHAR edieresis
ENCODING 235
SWIDTH 384 0
DWIDTH 11 0
BBX 13 19 -1 0
BITMAP
007D1F40
00BE2F80
007D1F40
00000000
00000000
001BE400
00BFBC00
02FC3D00
0BF43D00
0FF07C00
2FD0F400
3FD7E000
3FFF8000
7FE40000
7F800140
7FC00A00
3FE57800
2FFFE000
06FE4000
ENDCHAR
STARTCHAR igrave
ENCODING 236
SWIDTH 267 0
DWIDTH 7 0
BBX 10 21 -1 0
BITMAP
07E000
03E000
02F000
01F000
00F400
000000
000000
07F800
07F800
0BF400
0FF400
0FF000
1FE000
1FE000
2FD000
3FC000
3FC090
7FC1C0
3FEB40
2FFD00
0BE400
ENDCHAR
STARTCHAR iacute
ENCODING 237
SWIDTH 267 0
DWIDTH 7 0
BBX 10 21 -1 0
BITMAP
000BD0
000F80
002F00
003D00
00B800
005000
000000
07F800
07F800
0BF400
0FF400
0FF000
1FE000
1FE000
2FD000
3FC000
3FC090
7FC1C0
3FEB40
2FFD00
0BE400
ENDCHAR
STARTCHAR icircumflex
ENCODING 238
SWIDTH 267 0
DWIDTH 7 0
BBX 10 21 -1 0
BITMAP
000A00
002F00
00BF40
02E780
1E41C0
140040
000000
07F800
07F800
0BF400
0FF400
0FF000
1FE000
1FE000
2FD000
3FC000
3FC090
7FC1C0
3FEB40
2FFD00
0BE400
ENDCHAR
STARTCHAR idieresis
ENCODING 239
SWIDTH 267 0
DWIDTH 7 0
BBX 10 19 -1 0
BITMAP
0B47D0
1FCBE0
0F47D0
000000
000000
07F800
07F800
0BF400
0FF400
0FF000
1FE000
1FE000
2FD000
3FC000
3FC090
7FC1C0
3FEB40
2FFD00
0BE400
ENDCHAR
STARTCHAR eth
ENCODING 240
SWIDTH 526 0
DWIDTH 15 0
BBX 17 21 -1 0
BITMAP
0000190000
00007F4500
00002FFF00
0001AFE400
0007EFE000
00010BF000
00000BF000
001BEBF000
00FFBFF000
02FC1FF000
0BF41FE000
0FE02FD000
2FD02FD000
3FC03FC000
3FC07F8000
7F807F8040
7F80BF4280
7FC1FF4740
3FFFBFFE00
2FFE3FF800
0BE41FD000
ENDCHAR
STARTCHAR ntilde
ENCODING 241
SWIDTH 505 0
DWIDTH 14 0
BBX 16 19 -1 0
BITMAP
00055400
007FFFF4
00ABFFD0
00005500
00000000
07F9BE00
07FFFF80
0BFD7FC0
0FF43FC0
0FF03FC0
1FE07F80
1FE07F40
2FD0BF40
3FC0FF00
3FC0FE03
7F80FE0A
BF40FFAD
BF40BFF4
FF002F90
ENDCHAR
STARTCHAR ograve
ENCODING 242
SWIDTH 433 0
DWIDTH 12 0
BBX 17 21 -1 0
BITMAP
000BC00000
0007D00000
0003D00000
0003E00000
0002E00000
0000000000
0000000000
001BE40000
00FFBC0000
03FC2D0000
0BF42E0640
1FE07FAD00
2FD07F9000
3FC02D0000
7FC03D0000
7F807C0000
BF80B80000
7F81F40000
7FD7E00000
2FFF800000
07F9000000
ENDCHAR
STARTCHAR oacute
ENCODING 243
SWIDTH 439 0
DWIDTH 12 0
BBX 17 21 -1 0
BITMAP
00001F4000
00003F0000
00007D0000
0000B80000
0001F00000
0001900000
0000000000
001BE40000
00BFBD0000
02FD2E0000
0BF42E0280
0FF07FAE00
2FE03F9000
3FD02E0000
3FC03D0000
7FC03D0000
7F80BC0000
7FC0F40000
3FD6E00000
2FFF800000
06F9000000
ENDCHAR
STARTCHAR ocircumflex
ENCODING 244
SWIDTH 433 0
DWIDTH 12 0
BBX 17 21 -1 0
BITMAP
0000340000
0000F80000
0007FC0000
001FAD0000
00780A0000
0050010000
0000000000
001BE40000
00FFBC0000
03FC2D0000
0BF42E0640
1FE07FAD00
2FD07F9000
3FC02D0000
7FC03D0000
7F807C0000
BF80B80000
7F81F40000
7FD7E00000
2FFF800000
07F9000000
ENDCHAR
STARTCHAR otilde
ENCODING 245
SWIDTH 433 0
DWIDTH 12 0
BBX 17 19 -1 0
BITMAP
00BF904000
03FFFF8000
041AF90000
0000000000
0000000000
001BE40000
00FFBC0000
03FC2D0000
0BF42E0640
1FE07FAD00
2FD07F9000
3FC02D0000
7FC03D0000
7F807C0000
BF80B80000
7F81F40000
7FD7E00000
2FFF800000
07F9000000
ENDCHAR
STARTCHAR odieresis
ENCODING 246
SWIDTH 433 0
DWIDTH 12 0
BBX 17 19 -1 0
BITMAP
00B81E0000
00FD3F4000
00B82E0000
0000000000
0000000000
001BE40000
00FFBC0000
03FC2D0000
0BF42E0640
1FE07FAD00
2FD07F9000
3FC02D0000
7FC03D0000
7F807C0000
BF80B80000
7F81F40000
7FD7E00000
2FFF800000
07F9000000
ENDCHAR
STARTCHAR divide
ENCODING 247
SWIDTH 415 0
DWIDTH 12 0
BBX 11 14 1 2
BITMAP
007E00
00FF40
00FF40
007E00
000000
000000
BFFFF4
AAAAA0
000000
000000
02E000
0BF800
0BF800
02E000
ENDCHAR
STARTCHAR oslash
ENCODING 248
SWIDTH 428 0
DWIDTH 12 0
BBX 15 16 -2 -2
BITMAP
0006F928
002FEFB0
00BF4BD0
02FD07C0
07FC1FC0
0BF43F80
0FF0EB80
1FF38F80
1FFE1F40
1FF83E00
1FF4BD00
0FFFF800
0BFFE000
1EBE4000
78000000
50000000
ENDCHAR
STARTCHAR ugrave
ENCODING 249
SWIDTH 505 0
DWIDTH 14 0
BBX 16 21 -1 0
BITMAP
000BD000
0007D000
0003E000
0002E000
0001F000
00000000
00000000
07F81FE0
07F82FE0
0BF42FD0
0FF43FC0
0FF03FC0
1FE07F80
1FE0BF40
2FD0BF40
3FC0FF00
3FC1FF03
7FC3FE0A
3FEEFFBC
2FFCBFF4
0BE02F80
ENDCHAR
STARTCHAR uacute
ENCODING 250
SWIDTH 505 0
DWIDTH 14 0
BBX 16 21 -1 0
BITMAP
00000FC0
00001F40
00003E00
00007C00
0000F400
00005000
00000000
07F81FE0
07F82FE0
0BF42FD0
0FF43FC0
0FF03FC0
1FE07F80
1FE0BF40
2FD0BF40
3FC0FF00
3FC1FF03
7FC3FE0A
3FEEFFBC
2FFCBFF4
0BE02F80
ENDCHAR
STARTCHAR ucircumflex
ENCODING 251
SWIDTH 505 0
DWIDTH 14 0
BBX 16 21 -1 0
BITMAP
00001D00
00007E00
0001FF00
0007DB00
002D0240
00100040
00000000
07F81FE0
07F82FE0
0BF42FD0
0FF43FC0
0FF03FC0
1FE07F80
1FE0BF40
2FD0BF40
3FC0FF00
3FC1FF03
7FC3FE0A
3FEEFFBC
2FFCBFF4
0BE02F80
ENDCHAR
STARTCHAR udieresis
ENCODING 252
SWIDTH 505 0
DWIDTH 14 0
BBX 16 19 -1 0
BITMAP
002E0B80
003F0FD0
002E0B80
00000000
00000000
07F81FE0
07F82FE0
0BF42FD0
0FF43FC0
0FF03FC0
1FE07F80
1FE0BF40
2FD0BF40
3FC0FF00
3FC1FF03
7FC3FE0A
3FEEFFBC
2FFCBFF4
0BE02F80
ENDCHAR
STARTCHAR yacute
ENCODING 253
SWIDTH 505 0
DWIDTH 14 0
BBX 16 28 -1 -7
BITMAP
00000F80
00002F40
00003E00
00007C00
0000F400
00005000
00000000
07F81FE0
07F82FE0
0BF42FD0
0FF43FC0
0FF03FC0
1FE07F80
1FE0BF40
2FD0BF40
3FC0FF00
3FC1FE0A
7FC3FE0D
3FEFFD28
2FFFFDE0
0BE7FF40
001FF800
01FBF800
078BF400
0B0FF000
0B6FE000
07FFC000
01FE0000
ENDCHAR
STARTCHAR thorn
ENCODING 254
SWIDTH 473 0
DWIDTH 13 0
BBX 16 28 -3 -7
BITMAP
0005A400
000FF000
000FF000
001FE000
002FD000
002FD000
003FC000
003F9BE0
007FFBF8
00BF82FC
00BF02FD
00FF01FD
01FE02FD
01FE02FD
02FD03FC
03FC07F8
03FC0BF4
07F80FF0
0BF82FD0
0BFEFF40
0FF7F800
1FE00000
1FE00000
2FD00000
3FD00000
3FC00000
7F800000
54000000
ENDCHAR
STARTCHAR ydieresis
ENCODING 255
SWIDTH 505 0
DWIDTH 14 0
BBX 16 26 -1 -7
BITMAP
003D0B40
00BE1FC0
007D0F40
00000000
00000000
07F81FE0
07F82FE0
0BF42FD0
0FF43FC0
0FF03FC0
1FE07F80
1FE0BF40
2FD0BF40
3FC0FF00
3FC1FE0A
7FC3FE0D
3FEFFD28
2FFFFDE0
0BE7FF40
001FF800
01FBF800
078BF400
0B0FF000
0B6FE000
07FFC000
01FE0000
ENDCHAR
STARTCHAR Amacron
ENCODING 256
SWIDTH 668 0
DWIDTH 19 0
BBX 22 28 0 -3
BITMAP
0000007FFFE0
0000006AAA90
000000000000
000000000000
00000006FD00
0000002FFC00
000000BBFC00
000002D7F800
00000B4BF800
00002E0BF400
00007D0FF000
0000F80FF000
01AAF41FE000
1FFFFFAFD000
7F4BC1BFD000
BD1F803FC000
BD3F407F8000
147F007F8000
00BE00BF4000
01FD00FF0000
02FC00FF0000
03F801FE0000
07F402FE0000
07F002FD0000
0BF003FC0000
0BE000000000
07E000000000
01F000000000
ENDCHAR
STARTCHAR amacron
ENCODING 257
SWIDTH 526 0
DWIDTH 15 0
BBX 17 19 -1 0
BITMAP
000AAAA800
001FFFF800
0000000000
0000000000
0000000000
001BEBF400
00FFBFF000
02FD1FF000
0BF41FE000
0FF02FD000
2FD02FD000
3FD03FC000
3FC07F8000
7FC07F8000
7F80BF4180
7FC1FF4340
3FEBFFEE00
2FFE7FF800
0BE41F9000
ENDCHAR
STARTCHAR Abreve
ENCODING 258
SWIDTH 668 0
DWIDTH 19 0
BBX 23 30 0 -3
BITMAP
000000290064
0000003E00B8
0000002F42F4
0000000FFF80
000000016400
000000000000
00000006FD00
0000002FFC00
000000BBFC00
000002D7F800
00000B4BF800
00002E0BF400
00007D0FF000
0000F80FF000
01AAF41FE000
1FFFFFAFD000
7F4BC1BFD000
BD1F803FC000
BD3F407F8000
147F007F8000
00BE00BF4000
01FD00FF0000
02FC00FF0000
03F801FE0000
07F402FE0000
07F002FD0000
0BF003FC0000
0BE000000000
07E000000000
01F000000000
ENDCHAR
STARTCHAR abreve
ENCODING 259
SWIDTH 526 0
DWIDTH 15 0
BBX 17 20 -1 0
BITMAP
002E007D00
001F41F800
000BFFD000
0001650000
0000000000
0000000000
001BEBF400
00FFBFF000
02FD1FF000
0BF41FE000
0FF02FD000
2FD02FD000
3FD03FC000
3FC07F8000
7FC07F8000
7F80BF4180
7FC1FF4340
3FEBFFEE00
2FFE7FF800
0BE41F9000
ENDCHAR
STARTCHAR Aogonek
ENCODING 260
SWIDTH 668 0
DWIDTH 19 0
BBX 20 26 0 -5
BITMAP
00000006FD
0000002FFC
000000BBFC
000002D7F8
00000B4BF8
00002E0BF4
00007D0FF0
0000F80FF0
01AAF41FE0
1FFFFFAFD0
7F4BC1BFD0
BD1F803FC0
BD3F407F80
147F007F80
00BD00BF40
01FC00FF00
02F800FF00
03F801FE00
07F402FE00
07F002FD00
0BF003FC00
0BE001D000
07E0078000
01A00B8000
00000BED00
000006E000
ENDCHAR
STARTCHAR aogonek
ENCODING 261
SWIDTH 526 0
DWIDTH 15 0
BBX 17 19 -1 -5
BITMAP
001BEBF400
00FFBFF000
02FC1FF000
0BF41FE000
0FE02FD000
2FD02FD000
3FC03FC000
3FC07F8000
7F807F8040
7F80BF4280
7FC1FF4700
3FFFBFFD00
2FFD3FF400
0BE41F9000
00000B0000
00001E0000
00003E0000
00002FB400
00001F8000
ENDCHAR
STARTCHAR Cacute
ENCODING 262
SWIDTH 497 0
DWIDTH 14 0
BBX 15 28 0 0
BITMAP
000001F8
000002F0
000007D0
00000B80
00001F00
00000000
00000000
0001BF80
001FFAF4
007FD0B8
01FF407C
03FE00BC
07FC01F8
0FF80050
1FF40000
2FF00000
2FE00000
3FE00000
7FD00000
7FD00000
7FD00000
7FD00000
7FD00004
7FE00034
3FF402E0
2FFFFF80
0BFFFD00
01BF9000
ENDCHAR
STARTCHAR cacute
ENCODING 263
SWIDTH 384 0
DWIDTH 11 0
BBX 13 21 -1 0
BITMAP
00000FC0
00001F40
00002E00
00007D00
0000B800
00005000
00000000
001BE400
00BFBC00
02FC3D00
0BF43C00
0FF02400
2FE00000
3FD00000
3FC00000
7FC00000
7F800240
7FC00A00
3FE57800
2FFFE000
06FE4000
ENDCHAR
STARTCHAR Ccircumflex
ENCODING 264
SWIDTH 497 0
DWIDTH 14 0
BBX 15 28 0 0
BITMAP
00000340
00001F80
00007FC0
0002E5D0
000A4060
00000000
00000000
0001BF80
001FFAF4
007FD0B8
01FF407C
03FE00BC
07FC01F8
0FF80050
1FF40000
2FF00000
2FE00000
3FE00000
7FD00000
7FD00000
7FD00000
7FD00000
7FD00004
7FE00034
3FF402E0
2FFFFF80
0BFFFD00
01BF9000
ENDCHAR
STARTCHAR ccircumflex
ENCODING 265
SWIDTH 384 0
DWIDTH 11 0
BBX 13 21 -1 0
BITMAP
00002800
0000BC00
0002FD00
000B9E00
00290700
00500100
00000000
001BE400
00BFBC00
02FC3D00
0BF43C00
0FF02400
2FE00000
3FD00000
3FC00000
7FC00000
7F800240
7FC00A00
3FE57800
2FFFE000
06FE4000
ENDCHAR
STARTCHAR Cdotaccent
ENCODING 266
SWIDTH 497 0
DWIDTH 14 0
BBX 15 27 0 0
BITMAP
000002E0
00000BF8
00000BF8
000002E0
00000000
00000000
0001BF80
001FFAF4
007FD0B8
01FF407C
03FE00BC
07FC01F8
0FF80050
1FF40000
2FF00000
2FE00000
3FE00000
7FD00000
7FD00000
7FD00000
7FD00000
7FD00004
7FE00034
3FF402E0
2FFFFF80
0BFFFD00
01BF9000
ENDCHAR
STARTCHAR cdotaccent
ENCODING 267
SWIDTH 384 0
DWIDTH 11 0
BBX 13 21 -1 0
BITMAP
0001B800
0002FD00
0002FD00
0001B800
00000000
00000000
00000000
001BE400
00BFBC00
02FC3D00
0BF43C00
0FF02400
2FE00000
3FD00000
3FC00000
7FC00000
7F800240
7FC00A00
3FE57800
2FFFE000
06FE4000
ENDCHAR
STARTCHAR Ccaron
ENCODING 268
SWIDTH 497 0
DWIDTH 14 0
BBX 16 28 0 0
BITMAP
0000901A
000075B8
00003FD0
00002F40
00001C00
00000000
00000000
0001BF80
001FFAF4
007FD0B8
01FF407C
03FE00BC
07FC01F8
0FF80050
1FF40000
2FF00000
2FE00000
3FE00000
7FD00000
7FD00000
7FD00000
7FD00000
7FD00004
7FE00034
3FF402E0
2FFFFF80
0BFFFD00
01BF9000
ENDCHAR
STARTCHAR ccaron
ENCODING 269
SWIDTH 384 0
DWIDTH 11 0
BBX 15 21 -1 0
BITMAP
00060074
000347D0
0002FF00
0001F800
0000E000
00004000
00000000
001BE400
00BFBC00
02FC3D00
0BF43C00
0FF02400
2FE00000
3FD00000
3FC00000
7FC00000
7F800240
7FC00A00
3FE5B800
2FFFE000
06FE0000
ENDCHAR
STARTCHAR Dcaron
ENCODING 270
SWIDTH 663 0
DWIDTH 19 0
BBX 18 28 0 0
BITMAP
0000600B00
0000747C00
00003FE000
00002F8000
00001E0000
0000040000
0000000000
0006BFA000
007FEBFD00
02F4007F40
0F86A42FC0
3F0BF40FD0
7D0FF00FE0
BC1FE00BF0
BC1FE00FF0
B82FD00FF0
2C3FC00FF0
003FC00FF0
007F801FE0
00BF401FD0
00BF402FD0
00FF003F80
01FF00BF40
01FE00FF00
02FD02FD00
02FE5BF800
03FFFFE000
07F9BE4000
ENDCHAR
STARTCHAR dcaron
ENCODING 271
SWIDTH 525 0
DWIDTH 15 0
BBX 20 21 -1 0
BITMAP
000000002E
000000007F
000001FD2F
000002FD1E
000003FC2C
000007F820
000007F800
001BEBF400
00FFBFF000
02FC1FF000
0BF41FE000
0FE02FD000
2FD02FD000
3FC03FC000
3FC07F8000
7F807F8040
7F80BF4280
7FC1FF4740
3FFFBFFE00
2FFE3FF800
0BE41FD000
ENDCHAR
STARTCHAR Dcroat
ENCODING 272
SWIDTH 663 0
DWIDTH 19 0
BBX 18 21 0 0
BITMAP
0006FFA000
007FEBFE00
02F4007F80
1F86B41FD0
3F0BF40FE0
7D0FF00FF0
BC1FE00BF0
BC1FE00BF0
B82FD00FF0
28BFE90FF0
01FFFC0FE0
007F801FE0
00BF401FD0
00BF402FC0
00FF003F80
01FE00BF40
01FE00FF00
02FD02FD00
03FE5BF800
03FFFFE000
07F9BE4000
ENDCHAR
STARTCHAR dcroat
ENCODING 273
SWIDTH 525 0
DWIDTH 15 0
BBX 18 20 -1 0
BITMAP
0000001500
000002FD00
000003FD00
00007FFFD0
00006BFE80
000007F800
001BEBF400
00FFBFF000
02FC1FF000
0BF41FE000
0FE02FD000
2FD02FD000
3FC03FC000
3FC07F8000
7F807F8040
7F80BF4280
7FC1FF4740
3FFFBFFE00
2FFE3FF800
0BE41FD000
ENDCHAR
STARTCHAR Emacron
ENCODING 274
SWIDTH 459 0
DWIDTH 13 0
BBX 16 26 0 0
BITMAP
0006AAA9
000BFFFD
00000000
00000000
00000000
0001BE40
001FEBD0
003F42E0
00BE01E0
00FD02E0
01FD07C0
01FD0000
00FE0000
007F8000
00BF9000
07FE0000
0FF80000
2FF00000
7FD00000
BFD00000
BFC00050
BFD000C0
BFE00B40
7FFFFE00
2FFFF400
06FE4000
ENDCHAR
STARTCHAR emacron
ENCODING 275
SWIDTH 384 0
DWIDTH 11 0
BBX 13 19 -1 0
BITMAP
01AAAA40
02FFFF40
00000000
00000000
00000000
001BE400
00BFBC00
02FC3D00
0BF43D00
0FF07C00
2FD0F400
3FD7E000
3FFF8000
7FE40000
7F800140
7FC00A00
3FE57800
2FFFE000
06FE4000
ENDCHAR
STARTCHAR Ebreve
ENCODING 276
SWIDTH 459 0
DWIDTH 13 0
BBX 17 27 0 0
BITMAP
000B801F40
000BC02E00
0003FAF800
0000BF9000
0000000000
0000000000
0001BE4000
001FEBD000
003F42E000
00BE01E000
00FD02E000
01FD07C000
01FD000000
00FE000000
007F800000
00BF900000
07FE000000
0FF8000000
2FF0000000
7FD0000000
BFD0000000
BFC0005000
BFD000C000
BFE00B4000
7FFFFE0000
2FFFF40000
06FE400000
ENDCHAR
STARTCHAR ebreve
ENCODING 277
SWIDTH 384 0
DWIDTH 11 0
BBX 13 20 -1 0
BITMAP
03E007C0
02F41F40
00BFFD00
00165000
00000000
00000000
001BE400
00BFBC00
02FC3D00
0BF43D00
0FF07C00
2FD0F400
3FD7E000
3FFF8000
7FE40000
7F800140
7FC00A00
3FE57800
2FFFE000
06FE4000
ENDCHAR
STARTCHAR Edotaccent
ENCODING 278
SWIDTH 459 0
DWIDTH 13 0
BBX 14 27 0 0
BITMAP
00001F80
00003FD0
00003FD0
00001F80
00000000
00000000
0001BE40
001FEBD0
003F42E0
00BE01E0
00FD02E0
01FD07C0
01FD0000
00FE0000
007F8000
00BF9000
07FE0000
0FF80000
2FF00000
7FD00000
BFD00000
BFC00050
BFD000C0
BFE00B40
7FFFFE00
2FFFF400
06FE4000
ENDCHAR
STARTCHAR edotaccent
ENCODING 279
SWIDTH 384 0
DWIDTH 11 0
BBX 13 21 -1 0
BITMAP
0001F800
0003FD00
0003FD00
0001F800
00000000
00000000
00000000
001BE400
00BFBC00
02FC3D00
0BF43D00
0FF07C00
2FD0F400
3FD7E000
3FFF8000
7FE40000
7F800140
7FC00A00
3FE57800
2FFFE000
06FE4000
ENDCHAR
STARTCHAR Eogonek
ENCODING 280
SWIDTH 459 0
DWIDTH 13 0
BBX 14 26 0 -5
BITMAP
001BF900
00BE43D0
02FC01E0
03F801F0
07F402F0
07F807D0
03FC0000
02FE0000
00BF8000
00BFD000
07FE0000
1FF80000
3FE00000
7FD00000
BFD00000
BFD00000
BFE00090
7FF40280
2FFEAF00
0BFFF800
01BFE000
0002C000
00078000
000B8000
000BED00
0002E400
ENDCHAR
STARTCHAR eogonek
ENCODING 281
SWIDTH 384 0
DWIDTH 11 0
BBX 13 19 -1 -5
BITMAP
001BE400
00BFBC00
02FC3D00
0BF43D00
0FF07C00
2FD0F400
3FD7E000
3FFF8000
7FE40000
7F800140
7FC00A00
3FD57C00
2FFFE000
06FF4000
001D0000
00780000
00B81000
00BE9000
002E4000
ENDCHAR
STARTCHAR Ecaron
ENCODING 282
SWIDTH 459 0
DWIDTH 13 0
BBX 16 28 0 0
BITMAP
0000600A
000034B8
00002FE0
00001F40
00000D00
00000000
00000000
0001BE40
001FEBD0
003F42E0
00BE01E0
00FD02E0
01FD07C0
01FD0000
00FE0000
007F8000
00BF9000
07FE0000
0FF80000
2FF00000
7FD00000
BFD00000
BFC00050
BFD000C0
BFE00B40
7FFFFE00
2FFFF400
06FE4000
ENDCHAR
STARTCHAR ecaron
ENCODING 283
SWIDTH 384 0
DWIDTH 11 0
BBX 15 21 -1 0
BITMAP
000600B4
000347C0
0003FE00
0002F800
0001E000
00004000
00000000
001BE400
00BFBC00
02FC3D00
0BF43C00
0FF07800
2FD0F400
3FD7D000
3FFE4000
7FD00000
7F800240
7FC00A00
3FE57800
2FFFE000
06FE0000
ENDCHAR
STARTCHAR Gcircumflex
ENCODING 284
SWIDTH 578 0
DWIDTH 16 0
BBX 16 34 0 -6
BITMAP
000000A0
000002F0
00000BF4
00002E78
0000E41C
00014004
00000000
0001BF90
002FFAFD
00FF903E
03FE003F
0BFC007E
1FF400B9
2FE00000
3FD00000
7FC00000
7FC001FC
7FC001FC
7FC003F8
7FC007F8
3FD00FF4
2FF47FF0
0BFFEFF0
02FF8FE0
00001FD0
00001FD0
00692FC0
03FF3F80
0BD17F40
0F407F00
0F40FD00
0B82F800
03FFE000
006A4000
ENDCHAR
STARTCHAR gcircumflex
ENCODING 285
SWIDTH 507 0
DWIDTH 14 0
BBX 16 28 -1 -7
BITMAP
00000700
00001F40
00007F80
0002F6C0
000B40D0
00040050
00000000
001BEBF4
00FFBFF0
02FC1FF0
0BF41FE0
0FE02FD0
2FD02FD0
3FC03FC0
3FC07F80
7F807F81
7F80BF43
7FC1FF0A
3FFFFF1C
2FFFFFB4
0BE6FF80
001BFD00
00BFFC00
02D3FC00
0387F800
034BF400
03EFE000
00BE4000
ENDCHAR
STARTCHAR Gbreve
ENCODING 286
SWIDTH 578 0
DWIDTH 16 0
BBX 18 33 0 -6
BITMAP
0000A40190
0000F803E0
0000BEAF80
00001BF900
0000000000
0000000000
0001BFA000
002FFAFC00
00FF903E00
03FE002F00
0BFC003E00
1FF400BD00
2FE0001400
3FD0000000
7FC0000000
7FC000A800
7FC001FC00
7FC002F800
7FC007F800
3FD00FF400
2FF46FF000
0BFFEFF000
02FF8FE000
00001FD000
00001FD000
00692FC000
03FF3F8000
0BD17F4000
0F407F0000
0F40FE0000
0B82F80000
03FFE00000
006A400000
ENDCHAR
STARTCHAR gbreve
ENCODING 287
SWIDTH 507 0
DWIDTH 14 0
BBX 16 27 -1 -7
BITMAP
002E007D
002F00B8
000FEBE0
0002FE40
00000000
00000000
001BEBF4
00FFBFF0
02FC1FF0
0BF41FE0
0FE02FD0
2FD02FD0
3FC03FC0
3FC07F80
7F807F81
7F80BF43
7FC1FF0A
3FFFFF1C
2FFFFFB4
0BE6FF80
001BFD00
00BFFC00
02D3FC00
0387F800
034BF400
03EFE000
00BE4000
ENDCHAR
STARTCHAR Gdotaccent
ENCODING 288
SWIDTH 578 0
DWIDTH 16 0
BBX 16 33 0 -6
BITMAP
00000B90
00001FE0
00001FE0
00000B90
00000000
00000000
0001BFA0
002FFAFC
00FF903E
03FE002F
0BFC003E
1FF400BD
2FE00014
3FD00000
7FC00000
7FC000A8
7FC001FC
7FC002F8
7FC007F8
3FD00FF4
2FF46FF0
0BFFEFF0
02FF8FE0
00001FD0
00001FD0
00692FC0
03FF3F80
0BD17F40
0F407F00
0F40FE00
0B82F800
03FFE000
006A4000
ENDCHAR
STARTCHAR gdotaccent
ENCODING 289
SWIDTH 507 0
DWIDTH 14 0
BBX 16 28 -1 -7
BITMAP
00002E00
0000BF80
0000BF80
00002E00
00000000
00000000
00000000
001BEBF4
00FFBFF0
02FC1FF0
0BF41FE0
0FE02FD0
2FD02FD0
3FC03FC0
3FC07F80
7F807F81
7F80BF43
7FC1FF0A
3FFFFF1C
2FFFFFB4
0BE6FF80
001BFD00
00BFFC00
02D3FC00
0387F800
034BF400
03EFE000
00BE4000
ENDCHAR
STARTCHAR Gcommaaccent
ENCODING 290
SWIDTH 578 0
DWIDTH 16 0
BBX 15 28 0 -7
BITMAP
0001BF80
001FFBE0
007FC0F4
01FF00F8
03FD00F8
0BFC02F4
1FF40190
2FF00000
3FE00000
7FD00000
BFD00000
BFC001FC
BFC002F8
BFC003F4
BFC007F4
BFC00BF0
BFC00FE0
7FD02FE0
2FE07FD0
0FFAFFC0
02FE6FC0
00000000
00000000
000F4000
001F8000
000B4000
000B0000
00080000
ENDCHAR
STARTCHAR gcommaaccent
ENCODING 291
SWIDTH 507 0
DWIDTH 14 0
BBX 16 28 -1 -7
BITMAP
00000800
00002800
00007800
0000BD00
00007C00
00000000
00000000
001BEBF4
00FFBFF0
02FC1FF0
0BF41FE0
0FE02FD0
2FD02FD0
3FC03FC0
3FC07F80
7F807F81
7F80BF43
7FC1FF0A
3FFFFF1C
2FFFFFB4
0BE6FF80
001BFD00
00BFFC00
02D3FC00
0387F800
034BF400
03EFE000
00BE4000
ENDCHAR
STARTCHAR Hcircumflex
ENCODING 292
SWIDTH 665 0
DWIDTH 19 0
BBX 20 28 0 0
BITMAP
0000000100
0000000B40
0000003F80
000001FAC0
00000780D0
0000040050
0000000000
0006FD02FD
006FFC03FC
02FFF803FC
0BD7F807F8
2F4BF407F4
3E0BF40BF4
7D0FF00FF0
BC1FE00FF0
BC1FE01FE0
3C2FFFFFD0
043FFFFFD0
003FC03FC0
007F803F80
00BF807F80
00BF40BF40
00FF00BF00
01FF00FF00
01FE01FE00
02FD01FE00
03FC02FD00
03FC03FC00
ENDCHAR
STARTCHAR hcircumflex
ENCODING 293
SWIDTH 505 0
DWIDTH 14 0
BBX 16 25 -1 0
BITMAP
0000D000
0007E000
001FF000
00B97400
02901800
00000000
00BF0000
01FE0000
01FE0000
02FD0000
03FC0000
03FCBE00
07FFFF80
0BFFFFC0
0BF83FC0
0FF43FC0
1FF03F80
1FE07F40
2FD0BF00
3FD0BF00
3FC0FE07
7F80FE0A
BF80FFFC
BF40BFF4
FF002F90
ENDCHAR
STARTCHAR Hbar
ENCODING 294
SWIDTH 665 0
DWIDTH 19 0
BBX 21 21 0 0
BITMAP
0006FD02FD00
007FFC03FC00
02FBF803FC00
0BC7F807F800
2F0BF407F800
7E0BF40BF400
BD7FFFFFFF80
BC1FF55FF500
BC1FE01FE000
3C2FFFFFE000
043FEABFD000
003FC03FC000
007F807FC000
00BF407F8000
00BF40BF4000
00FF00FF4000
01FE00FF0000
01FE01FE0000
02FD02FE0000
03FC02FD0000
03FC03FC0000
ENDCHAR
STARTCHAR hbar
ENCODING 295
SWIDTH 505 0
DWIDTH 14 0
BBX 16 20 -1 0
BITMAP
00050000
00FF0000
01FE0000
1FFFF400
1BFEA000
03FC0000
03FCBE00
07FFFF80
0BFFFFC0
0BF83FC0
0FF43FC0
1FF03F80
1FE07F40
2FD0BF00
3FD0BF00
3FC0FE07
7F80FE0A
BF80FFFC
BF40BFF4
FF002F90
ENDCHAR
STARTCHAR Itilde
ENCODING 296
SWIDTH 375 0
DWIDTH 11 0
BBX 15 26 0 0
BITMAP
00055000
002FFEA4
00ABFFE0
00001500
00000000
0006FC00
007FF800
02EBF800
0F8BF400
3E0FF000
7D0FF000
BC1FE000
B81FE000
B82FD000
283FC000
003FC000
007F8000
00BF4000
00BF4000
00FF0000
01FE0000
01FE0000
02FD0000
03FD0000
03FC0000
07F80000
ENDCHAR
STARTCHAR itilde
ENCODING 297
SWIDTH 267 0
DWIDTH 7 0
BBX 10 19 -1 0
BITMAP
06F410
0FFF80
10BE00
000000
000000
07F800
07F800
0BF400
0FF400
0FF000
1FE000
1FE000
2FD000
3FC000
3FC090
7FC1C0
3FEB40
2FFD00
0BE400
ENDCHAR
STARTCHAR Imacron
ENCODING 298
SWIDTH 375 0
DWIDTH 11 0
BBX 14 25 0 0
BITMAP
007FFFE0
006AAA90
00000000
00000000
0006FC00
007FF800
02EBF800
0F8BF400
3E0FF000
7D0FF000
BC1FE000
B81FE000
B82FD000
283FC000
003FC000
007F8000
00BF4000
00BF4000
00FF0000
01FE0000
01FE0000
02FD0000
03FD0000
03FC0000
07F80000
ENDCHAR
STARTCHAR imacron
ENCODING 299
SWIDTH 267 0
DWIDTH 7 0
BBX 10 19 -1 0
BITMAP
0AAA90
1FFFC0
000000
000000
000000
07F800
07F800
0BF400
0FF400
0FF000
1FE000
1FE000
2FD000
3FC000
3FC090
7FC1C0
3FEB40
2FFD00
0BE400
ENDCHAR
STARTCHAR Ibreve
ENCODING 300
SWIDTH 375 0
DWIDTH 11 0
BBX 15 27 0 0
BITMAP
00290064
003E00B8
002F46F0
000FFF80
0001A400
00000000
0006FC00
007FF800
02EBF800
0F8BF400
3E0FF000
7D0FF000
BC1FE000
B81FE000
B82FD000
283FC000
003FC000
007F8000
00BF4000
00BF4000
00FF0000
01FE0000
01FE0000
02FD0000
03FD0000
03FC0000
07F80000
ENDCHAR
STARTCHAR ibreve
ENCODING 301
SWIDTH 267 0
DWIDTH 7 0
BBX 10 20 -1 0
BITMAP
0F00F0
0B82E0
07FF80
006400
000000
000000
07F800
07F800
0BF400
0FF400
0FF000
1FE000
1FE000
2FD000
3FC000
3FC090
7FC1C0
3FEB40
2FFD00
0BE400
ENDCHAR
STARTCHAR Iogonek
ENCODING 302
SWIDTH 375 0
DWIDTH 11 0
BBX 11 33 0 -6
BITMAP
003E00
002F00
001F00
000F40
000B40
000000
0006FC
007FF8
02EBF8
0F8BF4
3E0FF0
7D0FF0
BC1FE0
B81FE0
B82FD0
283FC0
003FC0
007F80
00BF40
00BF40
00FF00
01FE00
01FE00
02FD00
03FD00
03FC00
07F800
028000
0B0000
1F0000
1F4600
0FFD00
029000
ENDCHAR
STARTCHAR iogonek
ENCODING 303
SWIDTH 267 0
DWIDTH 7 0
BBX 10 25 -1 -6
BITMAP
00B900
01FE00
01FE00
00B900
000000
07F800
07F800
0BF400
0FF400
0FF000
1FE000
1FE000
2FD000
3FC000
3FC090
7FC1C0
3FEB40
2FFD00
1FE400
280000
B40000
F00000
F86000
BFD000
1A0000
ENDCHAR
STARTCHAR Idotaccent
ENCODING 304
SWIDTH 375 0
DWIDTH 11 0
BBX 12 27 0 0
BITMAP
00007D
0000FF
0000FF
00007D
000000
000000
0006FC
007FF8
02EBF8
0F8BF4
3E0FF0
7D0FF0
BC1FE0
B81FE0
B82FD0
283FC0
003FC0
007F80
00BF40
00BF40
00FF00
01FE00
01FE00
02FD00
03FD00
03FC00
07F800
ENDCHAR
STARTCHAR dotlessi
ENCODING 305
SWIDTH 267 0
DWIDTH 7 0
BBX 10 14 -1 0
BITMAP
07F800
07F800
0BF400
0FF400
0FF000
1FE000
1FE000
2FD000
3FC000
3FC090
7FC1C0
3FEB40
2FFD00
0BE400
ENDCHAR
STARTCHAR IJ
ENCODING 306
SWIDTH 663 0
DWIDTH 19 0
BBX 19 27 0 -6
BITMAP
0006FC0168
007FF807F8
02EBF80BF4
0F8BF40FF0
3E0FF00FF0
7D0FF01FE0
BC1FE02FD0
B81FE02FD0
B82FD03FC0
283FC07F80
003FC07F80
007F80BF40
00BF40FF40
00BF40FF00
00FF01FE00
01FE02FE00
01FE02FD00
02FD03FC00
03FD07FC00
03FE07F800
07FF8BF400
02F44FF400
02E01FE000
02E02FD000
02F47F8000
00BFFE0000
001A900000
ENDCHAR
STARTCHAR ij
ENCODING 307
SWIDTH 507 0
DWIDTH 14 0
BBX 16 26 -1 -7
BITMAP
00B901F4
01FE03FC
01FE07FC
00B901F4
00000000
07F80BF4
07F80FF0
0BF40FF0
0FF41FE0
0FF02FD0
1FE02FD0
1FE03FC0
2FD07F80
3FC07F80
3FC0BF43
7FC0BF4A
3FE8FF1D
2FF5FEB4
0BD1FF90
000BFD00
00BBFC00
02D3FC00
0347F800
039FF400
03FFE000
00BE4000
ENDCHAR
STARTCHAR Jcircumflex
ENCODING 308
SWIDTH 536 0
DWIDTH 15 0
BBX 18 34 0 -6
BITMAP
0000000240
0000000F80
0000003FC0
000001F9D0
00000780A0
0000050010
0000000000
000001BF00
00001FFF00
0000BAFE00
0002E2FD00
000BC2FD00
001F43FC00
002F07F800
002F07F800
002F0BF400
000B0FF400
00000FF000
00001FE000
00002FE000
00002FD000
00003FC000
00007FC000
00007F8000
0000BF4000
0000FF4000
0690FF0000
2FF9FE0000
7E16FE0000
7C03FC0000
7C07F80000
7D1BF00000
2FFF800000
06A5000000
ENDCHAR
STARTCHAR jcircumflex
ENCODING 309
SWIDTH 240 0
DWIDTH 7 0
BBX 14 28 -6 -7
BITMAP
00000240
00000F80
00007FC0
0001F9D0
000780A0
00040010
00000000
0001FF00
0001FE00
0002FD00
0002FD00
0003FC00
0007F800
0007F800
000BF400
000FF400
000FF060
001FE090
002FE1C0
002FD740
003FE800
01BFC000
0BFF8000
3EBF4000
B4BF4000
B1FE0000
7BFC0000
1FE00000
ENDCHAR
STARTCHAR Kcommaaccent
ENCODING 310
SWIDTH 601 0
DWIDTH 17 0
BBX 19 28 0 -7
BITMAP
0006FC02F4
007FF807D0
03EBF81F40
1F8BF43E00
3E0FF0B800
7D0FF1E000
BC1FE7C000
B81FEF0000
B82FFD0000
283FFFE400
003FD7FC00
007F82FD00
00BF42FD00
00BF42FC00
00FF03FC00
01FE07F800
01FE07F400
02FD0BF000
03FD0FF000
03FC0FF000
07F807F400
0000000000
0001500000
0003F00000
0002F00000
0000E00000
0001800000
0001000000
ENDCHAR
STARTCHAR kcommaaccent
ENCODING 311
SWIDTH 518 0
DWIDTH 15 0
BBX 17 27 -1 -7
BITMAP
0005000000
00FF000000
01FE000000
02FD000000
02FD000000
03FC000000
07FC07E000
07F81F4000
0BF4B80000
0BF6D00000
0FFFFD0000
1FFFFF4000
1FF4BF8000
2FD0BF8000
3FC0BF4000
3FC0BF4240
7F80FF0700
BF40FFAE00
BF40BFF800
FF002FD000
0000000000
0000000000
002D000000
003F000000
001E000000
001C000000
0024000000
ENDCHAR
STARTCHAR kgreenlandic
ENCODING 312
SWIDTH 518 0
DWIDTH 15 0
BBX 17 14 -1 0
BITMAP
07FC07E000
07F81F4000
0BF4B80000
0FF6D00000
0FFFFD0000
1FFFFF4000
1FF4BF8000
2FD0BF8000
3FC0BF4000
3FC0BF4240
7F80FF0700
BF40FFAE00
BF40BFF800
FF002FD000
ENDCHAR
STARTCHAR Lacute
ENCODING 313
SWIDTH 379 0
DWIDTH 11 0
BBX 19 35 0 -7
BITMAP
0000019000
000007D000
00000B8000
00001F4000
00002E0000
00007C0000
0000000000
0006FC0000
007FF80000
03EBF80000
1F4BF40000
3E0FF00000
7D0FF00000
BC1FE00000
B82FD00000
B82FD00000
183FC00000
007F800000
007F800000
00BF400000
00FF400000
00FF000000
01FE000000
01FE000000
02FD000000
03FC000000
03FC000000
07FF400000
006FF40000
0002FE0000
00007FE414
00001FFFF4
000007FFF0
000000BFE0
0000001B80
ENDCHAR
STARTCHAR lacute
ENCODING 314
SWIDTH 267 0
DWIDTH 7 0
BBX 11 26 -1 0
BITMAP
0001F8
0002F0
0003D0
000B80
000F40
001900
000000
00AF00
01FE00
01FE00
02FD00
03FC00
03FC00
07F800
0BF400
0BF400
0FF000
1FE000
1FE000
2FD000
3FC000
3FC090
7FC1C0
3FEB40
2FFE00
0BE400
ENDCHAR
STARTCHAR Lcommaaccent
ENCODING 315
SWIDTH 379 0
DWIDTH 11 0
BBX 19 28 0 -7
BITMAP
0006FC0000
007FF80000
03EBF80000
1F4BF40000
3E0FF00000
7D0FF00000
BC1FE00000
B82FD00000
B82FD00000
183FC00000
007F800000
007F800000
00BF400000
00FF400000
00FF000000
01FE000000
01FE000000
02FD000000
03FC000000
03FC000000
07FF400000
006FF40000
0142FE0000
0BC07FE414
0BD01FFFF4
03C007FFF0
034000BFE0
0500001B80
ENDCHAR
STARTCHAR lcommaaccent
ENCODING 316
SWIDTH 267 0
DWIDTH 7 0
BBX 10 27 -1 -7
BITMAP
000100
00FF00
01FE00
02FE00
02FD00
03FC00
03FC00
07F800
0BF400
0BF400
0FF000
1FE000
1FE000
2FD000
3FC000
3FC090
7FC1C0
3FEB40
2FFE00
0BE400
000000
150000
3F0000
2F0000
0E0000
180000
100000
ENDCHAR
STARTCHAR Lcaron
ENCODING 317
SWIDTH 379 0
DWIDTH 11 0
BBX 19 35 0 -7
BITMAP
0000400500
0000A06D00
000076F000
00003FC000
00002E0000
0000180000
0000000000
0006FC0000
007FF80000
03EBF80000
1F4BF40000
3E0FF00000
7D0FF00000
BC1FE00000
B82FD00000
B82FD00000
183FC00000
007F800000
007F800000
00BF400000
00FF400000
00FF000000
01FE000000
01FE000000
02FD000000
03FC000000
03FC000000
07FF400000
006FF40000
0002FE0000
00007FE414
00001FFFF4
000007FFF0
000000BFE0
0000001B80
ENDCHAR
STARTCHAR lcaron
ENCODING 318
SWIDTH 267 0
DWIDTH 7 0
BBX 13 21 -1 0
BITMAP
00002E00
00003F40
00AF2F00
01FE0E00
01FE1D00
02FD2400
03FC0000
03FC0000
07F80000
0BF40000
0BF40000
0FF00000
1FE00000
1FE00000
2FD00000
3FC00000
3FC09000
7FC1C000
3FEB4000
2FFE0000
0BE40000
ENDCHAR
STARTCHAR Ldot
ENCODING 319
SWIDTH 605 0
DWIDTH 17 0
BBX 19 28 0 -7
BITMAP
0006FC0000
007FF80000
02EBF80000
0B8BF40000
2E0FF00000
7D0FF00000
BC1FE00000
B82FD00000
B82FD00000
7C3FC00000
043FC00000
007F800000
00BF40B800
00BF42FE00
00FF02FE00
01FE00B800
01FE000000
02FD000000
03FC000000
03FC000000
07FE400000
006FE40000
0002FE0000
00007FE414
00001FFFF4
000007FFF0
000000BFE0
0000001B80
ENDCHAR
STARTCHAR ldot
ENCODING 320
SWIDTH 353 0
DWIDTH 10 0
BBX 11 19 -1 0
BITMAP
00BF00
01FE00
01FE00
02FD00
03FC00
03FC00
07F800
0BF400
0BF5E0
0FF2F8
1FE2F8
1FE1E0
2FD000
3FC000
3FC000
7FC000
3FF800
2FF400
0BD000
ENDCHAR
STARTCHAR Lslash
ENCODING 321
SWIDTH 392 0
DWIDTH 11 0
BBX 19 28 0 -7
BITMAP
0006FC0000
007FF80000
03EBF80000
1F4BF40000
3E0FF40000
7D0FF04000
BC1FE68000
B82FFE4000
B82FF40000
183FC00000
007FC00000
02FF800000
06BF400000
00BF400000
00FF000000
01FE000000
01FE000000
02FD000000
03FC000000
03FC000000
07FF400000
006FF40000
0002FE0000
00007FE414
00001FFFF4
000007FFF0
000000BFE0
0000001B80
ENDCHAR
STARTCHAR lslash
ENCODING 322
SWIDTH 286 0
DWIDTH 8 0
BBX 10 20 -1 0
BITMAP
000100
00FF00
01FE00
01FE00
02FD00
03FC10
03FDF0
07FF90
0BFD00
0BF400
1FF000
BFE000
AFE000
2FD000
3FC000
3FC090
7FC1C0
3FEB40
2FFE00
0BE400
ENDCHAR
STARTCHAR Nacute
ENCODING 323
SWIDTH 702 0
DWIDTH 20 0
BBX 20 28 0 0
BITMAP
0000000068
00000000F8
00000002F0
00000003D0
0000000B80
0000000500
0000000000
001BF8002F
01FFFC003E
0BE7FD003E
2F4BFE007D
3E0BFE00BC
BD0FFF00BC
BC1FFF40F8
BC1FFF40F4
BC2F7F81F4
3D3F3FC2F0
053E2FC2E0
007D2FD3E0
00BD1FE7D0
00BC0FE7D0
00F80FFBC0
01F80BFF80
01F407FF80
02F003FF40
03E003FF00
03E002FF00
07D001FE00
ENDCHAR
STARTCHAR nacute
ENCODING 324
SWIDTH 505 0
DWIDTH 14 0
BBX 16 21 -1 0
BITMAP
000007E0
00000BC0
00001F40
00002E00
00007C00
00001400
00000000
07F9BE00
07FFFF80
0BFD7FC0
0FF43FC0
0FF03FC0
1FE07F80
1FE07F40
2FD0BF40
3FC0FF00
3FC0FE03
7F80FE0A
BF40FFAD
BF40BFF4
FF002F90
ENDCHAR
STARTCHAR Ncommaaccent
ENCODING 325
SWIDTH 668 0
DWIDTH 19 0
BBX 20 28 0 -7
BITMAP
001BF8002F
01FFFC003E
0BE7FD003E
2F4BFE007D
3E0BFE00BC
BD0FFF00BC
BC1FFF40F8
BC1FFF40F4
BC2F7F81F4
3D3F3FC2F0
053E2FC2E0
007D2FD3E0
00BD1FE7D0
00BC0FE7D0
00F80FFBC0
01F80BFF80
01F407FF80
02F003FF40
03E003FF00
03E002FF00
07D001FE00
0000000000
0000000000
0002D00000
0003F00000
0001E00000
0001C00000
0002400000
ENDCHAR
STARTCHAR ncommaaccent
ENCODING 326
SWIDTH 505 0
DWIDTH 14 0
BBX 16 21 -1 -7
BITMAP
07F9BE00
07FFFF80
0BFD7FC0
0FF43FC0
0FF03FC0
1FE07F80
1FE07F40
2FD0BF00
3FC0FF01
3FC0FE07
7F80FE0A
BF40FFFC
BF40BFF4
FF002F90
00000000
00000000
00B80000
00FC0000
007C0000
00340000
00900000
ENDCHAR
STARTCHAR Ncaron
ENCODING 327
SWIDTH 668 0
DWIDTH 19 0
BBX 20 28 0 0
BITMAP
0000005001
000000702D
0000003AF4
0000002FC0
0000001E00
0000000400
0000000000
001BF8002F
01FFFC003E
0BE7FD003E
2F4BFE007D
3E0BFE00BC
BD0FFF00BC
BC1FFF40F8
BC1FFF40F4
BC2F7F81F4
3D3F3FC2F0
053E2FC2E0
007D2FD3E0
00BD1FE7D0
00BC0FE7D0
00F80FFBC0
01F80BFF80
01F407FF80
02F003FF40
03E003FF00
03E002FF00
07D001FE00
ENDCHAR
STARTCHAR ncaron
ENCODING 328
SWIDTH 505 0
DWIDTH 14 0
BBX 16 21 -1 0
BITMAP
000D01A0
000B1B80
0007FD00
0003F400
0002D000
00000000
00000000
07F9BE00
07FFFF80
0BFD7FC0
0FF43FC0
0FF03FC0
1FE07F80
1FE07F40
2FD0BF00
3FC0FF01
3FC0FE07
7F80FE0A
BF40FFFC
BF40BFF4
FF002F90
ENDCHAR
STARTCHAR napostrophe
ENCODING 329
SWIDTH 505 0
DWIDTH 14 0
BBX 16 21 -1 0
BITMAP
07800000
0FD00000
07D00000
03C00000
07400000
05000000
00000000
07F9BE00
07FFFF80
0BFD7FC0
0FF43FC0
0FF03FC0
1FE07F80
1FE07F40
2FD0BF00
3FC0FF01
3FC0FE07
7F80FE0A
BF40FFFC
BF40BFF4
FF002F90
ENDCHAR
STARTCHAR Eng
ENCODING 330
SWIDTH 723 0
DWIDTH 20 0
BBX 21 27 1 -6
BITMAP
001AF9001F40
01BFFE001F40
07F7FE002F00
1F87FF003E00
3F07FF003E00
7E0BFF407D00
BD0FFF80BC00
BD0FFF80BC00
7D1F7FC0F800
2D2F2FD1F400
012F1FD1F400
003E0FE2F000
007D0FF3E000
007D0BF7D000
00BC07FBD000
00F803FFC000
00F802FF8000
01F402FF8000
02F001FF4000
02F000FF0000
03E000BE0000
000640BD0000
001F40FC0000
001F02F40000
000F87E00000
0006FF400000
000010000000
ENDCHAR
STARTCHAR eng
ENCODING 331
SWIDTH 505 0
DWIDTH 14 0
BBX 13 21 -1 -7
BITMAP
07F9BE00
07FFFF40
0BFEBF80
0FF43F80
0FF03F80
1FE07F80
2FE07F40
2FD0BF40
3FC0BF00
3FC0FE00
7F81FE00
BF41FD00
BF42FD00
FF03FC00
001BF800
01EBF800
034BF400
0A0FF000
091FE000
07BF8000
01FE0000
ENDCHAR
STARTCHAR Omacron
ENCODING 332
SWIDTH 665 0
DWIDTH 19 0
BBX 19 26 0 0
BITMAP
0000AAAA80
0001FFFF80
0000000000
0000000000
0000000000
0001AFE800
002FFAFF40
01FD041FD0
07E0BD0BE0
1F83F80BF0
3E0BF007F4
7D1FD007F4
BC3FC007F4
7C7F800BF4
2CFF400BF4
01FF000FF0
01FE000FE0
02FE001FD0
02FD002FD0
03FD007F80
03FD00BF40
03FD01FE00
02FD03FC00
01FF5FF000
00BFFF8000
001BF90000
ENDCHAR
STARTCHAR omacron
ENCODING 333
SWIDTH 433 0
DWIDTH 12 0
BBX 17 19 -1 0
BITMAP
00AAAA8000
01FFFF8000
0000000000
0000000000
0000000000
001BE40000
00FFBC0000
03FC2D0000
0BF42E0640
1FE07FAD00
2FD07F9000
3FC02D0000
7FC03D0000
7F807C0000
BF80B80000
7F81F40000
7FD7E00000
2FFF800000
07F9000000
ENDCHAR
STARTCHAR Obreve
ENCODING 334
SWIDTH 665 0
DWIDTH 19 0
BBX 19 27 0 0
BITMAP
0000680064
00007D00F4
00003E07E0
00001FFF80
0000019400
0000000000
0001AFE800
002FFAFF40
01FD041FD0
07E0BD0BE0
1F83F80BF0
3E0BF007F4
7D1FD007F4
BC3FC007F4
7C7F800BF4
2CFF400BF4
01FF000FF0
01FE000FE0
02FE001FD0
02FD002FD0
03FD007F80
03FD00BF40
03FD01FE00
02FD03FC00
01FF5FF000
00BFFF8000
001BF90000
ENDCHAR
STARTCHAR obreve
ENCODING 335
SWIDTH 433 0
DWIDTH 12 0
BBX 17 20 -1 0
BITMAP
00F802F000
00BD0BD000
003FFF4000
0005940000
0000000000
0000000000
001BE40000
00FFBC0000
03FC2D0000
0BF42E0640
1FE07FAD00
2FD07F9000
3FC02D0000
7FC03D0000
7F807C0000
BF80B80000
7F81F40000
7FD7E00000
2FFF800000
07F9000000
ENDCHAR
STARTCHAR Ohungarumlaut
ENCODING 336
SWIDTH 665 0
DWIDTH 19 0
BBX 20 28 0 0
BITMAP
0000007D2F
000000B87D
000001F0B4
000003C1E0
0000074280
0000000000
0000000000
0001AFE800
002FFAFF40
01FD041FD0
07E0BD0BE0
1F83F80BF0
3E0BF007F4
7D1FD007F4
BC3FC007F4
7C7F800BF4
2CFF400BF4
01FF000FF0
01FE000FE0
02FE001FD0
02FD002FD0
03FD007F80
03FD00BF40
03FD01FE00
02FD03FC00
01FF5FF000
00BFFF8000
001BF90000
ENDCHAR
STARTCHAR ohungarumlaut
ENCODING 337
SWIDTH 433 0
DWIDTH 12 0
BBX 17 21 -1 0
BITMAP
0002F1F800
0007D2E000
000B47C000
001E0B4000
002C1D0000
0000000000
0000000000
001BE40000
00FFBC0000
03FC2D0000
0BF42E0640
1FE07FAD00
2FD07F9000
3FC02D0000
7FC03D0000
7F807C0000
BF80B80000
7F81F40000
7FD7E00000
2FFF800000
07F9000000
ENDCHAR
STARTCHAR OE
ENCODING 338
SWIDTH 846 0
DWIDTH 24 0
BBX 26 21 0 0
BITMAP
0001AFFAFFFFD0
002FFAFFFFFFC0
01F9591FE6BE40
0BD1FC0BE00000
1F47F40BF00000
3E0FE007F40000
7D2FD007F40000
BC7FC007F40000
7CBF800BF40000
18FF400BFFE000
01FF000BFFE000
01FE000FE00000
02FE001FD00000
02FD002FC00000
03FD003F800000
03FD007F400000
03FD00FE000000
02FD02FC000000
01FE07FFFFD000
00BFBFFFFFC000
001BFFFFFFC000
ENDCHAR
STARTCHAR oe
ENCODING 339
SWIDTH 663 0
DWIDTH 19 0
BBX 21 14 -1 0
BITMAP
001BE01BE400
01FFBCBFBC00
07F82FFD1D00
0BF03FF81D00
1FD0BFF02C00
2FC0BFE07400
3FC02FD2E000
3F803FFE4000
3F807FD00180
7F80BFC00240
3FC1FFC00A00
3FFFEFE07800
2FFF8BFFE000
06F902FE4000
ENDCHAR
STARTCHAR Racute
ENCODING 340
SWIDTH 601 0
DWIDTH 17 0
BBX 17 28 0 0
BITMAP
0000007D00
000000F800
000001F000
000003D000
0000078000
0000000000
0000000000
0006FF9000
007FEBF800
03F4007E00
1F86B42F40
3E0BF42F40
7D0FF02F40
BC1FE03E00
B81FE0BD00
782FD6F400
183FFFE400
003FC3FC00
007F82FD00
00BF42FD00
00BF42FC00
00FF03FC00
01FE07F800
01FE07F400
02FD0BF000
03FD0FF000
03FC0FF000
07F807F400
ENDCHAR
STARTCHAR racute
ENCODING 341
SWIDTH 376 0
DWIDTH 11 0
BBX 12 21 -1 0
BITMAP
00003F
00007D
0000F8
0001F0
0003D0
000140
000000
07F8BD
07FFFE
0BFDBE
0FF43D
0FF000
1FE000
1FE000
2FD000
3FC000
3FC000
7F8000
BF4000
BF4000
FF0000
ENDCHAR
STARTCHAR Rcommaaccent
ENCODING 342
SWIDTH 601 0
DWIDTH 17 0
BBX 17 28 0 -7
BITMAP
0006FF9000
007FEBF800
03F4007E00
1F86B42F40
3E0BF42F40
7D0FF02F40
BC1FE03E00
B81FE0BD00
782FD6F400
183FFFE400
003FC3FC00
007F82FD00
00BF42FD00
00BF42FC00
00FF03FC00
01FE07F800
01FE07F400
02FD0BF000
03FD0FF000
03FC0FF000
07F807F400
0000000000
0001400000
0007D00000
0007D00000
0002C00000
0003400000
0001000000
ENDCHAR
STARTCHAR rcommaaccent
ENCODING 343
SWIDTH 376 0
DWIDTH 11 0
BBX 12 21 -1 -7
BITMAP
07F8BD
07FFFE
0BFDBE
0FF43D
0FF000
1FE000
1FE000
2FD000
3FC000
3FC000
7F8000
BF4000
BF4000
FF0000
000000
000000
078000
0BD000
03C000
038000
060000
ENDCHAR
STARTCHAR Rcaron
ENCODING 344
SWIDTH 601 0
DWIDTH 17 0
BBX 18 28 0 0
BITMAP
00001C01D0
00000E2F00
00000BF800
000007E000
0000034000
0000000000
0000000000
0006FF9000
007FEBF800
03F4007E00
1F86B42F40
3E0BF42F40
7D0FF02F40
BC1FE03E00
B81FE0BD00
782FD6F400
183FFFE400
003FC3FC00
007F82FD00
00BF42FD00
00BF42FC00
00FF03FC00
01FE07F800
01FE07F400
02FD0BF000
03FD0FF000
03FC0FF000
07F807F400
ENDCHAR
STARTCHAR rcaron
ENCODING 345
SWIDTH 376 0
DWIDTH 11 0
BBX 13 21 -1 0
BITMAP
00600B40
00347C00
002FE000
001F8000
000E0000
00040000
00000000
07F8BD00
07FFFE00
0BFDBE00
0FF43D00
0FF00000
1FE00000
1FE00000
2FD00000
3FC00000
3FC00000
7F800000
BF400000
BF400000
FF000000
ENDCHAR
STARTCHAR Sacute
ENCODING 346
SWIDTH 570 0
DWIDTH 16 0
BBX 15 28 1 0
BITMAP
000002F4
000007D0
00000B80
00001F40
00002D00
00000000
00000000
0006FE40
003FEBE0
00FF02F4
01FD01F4
02FD01F4
02FE03F0
01FF0190
00FF8000
007FE000
002FF800
000BFE00
0002FF40
0B90FF80
3FF07FD0
BF403FD0
FD003FD0
FC003FC0
FD007F80
7F41FF00
2FFFF800
06FF9000
ENDCHAR
STARTCHAR sacute
ENCODING 347
SWIDTH 382 0
DWIDTH 11 0
BBX 13 21 -1 0
BITMAP
00002F00
00007E00
0000BC00
0000F400
0002E000
00014000
00158000
007FD000
00BFD000
00FFD000
01EFD000
02AFD000
036FE000
0A2FE000
1D1FE000
7D1FE000
BE1FE140
E81FEA00
B02FF400
7EFF8000
1BF90000
ENDCHAR
STARTCHAR Scircumflex
ENCODING 348
SWIDTH 570 0
DWIDTH 16 0
BBX 15 28 1 0
BITMAP
00000280
00000BC0
00007FD0
0001F4E0
00074030
00000000
00000000
0006FE40
003FEBE0
00FF02F4
01FD01F4
02FD01F4
02FE03F0
01FF0190
00FF8000
007FE000
002FF800
000BFE00
0002FF40
0B90FF80
3FF07FD0
BF403FD0
FD003FD0
FC003FC0
FD007F80
7F41FF00
2FFFF800
06FF9000
ENDCHAR
STARTCHAR scircumflex
ENCODING 349
SWIDTH 382 0
DWIDTH 11 0
BBX 13 21 -1 0
BITMAP
0000A000
0002F000
000BF400
003E7800
01E41800
01400400
00158000
007FD000
00BFD000
00FFD000
01EFD000
02AFD000
036FE000
0A2FE000
1D1FE000
7D1FE000
BE1FE140
E81FEA00
B02FF400
7EFF8000
1BF90000
ENDCHAR
STARTCHAR Scedilla
ENCODING 350
SWIDTH 570 0
DWIDTH 16 0
BBX 15 27 1 -6
BITMAP
0006FE40
003FEBE0
00FF02F4
01FD01F4
02FD01F4
02FD03F0
02FF0190
00FF8000
007FE000
002FF800
000BFD00
0003FF40
0A91FF80
3FF0BFC0
BF403FD0
FD003FD0
FD003FC0
FD007F80
BE01FF00
2FEBF900
06FF9000
00340000
007A4000
00AFD000
0007D000
0247C000
01BE0000
ENDCHAR
STARTCHAR scedilla
ENCODING 351
SWIDTH 382 0
DWIDTH 11 0
BBX 13 21 -1 -6
BITMAP
00158000
007FD000
00BFD000
00FFD000
01EFD000
02AFD000
036FE000
0A1FE000
1D1FE000
3D1FE000
BD1FE240
E41FFD00
B47FE000
7FFF8000
1BF90000
03400000
07500000
0BFC0000
04BC0000
20B80000
1FE00000
ENDCHAR
STARTCHAR Scaron
ENCODING 352
SWIDTH 570 0
DWIDTH 16 0
BBX 17 28 1 0
BITMAP
0000300740
0000287D00
00001FE000
00000F8000
00000A0000
0000000000
0000000000
0006FE4000
003FEBE000
00FF02F400
01FD01F400
02FD01F400
02FE03F000
01FF019000
00FF800000
007FE00000
002FF80000
000BFE0000
0002FF4000
0B90FF8000
3FF07FD000
BF403FD000
FD003FD000
FC003FC000
FD007F8000
7F41FF0000
2FFFF80000
06FF900000
ENDCHAR
STARTCHAR scaron
ENCODING 353
SWIDTH 369 0
DWIDTH 10 0
BBX 13 21 -1 0
BITMAP
00340680
00286D00
001FF400
000FD000
000B0000
00000000
00168000
007FD000
00BFD000
00FFD000
01EFD000
02AFD000
072FE000
0A1FE000
1C1FE000
7D1FE000
BD1FE740
E42FFD00
B57FE000
7FFF4000
1BF90000
ENDCHAR
STARTCHAR uni0162
ENCODING 354
SWIDTH 481 0
DWIDTH 13 0
BBX 20 27 0 -6
BITMAP
001BFE4001
01FFFFF907
0BE5BFFFFE
2F40FFFFFD
3E00FFABE4
7C01FF0000
BC02FE0000
B802FE0000
B803FD0000
7807FC0000
1807FC0000
000BF80000
000BF40000
000FF00000
001FF00000
001FE00000
002FD00000
003FD00000
003FC00000
007F800000
00BF800000
000C000000
0029400000
003FE00000
0002F00000
0182E00000
00BF400000
ENDCHAR
STARTCHAR uni0163
ENCODING 355
SWIDTH 267 0
DWIDTH 7 0
BBX 10 25 -1 -6
BITMAP
000100
01FE00
02FD00
02FD00
03FC00
0FFF80
0BFE40
0BF800
0BF400
0FF000
1FF000
1FE000
2FD000
3FD000
3FC090
7FC1C0
3FEB40
3FFE00
0FE400
0D0000
1D9000
2FF400
01F400
92F000
6F8000
ENDCHAR
STARTCHAR Tcaron
ENCODING 356
SWIDTH 481 0
DWIDTH 13 0
BBX 20 28 0 0
BITMAP
0000100140
0000281A00
00001EF800
00000FE000
00000B4000
0000050000
0000000000
001BFE4001
01FFFFF907
0BE5BFFFFE
2F40FFFFFD
3E00FFABE4
7C01FF0000
BC02FE0000
B802FE0000
B803FD0000
7807FC0000
1807FC0000
000BF80000
000BF40000
000FF00000
001FF00000
001FE00000
002FD00000
003FD00000
003FC00000
007F800000
00BF800000
ENDCHAR
STARTCHAR tcaron
ENCODING 357
SWIDTH 267 0
DWIDTH 7 0
BBX 13 21 -1 0
BITMAP
00001F00
00002F80
00001F40
01BE0B00
02FE1D00
02FD1400
03FC0000
0FFF8000
0BFE4000
0BF80000
0BF40000
0FF00000
1FF00000
1FE00000
2FD00000
3FD00000
3FC09000
7FC1C000
3FEB4000
2FFE0000
0BE40000
ENDCHAR
STARTCHAR Tbar
ENCODING 358
SWIDTH 481 0
DWIDTH 13 0
BBX 20 21 0 0
BITMAP
001BFE4001
02FFFFF907
0BE5BFFFFE
2F40FFBFFD
3D00FF06E4
BC01FF0000
BC02FE0000
B802FD0000
B803FC0000
7C03FC0000
0407F80000
000BF40000
0BFFFFF800
06AFFAA400
000FF00000
001FE00000
002FD00000
003FD00000
003FC00000
007F800000
00BF800000
ENDCHAR
STARTCHAR tbar
ENCODING 359
SWIDTH 267 0
DWIDTH 7 0
BBX 10 19 -1 0
BITMAP
000100
01FE00
02FD00
02FD00
03FC00
0FFF80
0BFE40
0BF400
7FFF40
6FFA00
1FF000
1FE000
2FD000
3FD000
3FC090
7FC1C0
3FEB40
2FFE00
0BE400
ENDCHAR
STARTCHAR Utilde
ENCODING 360
SWIDTH 716 0
DWIDTH 20 0
BBX 21 26 0 0
BITMAP
000001BE9040
000007FFFF00
0000146FF900
000000015000
000000000000
0006FE003FC0
00BFFD003FC0
07D2FC007F80
1F43FC00BF40
7D07F800BF40
BC0BF400FF00
F80BF001FE00
F80FE001FE00
F41FE002FD00
682FD003FC00
002FC003FC00
003F8007F800
007F400BF400
007F400FF000
00BF001FE000
00BF002FD000
00BF003FC000
00BF40BF4000
007FEBFE0000
003FFFF80000
000AFF900000
ENDCHAR
STARTCHAR utilde
ENCODING 361
SWIDTH 505 0
DWIDTH 14 0
BBX 16 19 -1 0
BITMAP
001BE904
00BFFFE0
0141BE40
00000000
00000000
07F81FE0
07F82FE0
0BF42FD0
0FF43FC0
0FF03FC0
1FE07F80
1FE0BF40
2FD0BF40
3FC0FF00
3FC1FF03
7FC3FE0A
3FEEFFBC
2FFCBFF4
0BE02F80
ENDCHAR
STARTCHAR Umacron
ENCODING 362
SWIDTH 716 0
DWIDTH 20 0
BBX 21 26 0 0
BITMAP
000006AAA900
00000BFFFD00
000000000000
000000000000
000000000000
0006FE003FC0
00BFFD003FC0
07D2FC007F80
1F43FC00BF40
7D07F800BF40
BC0BF400FF00
F80BF001FE00
F80FE001FE00
F41FE002FD00
682FD003FC00
002FC003FC00
003F8007F800
007F400BF400
007F400FF000
00BF001FE000
00BF002FD000
00BF003FC000
00BF40BF4000
007FEBFE0000
003FFFF80000
000AFF900000
ENDCHAR
STARTCHAR umacron
ENCODING 363
SWIDTH 505 0
DWIDTH 14 0
BBX 16 19 -1 0
BITMAP
006AAA90
00BFFFD0
00000000
00000000
00000000
07F81FE0
07F82FE0
0BF42FD0
0FF43FC0
0FF03FC0
1FE07F80
1FE0BF40
2FD0BF40
3FC0FF00
3FC1FF03
7FC3FE0A
3FEEFFBC
2FFCBFF4
0BE02F80
ENDCHAR
STARTCHAR Ubreve
ENCODING 364
SWIDTH 716 0
DWIDTH 20 0
BBX 21 27 0 0
BITMAP
000006400640
000007C01F40
000003E07E00
000001FFF400
000000194000
000000000000
0006FE003FC0
00BFFD003FC0
07D2FC007F80
1F43FC00BF40
7D07F800BF40
BC0BF400FF00
F80BF001FE00
F80FE001FE00
F41FE002FD00
682FD003FC00
002FC003FC00
003F8007F800
007F400BF400
007F400FF000
00BF001FE000
00BF002FD000
00BF003FC000
00BF40BF4000
007FEBFE0000
003FFFF80000
000AFF900000
ENDCHAR
STARTCHAR ubreve
ENCODING 365
SWIDTH 505 0
DWIDTH 14 0
BBX 16 20 -1 0
BITMAP
00BC01F4
007D07E0
002FFF40
00059400
00000000
00000000
07F81FE0
07F82FE0
0BF42FD0
0FF43FC0
0FF03FC0
1FE07F80
1FE0BF40
2FD0BF40
3FC0FF00
3FC1FF03
7FC3FE0A
3FEEFFBC
2FFCBFF4
0BE02F80
ENDCHAR
STARTCHAR Uring
ENCODING 366
SWIDTH 716 0
DWIDTH 20 0
BBX 21 27 0 0
BITMAP
0000001F4000
00000035C000
00000060C000
000000718000
0000002E4000
000000000000
0006FE003FC0
00BFFD003FC0
07D2FC007F80
1F43FC00BF40
7D07F800BF40
BC0BF400FF00
F80BF001FE00
F80FE001FE00
F41FE002FD00
682FD003FC00
002FC003FC00
003F8007F800
007F400BF400
007F400FF000
00BF001FE000
00BF002FD000
00BF003FC000
00BF40BF4000
007FEBFE0000
003FFFF80000
000AFF900000
ENDCHAR
STARTCHAR uring
ENCODING 367
SWIDTH 505 0
DWIDTH 14 0
BBX 16 19 -1 0
BITMAP
0001F400
00071C00
00071C00
0002F400
00000000
07F81FE0
07F82FE0
0BF42FD0
0FF43FC0
0FF03FC0
1FE07F80
1FE0BF40
2FD0BF40
3FC0FF00
3FC1FF03
7FC3FE0A
3FEEFFBC
2FFCBFF4
0BE02F80
ENDCHAR
STARTCHAR Uhungarumlaut
ENCODING 368
SWIDTH 716 0
DWIDTH 20 0
BBX 22 28 0 0
BITMAP
0000000F87D0
0000001F0F80
0000003D1E00
000000743C00
000000E07400
000000000000
000000000000
0006FE003FC0
00BFFD003FC0
07D2FC007F80
1F43FC00BF40
7D07F800BF40
BC0BF400FF00
F80BF001FE00
F80FE001FE00
F41FE002FD00
682FD003FC00
002FC003FC00
003F8007F800
007F400BF400
007F400FF000
00BF001FE000
00BF002FD000
00BF003FC000
00BF40BF4000
007FEBFE0000
003FFFF80000
000AFF900000
ENDCHAR
STARTCHAR uhungarumlaut
ENCODING 369
SWIDTH 505 0
DWIDTH 14 0
BBX 16 21 -1 0
BITMAP
0002F4F8
0003D2F0
000B83D0
000E0B40
002C0E00
00000000
00000000
07F81FE0
07F82FE0
0BF42FD0
0FF43FC0
0FF03FC0
1FE07F80
1FE0BF40
2FD0BF40
3FC0FF00
3FC1FF03
7FC3FE0A
3FEEFFBC
2FFCBFF4
0BE02F80
ENDCHAR
STARTCHAR Uogonek
ENCODING 370
SWIDTH 716 0
DWIDTH 20 0
BBX 21 34 0 -6
BITMAP
000001F40000
000000F80000
000000F80000
000000BC0000
0000007C0000
000000000000
000000000000
0006FE003FC0
00BFFD003FC0
07D2FC007F80
1F43FC00BF40
7D07F800BF40
BC0BF400FF00
F80BF001FE00
F80FE001FE00
F41FD002FD00
282FD003FC00
002FC003FC00
003F8007F800
007F400BF400
007F400FF000
00BF001FF000
00BF002FD000
00BF003FC000
00BF80BF8000
00BFFFFE0000
003FFFF80000
000BFF900000
0000A0000000
0002D0000000
0003D0000000
0003E1800000
0002FF400000
000069000000
ENDCHAR
STARTCHAR uogonek
ENCODING 371
SWIDTH 505 0
DWIDTH 14 0
BBX 16 20 -1 -6
BITMAP
07F81FE0
07F82FE0
0BF42FD0
0FF43FC0
0FF03FC0
1FE07F80
1FE0BF40
2FD0BF40
3FC0FF00
3FC1FF03
7FC3FE0A
3FEEFFBC
2FFCBFF4
0BE02F80
00002800
0000B400
0000F400
0000F860
0000BFD0
00002A40
ENDCHAR
STARTCHAR Wcircumflex
ENCODING 372
SWIDTH 962 0
DWIDTH 27 0
BBX 29 28 0 0
BITMAP
0000000000500000
0000000001E00000
0000000007F00000
000000002FB40000
00000000B4280000
0000000140040000
0000000000000000
0006FC003F800780
007FFC007F800B40
02E7FC00BFC00F00
0F83FC00FFC01E00
3E03FD01FFC02D00
7D03FD02FFC03C00
BC03FD03FFC07400
B803FD07BFC0B000
B803FD0B7FC0E000
2803FD0E7FC1D000
0003FD1D3FC2C000
0003FD2C3FC38000
0002FD383FC74000
0002FD743FCB0000
0002FDB03FCE0000
0002FDD03FDC0000
0002FEC03FE80000
0002FF803FF40000
0002FF403FF00000
0002FF003FE00000
0002FE003FD00000
ENDCHAR
STARTCHAR wcircumflex
ENCODING 373
SWIDTH 661 0
DWIDTH 19 0
BBX 19 21 -1 0
BITMAP
000000A000
000002F000
00000BF400
00002FB800
0000B82800
0001800800
0000000000
07F81FE0B4
07F82FE1FC
0BF42FD0BC
0FF43FC02C
0FF03FC02C
1FE07F8038
1FE0BF4074
2FD0BF40B4
3FC0FF01E0
3FC1FF02D0
7FC3FE0B80
3FEFFFBF00
2FFCFFFD00
0BE02FE000
ENDCHAR
STARTCHAR Ycircumflex
ENCODING 374
SWIDTH 620 0
DWIDTH 17 0
BBX 20 28 0 0
BITMAP
0000000100
0000000B40
0000002F80
000000FAD0
00000790E0
0000050010
0000000000
0006FD002D
007FFD003C
02E3FE0074
0F82FF00B0
3E01FF40E0
7D00FF42C0
BC00FF8380
B800BFC740
B8007FCA00
28003FED00
00003FFC00
00002FF400
00001FF000
00002FF000
00002FE000
00003FD000
00007FD000
00007FC000
0000BF8000
0000FF8000
0000FF4000
ENDCHAR
STARTCHAR ycircumflex
ENCODING 375
SWIDTH 505 0
DWIDTH 14 0
BBX 16 28 -1 -7
BITMAP
00001C00
00007D00
0001FE00
000BDB00
002D0340
00100040
00000000
07F81FE0
07F82FE0
0BF42FD0
0FF43FC0
0FF03FC0
1FE07F80
1FE0BF40
2FD0BF40
3FC0FF00
3FC1FE0A
7FC3FE0D
3FEFFD28
2FFFFDE0
0BE7FF40
001FF800
01FBF800
078BF400
0B0FF000
0B6FE000
07FFC000
01FE0000
ENDCHAR
STARTCHAR Ydieresis
ENCODING 376
SWIDTH 620 0
DWIDTH 17 0
BBX 20 26 0 0
BITMAP
000002D0B8
000007F1FC
000002E0B8
0000000000
0000000000
0006FD002D
007FFD003C
02E3FE0074
0F82FF00B0
3E01FF40E0
7D00FF42C0
BC00FF8380
B800BFC740
B8007FCA00
28003FED00
00003FFC00
00002FF400
00001FF000
00002FF000
00002FE000
00003FD000
00007FD000
00007FC000
0000BF8000
0000FF8000
0000FF4000
ENDCHAR
STARTCHAR Zacute
ENCODING 377
SWIDTH 542 0
DWIDTH 15 0
BBX 16 28 0 0
BITMAP
00000069
000000BC
000001F4
000002E0
000007C0
00000640
00000000
01BFFFFD
03FAAFF8
07D01FF4
0BD02FE0
02807FD0
0000BF80
0001FF40
0002FE00
0007FD00
000FF800
001FF400
003FE000
007FD000
00FF8000
01FF4000
03FE0000
07FD0190
0FF803F0
1FF403F0
3FFAAFD0
7FFFFE40
ENDCHAR
STARTCHAR zacute
ENCODING 378
SWIDTH 428 0
DWIDTH 12 0
BBX 12 21 0 0
BITMAP
00007E
0000BC
0000F4
0002E0
0003C0
000140
000000
02FFFE
0FABFC
1F47F8
1F0FF0
041FD0
003FC0
00BF40
01FE00
02FD00
07F800
0FF0B8
2FD0B8
3FFAF4
BFFF90
ENDCHAR
STARTCHAR Zdotaccent
ENCODING 379
SWIDTH 530 0
DWIDTH 15 0
BBX 16 26 0 0
BITMAP
00007D00
0000BE00
00007D00
00000000
00000000
01BFFFFD
03FAAFF8
07D01FF4
0BD02FE0
02807FD0
0000BF80
0001FF40
0002FE00
0007FD00
000FF800
001FF400
003FE000
007FD000
00FF8000
01FF4000
03FE0000
07FD0190
0FF803F0
1FF403F0
3FFAAFD0
7FFFFE40
ENDCHAR
STARTCHAR zdotaccent
ENCODING 380
SWIDTH 428 0
DWIDTH 12 0
BBX 12 19 0 0
BITMAP
000780
000BD0
0007C0
000000
000000
02FFFE
0FABFC
1F47F8
1F0FF0
041FD0
003FC0
00BF40
01FE00
02FD00
07F800
0FF0B8
2FD0B8
3FFAF4
BFFF90
ENDCHAR
STARTCHAR Zcaron
ENCODING 381
SWIDTH 542 0
DWIDTH 15 0
BBX 17 28 0 0
BITMAP
0000500140
0000342E00
00002EF400
00001FD000
00000F0000
0000040000
0000000000
01BFFFFD00
03FAAFF800
07D01FF400
0BD02FE000
02807FD000
0000BF8000
0001FF4000
0002FE0000
0007FD0000
000FF80000
001FF40000
003FE00000
007FD00000
00FF800000
01FF400000
03FE000000
07FD019000
0FF803F000
1FF403F000
3FFAAFD000
7FFFFE4000
ENDCHAR
STARTCHAR zcaron
ENCODING 382
SWIDTH 428 0
DWIDTH 12 0
BBX 13 21 0 0
BITMAP
00240280
001D2E00
000FF800
000BE000
00074000
00010000
00000000
02FFFE00
0FABFC00
1F47F800
1F0FF000
041FD000
003FC000
00BF4000
01FE0000
02FD0000
07F80000
0FF0B800
2FD0B800
3FFAF400
BFFF9000
ENDCHAR
STARTCHAR longs
ENCODING 383
SWIDTH 267 0
DWIDTH 7 0
BBX 17 28 -6 -7
BITMAP
000002F900
00001FFF40
00002FE680
00007F8280
0000BF4000
0000BF4000
0000FF0000
000BFE0000
000AFE0000
0001FD0000
0002FC0000
0003FC0000
0003F80000
0007F80000
000BF40000
000BF00000
000FF00000
001FE00000
001FD00000
002FD00000
003FC00000
02FFC00000
2E7F800000
74BF400000
A0BF000000
B5FE000000
7FFC000000
1BE0000000
ENDCHAR
STARTCHAR uni018F
ENCODING 399
SWIDTH 544 0
DWIDTH 15 0
BBX 15 21 0 0
BITMAP
001BF900
01FFFF80
03FFFFE0
07D06FF4
03400FF8
00000BFC
000007FC
000007FC
00000BFC
0006BFFC
002FEFF8
01FD0FF8
07F41FF4
1FD02FE0
3F803FD0
7F407F80
7F00FF40
7F01FD00
3F47F400
2FEFD000
06F90000
ENDCHAR
STARTCHAR florin
ENCODING 402
SWIDTH 267 0
DWIDTH 7 0
BBX 20 28 -7 -7
BITMAP
0000001BE4
0000007FFC
000001FD7D
000003F87C
000007F4B4
00000FF000
00001FE000
0002FFFF80
0001BFEA40
00003FC000
00007F8000
0000BF4000
0000FF0000
0000FF0000
0001FE0000
0002FD0000
0003FC0000
0007F80000
000BF40000
000FF00000
000FE00000
001FD00000
002FC00000
283F800000
B87F000000
F4FD000000
BAF8000000
2F90000000
ENDCHAR
STARTCHAR Ohorn
ENCODING 416
SWIDTH 665 0
DWIDTH 19 0
BBX 21 25 0 0
BITMAP
000000000500
000000001F40
000000001F00
000000001F00
0001AFE42D00
002FFAFE7800
01FD041FE000
07E0BD0BE000
1F83F80BF000
3E0BF007F400
7D1FD007F400
BC3FC007F400
7C7F800BF400
2CFF400BF400
01FF000FF000
01FE000FF000
02FE001FE000
02FD002FD000
03FD007F8000
03FD00BF4000
03FD01FE0000
02FD03FC0000
01FF5FF00000
00BFFF800000
001BF9000000
ENDCHAR
STARTCHAR ohorn
ENCODING 417
SWIDTH 439 0
DWIDTH 12 0
BBX 15 18 -1 0
BITMAP
00000010
000000B8
000000B8
000000F4
001BE5E0
00BFBFC0
02FD2E00
0BF41E00
1FF01F00
2FD02E00
3FD02E00
7FC03E00
7FC07D00
7FC0FC00
7FC2F400
3FFFE000
1FFF8000
07F90000
ENDCHAR
STARTCHAR Uhorn
ENCODING 431
SWIDTH 716 0
DWIDTH 20 0
BBX 25 26 0 0
BITMAP
00000000001B40
00000000001F40
00000000001F40
00000000001E00
00000000007D00
0006FE003FF400
00BFFD003FD000
07D2FC007F8000
1F43FC00BF4000
7D07F800BF4000
BC0BF400FF0000
F80BF001FE0000
F80FE001FE0000
F41FE002FD0000
682FD003FC0000
002FC003FC0000
003F8007F80000
007F400BF40000
007F400FF00000
00BF001FE00000
00BF002FD00000
00BF003FC00000
00BF40BF400000
007FEBFE000000
003FFFF8000000
000AFF90000000
ENDCHAR
STARTCHAR uhorn
ENCODING 432
SWIDTH 505 0
DWIDTH 14 0
BBX 17 19 -1 0
BITMAP
0000000500
0000001F40
0000000F40
0000001F00
0000002D00
07F81FF800
07F82FE000
0BF42FD000
0FF43FC000
0FF03FC000
1FE07F8000
1FE0BF4000
2FD0BF4000
3FC0FF0000
3FC1FF0300
7FC3FE0A00
3FEEFFBC00
2FFCBFF400
0BE02F8000
ENDCHAR
STARTCHAR uni01B7
ENCODING 439
SWIDTH 555 0
DWIDTH 16 0
BBX 16 21 0 0
BITMAP
00BFFFFE
02FAABFC
03E00BF4
03E02FD0
01907F80
0001FF00
0003FD00
000BF400
001FF400
001FFF40
0005FFD0
00003FE0
00002FF0
00001FF0
00001FF0
2F002FF0
7E003FE0
7D007FC0
7E01FF40
2FEBF800
06FE9000
ENDCHAR
STARTCHAR uni01CD
ENCODING 461
SWIDTH 668 0
DWIDTH 19 0
BBX 24 31 0 -3
BITMAP
000000004005
00000000D078
00000000BBE0
000000007F40
000000003D00
000000001000
000000000000
00000006FD00
0000002FFC00
000000BBFC00
000002D7F800
00000B4BF800
00002E0BF400
00007D0FF000
0000F80FF000
01AAF41FE000
1FFFFFAFD000
7F4BC1BFD000
BD1F803FC000
BD3F407F8000
147F007F8000
00BE00BF4000
01FD00FF0000
02FC00FF0000
03F801FE0000
07F402FE0000
07F002FD0000
0BF003FC0000
0BE000000000
07E000000000
01F000000000
ENDCHAR
STARTCHAR uni01CE
ENCODING 462
SWIDTH 526 0
DWIDTH 15 0
BBX 17 21 -1 0
BITMAP
0001801D00
0000E1F400
0000BFC000
00007F0000
0000380000
0000100000
0000000000
001BEBF400
00FFBFF000
02FD1FF000
0BF41FE000
0FF02FD000
2FD02FD000
3FD03FC000
3FC07F8000
7FC07F8000
7F80BF4180
7FC1FF4340
3FEBFFEE00
2FFE7FF800
0BE41F9000
ENDCHAR
STARTCHAR uni01CF
ENCODING 463
SWIDTH 375 0
DWIDTH 11 0
BBX 15 28 0 0
BITMAP
00014004
0001C0B4
0000FBD0
0000BF40
00007800
00001000
00000000
0006FC00
007FF800
02EBF800
0F8BF400
3E0FF000
7D0FF000
BC1FE000
B81FE000
B82FD000
283FC000
003FC000
007F8000
00BF4000
00BF4000
00FF0000
01FE0000
01FE0000
02FD0000
03FD0000
03FC0000
07F80000
ENDCHAR
STARTCHAR uni01D0
ENCODING 464
SWIDTH 267 0
DWIDTH 7 0
BBX 11 21 -1 0
BITMAP
024068
01C6E0
00FF80
00BD00
007400
001000
000000
07F800
07F800
0BF400
0FF400
0FF000
1FE000
1FE000
2FD000
3FC000
3FC090
7FC1C0
3FEB40
2FFD00
0BE400
ENDCHAR
STARTCHAR uni01D1
ENCODING 465
SWIDTH 665 0
DWIDTH 19 0
BBX 19 28 0 0
BITMAP
0000014004
000001C0B4
000000EBD0
000000BF00
0000007800
0000001000
0000000000
0001AFE800
002FFAFF40
01FD041FD0
07E0BD0BE0
1F83F80BF0
3E0BF007F4
7D1FD007F4
BC3FC007F4
7C7F800BF4
2CFF400BF4
01FF000FF0
01FE000FE0
02FE001FD0
02FD002FD0
03FD007F80
03FD00BF40
03FD01FE00
02FD03FC00
01FF5FF000
00BFFF8000
001BF90000
ENDCHAR
STARTCHAR uni01D2
ENCODING 466
SWIDTH 433 0
DWIDTH 12 0
BBX 17 21 -1 0
BITMAP
000901A000
000B0B8000
0007FE0000
0003F40000
0002D00000
0001400000
0000000000
001BE40000
00FFBC0000
03FC2D0000
0BF42E0640
1FE07FBD00
2FD07F9000
3FC03D0000
7F803D0000
7F807C0000
BF80B80000
7F81F40000
7FEBE00000
2FFF800000
07F9000000
ENDCHAR
STARTCHAR uni01D3
ENCODING 467
SWIDTH 716 0
DWIDTH 20 0
BBX 21 28 0 0
BITMAP
000000100140
000000281E00
0000001EF800
0000000FE000
0000000B4000
000000050000
000000000000
0006FE003FC0
00BFFD003FC0
07D2FC007F80
1F43FC00BF40
7D07F800BF40
BC0BF400FF00
F80BF001FE00
F80FE001FE00
F41FE002FD00
682FD003FC00
002FC003FC00
003F8007F800
007F400BF400
007F400FF000
00BF001FE000
00BF002FD000
00BF003FC000
00BF40BF4000
007FEBFE0000
003FFFF80000
000AFF900000
ENDCHAR
STARTCHAR uni01D4
ENCODING 468
SWIDTH 505 0
DWIDTH 14 0
BBX 16 21 -1 0
BITMAP
00060074
000387D0
0002FF00
0001F800
0000E000
00004000
00000000
07F81FE0
07F82FE0
0BF42FD0
0FF43FC0
0FF03FC0
1FE07F80
1FE0BF40
2FD0BF40
3FC0FF00
3FC1FF03
7FC3FE0A
3FEEFFBC
2FFCBFF4
0BE02F80
ENDCHAR
STARTCHAR uni01D5
ENCODING 469
SWIDTH 716 0
DWIDTH 20 0
BBX 21 28 0 0
BITMAP
000001AAAA40
000003FFFF00
000000000000
000002D03D00
000007F0BE00
000002D07D00
000000000000
0006FE003FC0
00BFFD003FC0
07D2FC007F80
1F43FC00BF40
7D07F800BF40
BC0BF400FF00
F80BF001FE00
F80FE001FE00
F41FE002FD00
682FD003FC00
002FC003FC00
003F8007F800
007F400BF400
007F400FF000
00BF001FE000
00BF002FD000
00BF003FC000
00BF40BF4000
007FEBFE0000
003FFFF80000
000AFF900000
ENDCHAR
STARTCHAR uni01D6
ENCODING 470
SWIDTH 505 0
DWIDTH 14 0
BBX 16 24 -1 0
BITMAP
001AAAA4
002FFFF4
00000000
00000000
00000000
002E0B80
003F0FD0
002E0B80
00000000
00000000
07F81FE0
07F82FE0
0BF42FD0
0FF43FC0
0FF03FC0
1FE07F80
1FE0BF40
2FD0BF40
3FC0FF00
3FC1FF03
7FC3FE0A
3FEEFFBC
2FFCBFF4
0BE02F80
ENDCHAR
STARTCHAR uni01D7
ENCODING 471
SWIDTH 716 0
DWIDTH 20 0
BBX 21 28 0 0
BITMAP
00000001A000
00000003E000
00001F4BCB80
00002F8F4FC0
00001F6E0B80
000000140000
000000000000
0006FE003FC0
00BFFD003FC0
07D2FC007F80
1F43FC00BF40
7D07F800BF40
BC0BF400FF00
F80BF001FE00
F80FE001FE00
F41FE002FD00
682FD003FC00
002FC003FC00
003F8007F800
007F400BF400
007F400FF000
00BF001FE000
00BF002FD000
00BF003FC000
00BF40BF4000
007FEBFE0000
003FFFF80000
000AFF900000
ENDCHAR
STARTCHAR uni01D8
ENCODING 472
SWIDTH 505 0
DWIDTH 14 0
BBX 16 26 -1 0
BITMAP
000007D0
00000F80
00001F40
00002E00
00007C00
00006400
00000000
002E0B80
003F0FD0
002E0B80
00000000
00000000
07F81FE0
07F82FE0
0BF42FD0
0FF43FC0
0FF03FC0
1FE07F80
1FE0BF40
2FD0BF40
3FC0FF00
3FC1FF03
7FC3FE0A
3FEEFFBC
2FFCBFF4
0BE02F80
ENDCHAR
STARTCHAR uni01D9
ENCODING 473
SWIDTH 716 0
DWIDTH 20 0
BBX 21 28 0 0
BITMAP
000000500500
000000707800
00001F6FDB80
00002F9F4FC0
00001F480B80
000000000000
000000000000
0006FE003FC0
00BFFD003FC0
07D2FC007F80
1F43FC00BF40
7D07F800BF40
BC0BF400FF00
F80BF001FE00
F80FE001FE00
F41FE002FD00
682FD003FC00
002FC003FC00
003F8007F800
007F400BF400
007F400FF000
00BF001FE000
00BF002FD000
00BF003FC000
00BF40BF4000
007FEBFE0000
003FFFF80000
000AFF900000
ENDCHAR
STARTCHAR uni01DA
ENCODING 474
SWIDTH 505 0
DWIDTH 14 0
BBX 16 26 -1 0
BITMAP
00010014
0001C1B4
0000EBD0
0000BE00
00007800
00001000
00000000
002E0B80
003F0FD0
002E0B80
00000000
00000000
07F81FE0
07F82FE0
0BF42FD0
0FF43FC0
0FF03FC0
1FE07F80
1FE0BF40
2FD0BF40
3FC0FF00
3FC1FF03
7FC3FE0A
3FEEFFBC
2FFCBFF4
0BE02F80
ENDCHAR
STARTCHAR uni01DB
ENCODING 475
SWIDTH 716 0
DWIDTH 20 0
BBX 21 28 0 0
BITMAP
0000002F0000
0000001F4000
00001F4F4B80
00002F8B8FC0
00001F478B80
000000000000
000000000000
0006FE003FC0
00BFFD003FC0
07D2FC007F80
1F43FC00BF40
7D07F800BF40
BC0BF400FF00
F80BF001FE00
F80FE001FE00
F41FE002FD00
682FD003FC00
002FC003FC00
003F8007F800
007F400BF400
007F400FF000
00BF001FE000
00BF002FD000
00BF003FC000
00BF40BF4000
007FEBFE0000
003FFFF80000
000AFF900000
ENDCHAR
STARTCHAR uni01DC
ENCODING 476
SWIDTH 505 0
DWIDTH 14 0
BBX 16 26 -1 0
BITMAP
000BD000
0007E000
0003E000
0002F000
0001F000
00000000
00000000
002E0B80
003F0FD0
002E0B80
00000000
00000000
07F81FE0
07F82FE0
0BF42FD0
0FF43FC0
0FF03FC0
1FE07F80
1FE0BF40
2FD0BF40
3FC0FF00
3FC1FF03
7FC3FE0A
3FEEFFBC
2FFCBFF4
0BE02F80
ENDCHAR
STARTCHAR uni01E4
ENCODING 484
SWIDTH 601 0
DWIDTH 17 0
BBX 17 27 0 -6
BITMAP
0001BF9000
002FFAFC00
00FF903E00
03FE002F00
0BFC003E00
1FF400BD00
2FE0001400
3FD0000000
7FC0000000
7FC000A800
7FC001FC00
7FC0BFFF40
7FC057F900
3FD00BF400
2FF46FF000
0BFFEFF000
02FF8FE000
00001FD000
00001FD000
00692FC000
03FF3F8000
0BD17F4000
0F407F0000
0F40FE0000
0B82F80000
03FFE00000
006A400000
ENDCHAR
STARTCHAR uni01E5
ENCODING 485
SWIDTH 507 0
DWIDTH 14 0
BBX 16 21 -1 -7
BITMAP
001BEBF4
00FFBFF0
02FC1FF0
0BF41FE0
0FE02FD0
2FD02FD0
3FC03FC0
3FC07F80
7F807F81
7F80BF43
7FC1FF0A
3FFFFF1C
2FFFFFB4
0BE6FF80
001FFD00
01FBFD00
1FFFFF80
079BF900
038FF000
03EFD000
00BE4000
ENDCHAR
STARTCHAR Gcaron
ENCODING 486
SWIDTH 578 0
DWIDTH 16 0
BBX 18 34 0 -6
BITMAP
00000D01A0
00000A1B40
000007FD00
000003F400
000002D000
0000014000
0000000000
0001BFA000
002FFAFC00
00FF903E00
03FE002F00
0BFC003E00
1FF400BD00
2FE0001400
3FD0000000
7FC0000000
7FC000A800
7FC001FC00
7FC002F800
7FC007F800
3FD00FF400
2FF46FF000
0BFFEFF000
02FF8FE000
00001FD000
00001FD000
00692FC000
03FF3F8000
0BD17F4000
0F407F0000
0F40FE0000
0B82F80000
03FFE00000
006A400000
ENDCHAR
STARTCHAR gcaron
ENCODING 487
SWIDTH 507 0
DWIDTH 14 0
BBX 16 28 -1 -7
BITMAP
0001801D
0000E1F4
0000BFC0
00007F00
00003800
00001000
00000000
001BEBF4
00FFBFF0
02FC1FF0
0BF41FE0
0FE02FD0
2FD02FD0
3FC03FC0
3FC07F80
7F807F81
7F80BF43
7FC1FF0A
3FFFFF1C
2FFFFFB4
0BE6FF80
001BFD00
00BFFC00
02D3FC00
0387F800
034BF400
03EFE000
00BE4000
ENDCHAR
STARTCHAR uni01E8
ENCODING 488
SWIDTH 601 0
DWIDTH 17 0
BBX 20 27 0 0
BITMAP
000000C01D
000000A1F4
0000007FC0
0000003E00
0000002800
0000000000
0006FC02F4
007FF807D0
03EBF81F40
1F8BF43E00
3E0FF0B800
7D0FF1E000
BC1FE7C000
B81FEF0000
B82FFD0000
283FFFE400
003FD7FC00
007F82FD00
00BF42FD00
00BF42FC00
00FF03FC00
01FE07F800
01FE07F400
02FD0BF000
03FD0FF000
03FC0FF000
07F807F400
ENDCHAR
STARTCHAR uni01E9
ENCODING 489
SWIDTH 518 0
DWIDTH 15 0
BBX 17 25 -1 0
BITMAP
0000A00A00
000075B800
00003FE000
00002F4000
00001D0000
0005000000
00FF000000
01FE000000
02FD000000
02FD000000
03FC000000
07FC07E000
07F81F4000
0BF4B80000
0BF6D00000
0FFFFD0000
1FFFFF4000
1FF4BF8000
2FD0BF8000
3FC0BF4000
3FC0BF4240
7F80FF0700
BF40FFAE00
BF40BFF800
FF002FD000
ENDCHAR
STARTCHAR uni01EA
ENCODING 490
SWIDTH 665 0
DWIDTH 19 0
BBX 19 34 0 -6
BITMAP
0000BD0000
00007D0000
00003E0000
00002E0000
00001F0000
0000000000
0000000000
0001AFE800
002FFAFF40
01FD041FD0
07E0BD0BE0
1F83F80BF0
3E0BF007F4
7D1FD007F4
BC3FC007F4
7C7F800BF4
2CFF400BF4
01FF000FF0
01FE000FE0
02FE001FD0
02FD002FC0
03FD007F80
03FD00BF40
03FD01FE00
02FD03FC00
01FF5FF000
00BFFF8000
001FF90000
000A000000
002D000000
003C000000
003E180000
002FF40000
0006800000
ENDCHAR
STARTCHAR uni01EB
ENCODING 491
SWIDTH 433 0
DWIDTH 12 0
BBX 17 20 -1 -6
BITMAP
001BE40000
00FFBC0000
03FC2D0000
0BF42E0640
1FE07FAD00
2FD07F9000
3FC02D0000
7FC03D0000
7F807C0000
BF80B80000
7F81F40000
7FD7E00000
2FFF800000
07F9000000
0740000000
1E00000000
2E00000000
2F49000000
1FF8000000
0690000000
ENDCHAR
STARTCHAR uni01EE
ENCODING 494
SWIDTH 525 0
DWIDTH 15 0
BBX 16 27 0 0
BITMAP
0000D01A
0000B1B4
00007FD0
00003F00
00002800
00000000
00BFFFFE
02FAABFC
03E00BF4
03E02FD0
01907F80
0001FF00
0003FD00
000BF400
001FF400
001FFF40
0005FFD0
00003FE0
00002FF0
00001FF0
00001FF0
2F002FF0
7E003FE0
7D007FC0
7E01FF40
2FEBF800
06FE9000
ENDCHAR
STARTCHAR uni01EF
ENCODING 495
SWIDTH 600 0
DWIDTH 17 0
BBX 14 27 0 -7
BITMAP
00240680
001D6E00
000FF400
000BD000
00074000
00000000
0BFFFC00
2FAFF400
3E0FF000
3D2FD000
043F8000
00BF4000
01FE0000
03FC0000
07F40000
07F80090
01FD00C0
00FF0280
00BF0B00
00BFB800
00BF9000
0BFF4000
7DBF4000
B0FF0000
E2FD0000
BBF80000
2F900000
ENDCHAR
STARTCHAR uni01F4
ENCODING 500
SWIDTH 578 0
DWIDTH 16 0
BBX 16 34 0 -6
BITMAP
0000007E
000000BC
000000F4
000002E0
000003D0
00000540
00000000
0001BF90
002FFAFD
00FF903E
03FE003F
0BFC007E
1FF400B9
2FE00000
3FD00000
7FC00000
7FC001FC
7FC001FC
7FC003F8
7FC007F8
3FD00FF4
2FF47FF0
0BFFEFF0
02FF8FE0
00001FD0
00001FD0
00692FC0
03FF3F80
0BD17F40
0F407F00
0F40FD00
0B82F800
03FFE000
006A4000
ENDCHAR
STARTCHAR uni01F5
ENCODING 501
SWIDTH 507 0
DWIDTH 14 0
BBX 16 28 -1 -7
BITMAP
00000BC0
00001F40
00002E00
00007D00
0000B800
00005000
00000000
001BEBF4
00FFBFF0
02FC1FF0
0BF41FE0
0FE02FD0
2FD02FD0
3FC03FC0
3FC07F80
7F807F81
7F80BF43
7FC1FF0A
3FFFFF1C
2FFFFFB4
0BE6FF80
001BFD00
00BFFC00
02D3FC00
0387F800
034BF400
03EFE000
00BE4000
ENDCHAR
STARTCHAR Aringacute
ENCODING 506
SWIDTH 668 0
DWIDTH 19 0
BBX 22 31 0 -3
BITMAP
000000000190
0000000007D0
000000000F40
000000007E00
00000001EE00
00000001CA00
00000001EE00
00000001FC00
0000001FFD00
000000BBFC00
000002D7F800
00000B4BF800
00001E0BF400
00007D0FF000
0000F80FF000
01AAF41FE000
1FFFFFAFD000
7F4BC1BFD000
BD1F803FC000
BD3F407F8000
147F007F8000
00BE00BF4000
01FD00FF4000
02FC00FF0000
03F801FE0000
07F402FE0000
07F002FD0000
0BF003FC0000
0BE000000000
07E000000000
01F000000000
ENDCHAR
STARTCHAR aringacute
ENCODING 507
SWIDTH 526 0
DWIDTH 15 0
BBX 17 23 -1 0
BITMAP
0000028000
00000B8000
00000F0000
00006D0000
0000D60000
0001830000
0001C60000
0000B80000
0000000000
001BEBF400
00FFBFF000
02FD1FF000
0BF41FE000
0FF02FD000
2FD02FD000
3FD03FC000
3FC07F8000
7FC07F8000
7F80BF4180
7FC1FF4340
3FEBFFEE00
2FFE7FF800
0BE41F9000
ENDCHAR
STARTCHAR AEacute
ENCODING 508
SWIDTH 764 0
DWIDTH 21 0
BBX 26 31 0 -3
BITMAP
00000000006400
0000000001F400
0000000002E000
0000000007C000
000000000B0000
00000000050000
00000000000000
00000006F80010
0000002FFF41D0
000000B7FFFFC0
000003D7FFFF40
00000B4BF86A00
00002E0BF40000
00007C0FF40000
0000F41FF00000
01AAF41FE00000
1FFFFFAFFFE000
7E4BC1BFFFD000
BD1F803FC00000
7D3F407F800000
007F007F800000
00BE00BF400000
01FD00FF000000
02FC00FF000000
03F801FE000000
07F402FFFFE000
07F002FFFFE000
0BF003FFFFD000
0BE00000000000
07E00000000000
02E00000000000
ENDCHAR
STARTCHAR aeacute
ENCODING 509
SWIDTH 650 0
DWIDTH 18 0
BBX 20 21 -1 0
BITMAP
0000000FC0
0000001F40
0000002E00
0000007C00
000000B400
0000005000
0000000000
001BF82FE0
00FAFFFEF4
02807FF878
00003FE0B8
00003FD0F4
00007FC2F0
01BFFF9BD0
0FFEFFFE00
2FD0FFA400
3F81FF4002
7FC2FF4009
3FFFBF8074
2FFD3FEBD0
0BE40BF900
ENDCHAR
STARTCHAR Oslashacute
ENCODING 510
SWIDTH 658 0
DWIDTH 18 0
BBX 18 30 0 -2
BITMAP
0000000690
0000000BC0
0000001F40
0000002E00
0000007C00
0000006400
0000000000
000000A000
000000E000
0005BFF400
006E41FE00
02E0BADF80
0F87F38FD0
2E0FD34FE0
7D2FC74FE0
BC7F8B0FE0
7CBF0A0FE0
28FF0E1FE0
01FE0D1FD0
02FD1C2FC0
03FC2C3F80
03FC287F40
03FC34FF00
03FC75FD00
03FC77F800
02FEBFF000
00FFFF8000
002FF90000
0001D00000
0001C00000
ENDCHAR
STARTCHAR oslashacute
ENCODING 511
SWIDTH 428 0
DWIDTH 12 0
BBX 15 23 -2 -2
BITMAP
000003F0
000007D0
00000F80
00001F00
00003D00
00001400
00000000
0006F928
002FEFB0
00BF4BD0
02FD07C0
07FC1FC0
0BF43F80
0FF0EB80
1FF38F80
1FFE1F40
1FF83E00
1FF4BD00
0FFFF800
0BFFE000
1EBE4000
78000000
50000000
ENDCHAR
STARTCHAR uni0200
ENCODING 512
SWIDTH 668 0
DWIDTH 19 0
BBX 20 30 0 -3
BITMAP
00000BC7E0
000003E1F0
000001F0B8
000000782C
0000002C0E
0000000000
00000006FD
0000002FFC
000000BBFC
000002D7F8
00000B4BF8
00002E0BF4
00007D0FF0
0000F80FF0
01AAF41FE0
1FFFFFAFD0
7F4BC1BFD0
BD1F803FC0
BD3F407F80
147F007F80
00BE00BF40
01FD00FF00
02FC00FF00
03F801FE00
07F402FE00
07F002FD00
0BF003FC00
0BE0000000
07E0000000
01F0000000
ENDCHAR
STARTCHAR uni0201
ENCODING 513
SWIDTH 526 0
DWIDTH 15 0
BBX 17 21 -1 0
BITMAP
02F4F80000
00B87D0000
003D1E0000
001E0B4000
0007438000
0000000000
0000000000
001BEBF400
00FFBFF000
02FD1FF000
0BF41FE000
0FF02FD000
2FD02FD000
3FD03FC000
3FC07F8000
7FC07F8000
7F80BF4180
7FC1FF4340
3FEBFFEE00
2FFE7FF800
0BE41F9000
ENDCHAR
STARTCHAR uni0202
ENCODING 514
SWIDTH 668 0
DWIDTH 19 0
BBX 23 30 0 -3
BITMAP
000000006A40
0000000BFFE0
0000002F42F4
0000007D00F8
000000000000
000000000000
00000006FD00
0000002FFC00
000000BBFC00
000002D7F800
00000B4BF800
00002E0BF400
00007D0FF000
0000F80FF000
01AAF41FE000
1FFFFFAFD000
7F4BC1BFD000
BD1F803FC000
BD3F407F8000
147F007F8000
00BE00BF4000
01FD00FF0000
02FC00FF0000
03F801FE0000
07F402FE0000
07F002FD0000
0BF003FC0000
0BE000000000
07E000000000
01F000000000
ENDCHAR
STARTCHAR uni0203
ENCODING 515
SWIDTH 526 0
DWIDTH 15 0
BBX 17 19 -1 0
BITMAP
0001BF8000
001FEBF000
003E01F400
006800A400
0000000000
001BEBF400
00FFBFF000
02FD1FF000
0BF41FE000
0FF02FD000
2FD02FD000
3FD03FC000
3FC07F8000
7FC07F8000
7F80BF4180
7FC1FF4340
3FEBFFEE00
2FFE7FF800
0BE41F9000
ENDCHAR
STARTCHAR uni0204
ENCODING 516
SWIDTH 459 0
DWIDTH 13 0
BBX 14 28 0 0
BITMAP
02F4F800
00B87D00
003D1E00
001E0B40
00074380
00000000
00000000
0001BE40
001FEBD0
003F42E0
00BE01E0
00FD02E0
01FD07C0
01FD0000
00FE0000
007F8000
00BF9000
07FE0000
0FF80000
2FF00000
7FD00000
BFD00000
BFC00050
BFD000C0
BFE00B40
7FFFFE00
2FFFF400
06FE4000
ENDCHAR
STARTCHAR uni0205
ENCODING 517
SWIDTH 384 0
DWIDTH 11 0
BBX 13 21 -1 0
BITMAP
1F4BC000
0BC3D000
02D1F000
00F07800
00742C00
00000000
00000000
001BE400
00BFBC00
02FC3D00
0BF43D00
0FF07C00
2FD0F400
3FD7E000
3FFF8000
7FE40000
7F800140
7FC00A00
3FE5B800
2FFFE000
06FE4000
ENDCHAR
STARTCHAR uni0206
ENCODING 518
SWIDTH 459 0
DWIDTH 13 0
BBX 16 27 0 0
BITMAP
00006FE0
0002FAFC
000BC07E
001F402E
00000000
00000000
0001BE40
001FEBD0
003F42E0
00BE01E0
00FD02E0
01FD07C0
01FD0000
00FE0000
007F8000
00BF9000
07FE0000
0FF80000
2FF00000
7FD00000
BFD00000
BFC00050
BFD000C0
BFE00B40
7FFFFE00
2FFFF400
06FE4000
ENDCHAR
STARTCHAR uni0207
ENCODING 519
SWIDTH 384 0
DWIDTH 11 0
BBX 13 19 -1 0
BITMAP
002BF800
01FEBF00
07E01F40
06800A40
00000000
001BE400
00BFBC00
02FC3D00
0BF43D00
0FF07C00
2FD0F400
3FD7E000
3FFF8000
7FE40000
7F800140
7FC00A00
3FE57800
2FFFE000
06FE4000
ENDCHAR
STARTCHAR uni0208
ENCODING 520
SWIDTH 375 0
DWIDTH 11 0
BBX 12 28 0 0
BITMAP
0BC7D0
03D2F0
01F0B4
00743C
002C1E
000000
000000
0006FC
007FF8
02EBF8
0F8BF4
3E0FF0
7D0FF0
BC1FE0
B81FE0
B82FD0
2C3FC0
003FC0
007F80
00BF40
00BF40
00FF00
01FE00
01FE00
02FD00
03FD00
03FC00
07F800
ENDCHAR
STARTCHAR uni0209
ENCODING 521
SWIDTH 267 0
DWIDTH 7 0
BBX 12 21 -3 0
BITMAP
7D2F00
2F0F40
0B47C0
03C1D0
01D0B0
000000
000000
007F80
007F80
00BF40
00FF40
00FF00
01FE00
01FE00
02FD00
03FC00
03FC09
07FC1C
03FEB4
02FFD0
00BE40
ENDCHAR
STARTCHAR uni020A
ENCODING 522
SWIDTH 375 0
DWIDTH 11 0
BBX 14 27 0 0
BITMAP
0001A900
001FFFC0
007D07E0
00F402F0
00000000
00000000
0006FC00
007FF800
02EBF800
0F8BF400
3E0FF000
7D0FF000
BC1FE000
B81FE000
B82FD000
283FC000
003FC000
007F8000
00BF4000
00BF4000
00FF0000
01FE0000
01FE0000
02FD0000
03FD0000
03FC0000
07F80000
ENDCHAR
STARTCHAR uni020B
ENCODING 523
SWIDTH 267 0
DWIDTH 7 0
BBX 10 19 -1 0
BITMAP
02FE00
0FEFC0
2D03D0
280190
000000
07F800
07F800
0BF400
0FF400
0FF000
1FE000
1FE000
2FD000
3FC000
3FC090
7FC1C0
3FEB40
2FFD00
0BE400
ENDCHAR
STARTCHAR uni020C
ENCODING 524
SWIDTH 665 0
DWIDTH 19 0
BBX 19 28 0 0
BITMAP
001F4BC000
000BC3E000
0002E1F000
0000F07800
0000782C00
0000000000
0000000000
0001AFE800
002FFAFF40
01FD041FD0
07E0BD0BE0
1F83F80BF0
3E0BF007F4
7D1FD007F4
BC3FC007F4
7C7F800BF4
2CFF400BF4
01FF000FF0
01FE000FE0
02FE001FD0
02FD002FD0
03FD007F80
03FD00BF40
03FD01FE00
02FD03FC00
01FF5FF000
00BFFF8000
001BF90000
ENDCHAR
STARTCHAR uni020D
ENCODING 525
SWIDTH 433 0
DWIDTH 12 0
BBX 17 21 -1 0
BITMAP
1F4FC00000
0B87D00000
03D1F00000
01E0B40000
00742C0000
0000000000
0000000000
001BE40000
00FFBC0000
03FC2D0000
0BF42E0640
1FE07FBD00
2FD07F9000
3FC03D0000
7F803D0000
7F807C0000
BF80B80000
7F81F40000
7FEBE00000
2FFF800000
07F9000000
ENDCHAR
STARTCHAR uni020E
ENCODING 526
SWIDTH 665 0
DWIDTH 19 0
BBX 19 27 0 0
BITMAP
000001A900
00001BFFD0
00003E47F0
0000B801F4
0000000000
0000000000
0001AFE800
002FFAFF40
01FD041FD0
07E0BD0BE0
1F83F80BF0
3E0BF007F4
7D1FD007F4
BC3FC007F4
7C7F800BF4
2CFF400BF4
01FF000FF0
01FE000FE0
02FE001FD0
02FD002FD0
03FD007F80
03FD00BF40
03FD01FE00
02FD03FC00
01FF5FF000
00BFFF8000
001BF90000
ENDCHAR
STARTCHAR uni020F
ENCODING 527
SWIDTH 433 0
DWIDTH 12 0
BBX 17 19 -1 0
BITMAP
001BF90000
00BFBF8000
01F40BC000
0290068000
0000000000
001BE40000
00FFBC0000
03FC2D0000
0BF42E0640
1FE07FAD00
2FD07F9000
3FC02D0000
7FC03D0000
7F807C0000
BF80B80000
7F81F40000
7FD7E00000
2FFF800000
07F9000000
ENDCHAR
STARTCHAR uni0210
ENCODING 528
SWIDTH 601 0
DWIDTH 17 0
BBX 17 28 0 0
BITMAP
01F4BC0000
00BC3D0000
002D1F0000
000F078000
000782C000
0000000000
0000000000
0006FF9000
007FEBF800
03F4007E00
1F86B42F40
3E0BF42F40
7D0FF02F40
BC1FE03E00
B81FE0BD00
782FD6F400
183FFFE400
003FC3FC00
007F82FD00
00BF42FD00
00BF42FC00
00FF03FC00
01FE07F800
01FE07F400
02FD0BF000
03FD0FF000
03FC0FF000
07F807F400
ENDCHAR
STARTCHAR uni0211
ENCODING 529
SWIDTH 376 0
DWIDTH 11 0
BBX 12 21 -1 0
BITMAP
BD3E00
2E1F40
0F4780
0782D0
01D0E0
000000
000000
07F8BD
07FFFE
0BFDBE
0FF43D
0FF000
1FE000
1FE000
2FD000
3FC000
3FC000
7F8000
BF4000
BF4000
FF0000
ENDCHAR
STARTCHAR uni0212
ENCODING 530
SWIDTH 601 0
DWIDTH 17 0
BBX 17 27 0 0
BITMAP
00006FE400
0002FAFC00
000BC07E00
001F402E00
0000000000
0000000000
0006FF9000
007FEBF800
03F4007E00
1F86B42F40
3E0BF42F40
7D0FF02F40
BC1FE03E00
B81FE0BD00
782FD6F400
183FFFE400
003FC3FC00
007F82FD00
00BF42FD00
00BF42FC00
00FF03FC00
01FE07F800
01FE07F400
02FD0BF000
03FD0FF000
03FC0FF000
07F807F400
ENDCHAR
STARTCHAR uni0213
ENCODING 531
SWIDTH 376 0
DWIDTH 11 0
BBX 13 19 -1 0
BITMAP
001BF800
01FEBF00
03E01F80
06800640
00000000
07F8BD00
07FFFE00
0BFDBE00
0FF43D00
0FF00000
1FE00000
1FE00000
2FD00000
3FC00000
3FC00000
7F800000
BF400000
BF400000
FF000000
ENDCHAR
STARTCHAR uni0214
ENCODING 532
SWIDTH 716 0
DWIDTH 20 0
BBX 21 28 0 0
BITMAP
0000F87D0000
00007D2F0000
00001E0B4000
00000B43C000
000002C1D000
000000000000
000000000000
0006FE003FC0
00BFFD003FC0
07D2FC007F80
1F43FC00BF40
7D07F800BF40
BC0BF400FF00
F80BF001FE00
F80FE001FE00
F41FE002FD00
682FD003FC00
002FC003FC00
003F8007F800
007F400BF400
007F400FF000
00BF001FE000
00BF002FD000
00BF003FC000
00BF40BF4000
007FEBFE0000
003FFFF80000
000AFF900000
ENDCHAR
STARTCHAR uni0215
ENCODING 533
SWIDTH 505 0
DWIDTH 14 0
BBX 16 21 -1 0
BITMAP
0F8BD000
07D2E000
01E0F400
00B47800
00381D00
00000000
00000000
07F81FE0
07F82FE0
0BF42FD0
0FF43FC0
0FF03FC0
1FE07F80
1FE0BF40
2FD0BF40
3FC0FF00
3FC1FF03
7FC3FE0A
3FEEFFBC
2FFCBFF4
0BE02F80
ENDCHAR
STARTCHAR uni0216
ENCODING 534
SWIDTH 716 0
DWIDTH 20 0
BBX 21 27 0 0
BITMAP
0000001A9000
000001FFFC00
000007D07E00
00000F402F00
000000000000
000000000000
0006FE003FC0
00BFFD003FC0
07D2FC007F80
1F43FC00BF40
7D07F800BF40
BC0BF400FF00
F80BF001FE00
F80FE001FE00
F41FE002FD00
682FD003FC00
002FC003FC00
003F8007F800
007F400BF400
007F400FF000
00BF001FE000
00BF002FD000
00BF003FC000
00BF40BF4000
007FEBFE0000
003FFFF80000
000AFF900000
ENDCHAR
STARTCHAR uni0217
ENCODING 535
SWIDTH 505 0
DWIDTH 14 0
BBX 16 19 -1 0
BITMAP
0006FE00
007FAFC0
00F807D0
01A00290
00000000
07F81FE0
07F82FE0
0BF42FD0
0FF43FC0
0FF03FC0
1FE07F80
1FE0BF40
2FD0BF40
3FC0FF00
3FC1FF03
7FC3FE0A
3FEEFFBC
2FFCBFF4
0BE02F80
ENDCHAR
STARTCHAR Scommaaccent
ENCODING 536
SWIDTH 570 0
DWIDTH 16 0
BBX 15 28 1 -7
BITMAP
0006FE40
003FEBE0
00FF02F4
01FD01F4
02FD01F4
02FE03F0
01FF0190
00FF8000
007FE000
002FF800
000BFE00
0002FF40
0B90FF80
3FF07FD0
BF403FD0
FD003FD0
FC003FC0
FD007F80
7F41FF00
2FFFF800
06FF9000
00000000
00500000
01F40000
01F80000
00B00000
00D00000
00400000
ENDCHAR
STARTCHAR scommaaccent
ENCODING 537
SWIDTH 382 0
DWIDTH 11 0
BBX 13 22 -1 -7
BITMAP
00158000
007FD000
00BFD000
00FFD000
01EFD000
02AFD000
036FE000
0A2FE000
1D1FE000
7D1FE000
BD1FE240
E41FFD00
B02FE000
7EFF4000
1BF90000
00000000
01400000
0BD00000
07D00000
02C00000
07400000
05000000
ENDCHAR
STARTCHAR uni021A
ENCODING 538
SWIDTH 481 0
DWIDTH 13 0
BBX 20 28 0 -7
BITMAP
001BFE4001
01FFFFF907
0BE5BFFFFE
2F40FFFFFD
3E00FFABE4
7C01FF0000
BC02FE0000
B802FE0000
B803FD0000
7807FC0000
1807FC0000
000BF80000
000BF40000
000FF00000
001FF00000
001FE00000
002FD00000
003FD00000
003FC00000
007F800000
00BF800000
0000000000
0000000000
003D000000
007E000000
002D000000
0028000000
0060000000
ENDCHAR
STARTCHAR uni021B
ENCODING 539
SWIDTH 267 0
DWIDTH 7 0
BBX 10 26 -1 -7
BITMAP
000100
01FE00
02FD00
02FD00
03FC00
0FFF80
0BFE40
0BF800
0BF400
0FF000
1FF000
1FE000
2FD000
3FD000
3FC090
7FC1C0
3FEB40
2FFE00
0BE400
000000
150000
3F0000
2F0000
0E0000
180000
100000
ENDCHAR
STARTCHAR uni021E
ENCODING 542
SWIDTH 665 0
DWIDTH 19 0
BBX 20 27 0 0
BITMAP
000000C01D
000000A1F4
0000007FC0
0000003E00
0000002800
0000000000
0006FD02FD
006FFC03FC
02FFF803FC
0BD7F807F8
2F4BF407F4
3E0BF40BF4
7D0FF00FF0
BC1FE00FF0
BC1FE01FE0
3C2FFFFFD0
043FFFFFD0
003FC03FC0
007F803F80
00BF807F80
00BF40BF40
00FF00BF00
01FF00FF00
01FE01FE00
02FD01FE00
03FC02FD00
03FC03FC00
ENDCHAR
STARTCHAR uni021F
ENCODING 543
SWIDTH 600 0
DWIDTH 17 0
BBX 17 25 -1 0
BITMAP
0000340640
00002C7D00
00001FF400
00000F8000
00000A0000
0005000000
00FF000000
01FE000000
02FE000000
02FD000000
03FC000000
03FCBE0000
07FFFF8000
0BFFFFC000
0BF83FC000
0FF43FC000
1FF03F8000
1FE07F4000
2FD0BF0000
3FD0BF0000
3FC0FE0700
7F80FE0A00
BF80FFFC00
BF40BFF400
FF002F9000
ENDCHAR
STARTCHAR uni0237
ENCODING 567
SWIDTH 240 0
DWIDTH 7 0
BBX 14 21 -6 -7
BITMAP
0001FF00
0001FE00
0002FD00
0002FD00
0003FC00
0007F800
0007F800
000BF400
000FF400
000FF060
001FE090
002FE1C0
002FD740
003FE800
01BFC000
0BFF8000
3EBF4000
B4BF4000
B1FE0000
7BFC0000
1FE00000
ENDCHAR
STARTCHAR uni0259
ENCODING 601
SWIDTH 404 0
DWIDTH 11 0
BBX 11 14 0 0
BITMAP
06FE40
1FFFE0
2D5FF4
0007F8
0007F8
006BF8
07FFF8
1F8BF4
7D0FF0
B81FE0
F43FC0
F4BF40
BEFD00
2F9000
ENDCHAR
STARTCHAR uni0292
ENCODING 658
SWIDTH 442 0
DWIDTH 12 0
BBX 14 21 0 -7
BITMAP
0BFFFC00
2FAFF400
3E0FF000
3D2FD000
043F8000
00BF4000
01FE0000
03FC0000
07F40000
07F80090
01FD00C0
00FF0280
00BF0B00
00BFB800
00BF9000
0BFF4000
7DBF4000
B0FF0000
E2FD0000
BBF80000
2F900000
ENDCHAR
STARTCHAR uni02BB
ENCODING 699
SWIDTH 241 0
DWIDTH 7 0
BBX 5 7 3 14
BITMAP
0100
0A00
1C00
3D00
7F00
7F40
2E00
ENDCHAR
STARTCHAR uni02BC
ENCODING 700
SWIDTH 228 0
DWIDTH 6 0
BBX 4 6 4 15
BITMAP
7C
BE
7D
2C
34
50
ENDCHAR
STARTCHAR circumflex
ENCODING 710
SWIDTH 293 0
DWIDTH 8 0
BBX 8 5 0 15
BITMAP
0028
00BC
03FD
1F4E
7403
ENDCHAR
STARTCHAR caron
ENCODING 711
SWIDTH 294 0
DWIDTH 8 0
BBX 8 5 3 15
BITMAP
C01D
A1F4
7FC0
3E00
2800
ENDCHAR
STARTCHAR uni02C9
ENCODING 713
SWIDTH 421 0
DWIDTH 12 0
BBX 10 2 3 16
BITMAP
2AAAA0
7FFFE0
ENDCHAR
STARTCHAR uni02CA
ENCODING 714
SWIDTH 256 0
DWIDTH 7 0
BBX 6 5 3 15
BITMAP
07D0
0F80
1E00
3C00
7400
ENDCHAR
STARTCHAR uni02CB
ENCODING 715
SWIDTH 274 0
DWIDTH 8 0
BBX 4 5 4 15
BITMAP
7D
3E
2E
0F
0B
ENDCHAR
STARTCHAR breve
ENCODING 728
SWIDTH 431 0
DWIDTH 12 0
BBX 10 4 2 16
BITMAP
F402F0
F807D0
7FBF80
1BF900
ENDCHAR
STARTCHAR dotaccent
ENCODING 729
SWIDTH 250 0
DWIDTH 7 0
BBX 5 4 1 16
BITMAP
2F40
7FC0
7FC0
2F40
ENDCHAR
STARTCHAR ring
ENCODING 730
SWIDTH 156 0
DWIDTH 4 0
BBX 5 5 0 15
BITMAP
1900
BF00
E340
FB40
7D00
ENDCHAR
STARTCHAR ogonek
ENCODING 731
SWIDTH 291 0
DWIDTH 8 0
BBX 7 7 1 -6
BITMAP
0500
1D00
7800
B800
B814
7FB0
2F80
ENDCHAR
STARTCHAR tilde
ENCODING 732
SWIDTH 403 0
DWIDTH 11 0
BBX 11 3 1 16
BITMAP
0BF904
3FFFF8
41BF90
ENDCHAR
STARTCHAR hungarumlaut
ENCODING 733
SWIDTH 436 0
DWIDTH 12 0
BBX 10 5 2 16
BITMAP
07E2F0
0B87D0
1F0B80
2D1E00
742C00
ENDCHAR
STARTCHAR gravecomb
ENCODING 768
SWIDTH 0 0
DWIDTH 0 0
BBX 4 5 -5 15
BITMAP
BC
7D
3D
1E
0E
ENDCHAR
STARTCHAR acutecomb
ENCODING 769
SWIDTH 0 0
DWIDTH 0 0
BBX 6 5 -6 15
BITMAP
07E0
0B80
1F00
2D00
7400
ENDCHAR
STARTCHAR uni0302
ENCODING 770
SWIDTH 0 0
DWIDTH 0 0
BBX 9 5 -8 15
BITMAP
001C00
00BD00
02FE00
0F8B00
780240
ENDCHAR
STARTCHAR tildecomb
ENCODING 771
SWIDTH 0 0
DWIDTH 0 0
BBX 11 3 -10 16
BITMAP
1BF904
7FFFF4
41BF80
ENDCHAR
STARTCHAR uni0304
ENCODING 772
SWIDTH 0 0
DWIDTH 0 0
BBX 10 2 -9 16
BITMAP
2AAAA0
7FFFE0
ENDCHAR
STARTCHAR uni0306
ENCODING 774
SWIDTH 0 0
DWIDTH 0 0
BBX 10 4 -9 16
BITMAP
F801F0
BC07E0
7FAF80
1BF900
ENDCHAR
STARTCHAR uni0307
ENCODING 775
SWIDTH 0 0
DWIDTH 0 0
BBX 5 4 -4 16
BITMAP
2F40
7FC0
7FC0
2F40
ENDCHAR
STARTCHAR uni0308
ENCODING 776
SWIDTH 0 0
DWIDTH 0 0
BBX 9 3 -8 16
BITMAP
7D0F40
BE2F80
7D1F40
ENDCHAR
STARTCHAR hookabovecomb
ENCODING 777
SWIDTH 0 0
DWIDTH 0 0
BBX 6 6 -6 15
BITMAP
BE40
EBC0
02D0
1780
7E00
7400
ENDCHAR
STARTCHAR uni030A
ENCODING 778
SWIDTH 0 0
DWIDTH 0 0
BBX 5 5 -4 15
BITMAP
1A00
3F80
7280
7B80
2E00
ENDCHAR
STARTCHAR uni030B
ENCODING 779
SWIDTH 0 0
DWIDTH 0 0
BBX 11 5 -9 16
BITMAP
03E2F4
0B83D0
0F0B80
2D0E00
782C00
ENDCHAR
STARTCHAR uni030C
ENCODING 780
SWIDTH 0 0
DWIDTH 0 0
BBX 8 5 -7 15
BITMAP
600A
34B8
2FE0
1F40
0D00
ENDCHAR
STARTCHAR uni030F
ENCODING 783
SWIDTH 0 0
DWIDTH 0 0
BBX 11 5 -10 16
BITMAP
7E2F40
1F0B80
0B83D0
02D1E0
00E074
ENDCHAR
STARTCHAR uni0311
ENCODING 785
SWIDTH 0 0
DWIDTH 0 0
BBX 11 5 -10 15
BITMAP
006A40
0BFFD0
2F42F0
7C01F4
540054
ENDCHAR
STARTCHAR uni031B
ENCODING 795
SWIDTH 0 0
DWIDTH 0 0
BBX 4 6 -3 12
BITMAP
2D
2E
2D
3C
B4
D0
ENDCHAR
STARTCHAR dotbelowcomb
ENCODING 803
SWIDTH 0 0
DWIDTH 0 0
BBX 5 4 -5 -6
BITMAP
7D00
FF40
FF40
7D00
ENDCHAR
STARTCHAR uni0324
ENCODING 804
SWIDTH 0 0
DWIDTH 0 0
BBX 9 3 -13 -6
BITMAP
2E0B80
7F0FC0
2E0B80
ENDCHAR
STARTCHAR uni0326
ENCODING 806
SWIDTH 0 0
DWIDTH 0 0
BBX 4 5 -7 -7
BITMAP
78
BD
3C
38
60
ENDCHAR
STARTCHAR uni0327
ENCODING 807
SWIDTH 0 0
DWIDTH 0 0
BBX 7 7 -10 -6
BITMAP
0A00
0D00
1D50
2FF0
12F4
92F0
7F80
ENDCHAR
STARTCHAR uni0328
ENCODING 808
SWIDTH 0 0
DWIDTH 0 0
BBX 6 7 -10 -6
BITMAP
0500
2C00
7400
F400
F810
BEA0
2F80
ENDCHAR
STARTCHAR uni032E
ENCODING 814
SWIDTH 0 0
DWIDTH 0 0
BBX 9 4 -12 -6
BITMAP
A40640
BEAF00
2FF800
010000
ENDCHAR
STARTCHAR uni0331
ENCODING 817
SWIDTH 0 0
DWIDTH 0 0
BBX 10 2 -13 -5
BITMAP
6AAA90
BFFFD0
ENDCHAR
STARTCHAR uni0335
ENCODING 821
SWIDTH 0 0
DWIDTH 0 0
BBX 10 2 -11 7
BITMAP
6AAAA0
BFFFE0
ENDCHAR
STARTCHAR uni0394
ENCODING 916
SWIDTH 619 0
DWIDTH 17 0
BBX 17 21 0 0
BITMAP
000003F400
00000BF400
00001FF800
00002EF800
00007CFC00
0000F8BC00
0001F0BD00
0003D0BD00
000B807D00
001F407E00
002E003E00
007C003F00
00F8002F00
02F0002F40
03D0002F40
0BC0001F80
1F40001F80
2E00000FC0
7D00001FC0
BFFFFFFFC0
BFFFFFFFC0
ENDCHAR
STARTCHAR uni03A9
ENCODING 937
SWIDTH 745 0
DWIDTH 21 0
BBX 19 21 1 0
BITMAP
00006FFD00
0002FFFF80
001FD01BE0
007E0003F0
00F80001F4
02F00000F8
07D00000F8
0B800000F8
0F400000F8
1F400000F4
1F000001F0
1F000002E0
1F000003D0
1F000007C0
0F40000F40
0B80002E00
07C0007800
02E001E000
00B80B9000
FFF81FFFC0
FFF81FFFC0
ENDCHAR
STARTCHAR uni03BC
ENCODING 956
SWIDTH 505 0
DWIDTH 14 0
BBX 17 19 -2 -5
BITMAP
01FE07F800
01FE0BF800
02FD0BF400
03FD0FF000
03FC0FF000
07F81FE000
07F82FD000
0BF42FD000
0FF03FC000
0FF07F80C0
1FF0FF8280
2FFFBFFF00
2FFF2FFD00
3FF80BE400
3FC0000000
7F80000000
BF40000000
BE00000000
5000000000
ENDCHAR
STARTCHAR pi
ENCODING 960
SWIDTH 530 0
DWIDTH 15 0
BBX 16 15 -1 -1
BITMAP
3FFFFFFE
7FFFFFFE
02E00B80
03D00F40
03C00F00
07C01F00
0B802E00
0B402E00
0F403D00
0F007C00
1F007C00
2E00B800
2D00B800
3D007E00
14000000
ENDCHAR
STARTCHAR uni0400
ENCODING 1024
SWIDTH 459 0
DWIDTH 13 0
BBX 14 27 0 0
BITMAP
0001F400
0000F800
0000B800
00003C00
00002C00
00000000
0001BE40
001FEBD0
003F42E0
00BE01E0
00FD02E0
01FD07C0
01FD0000
00FE0000
007F8000
00BF9000
07FE0000
0FF80000
2FF00000
7FD00000
BFD00000
BFC00050
BFD000C0
BFE00B40
7FFFFE00
2FFFF400
06FE4000
ENDCHAR
STARTCHAR uni0401
ENCODING 1025
SWIDTH 459 0
DWIDTH 13 0
BBX 15 26 0 0
BITMAP
0002D0B4
0007F1FC
0002D0B4
00000000
00000000
0001BE40
001FEBD0
003F42E0
00BE01E0
00FD02E0
01FD07C0
01FD0000
00FE0000
007F8000
00BF9000
07FE0000
0FF80000
2FF00000
7FD00000
BFD00000
BFC00050
BFD000C0
BFE00B40
7FFFFE00
2FFFF400
06FE4000
ENDCHAR
STARTCHAR uni0402
ENCODING 1026
SWIDTH 725 0
DWIDTH 20 0
BBX 21 27 0 -6
BITMAP
001AFFA40640
01FFFFFFFF00
0BE5BFFFFE00
1F40BF5AE800
3E00FF400000
7D00FF000000
BC01FE000000
BC02FE000000
BC02FD000000
7C03FD6A4000
1807FFFFD000
0007FD1FF000
000BF80BF400
000FF40BF400
000FF00BF400
001FF00FF000
001FE00FF000
002FD01FE000
003FC02FD000
003FC03FC000
007F807F8000
000000BF4000
000001FE0000
000147FD0000
0001FFF40000
0001FFD00000
00006A400000
ENDCHAR
STARTCHAR uni0403
ENCODING 1027
SWIDTH 400 0
DWIDTH 11 0
BBX 18 27 0 0
BITMAP
0000000FC0
0000001F40
0000003D00
0000007800
000000E000
0000000000
001AFFFFE0
01FFFFFFD0
0BD7FEBF80
2F07F80000
3E0BF40000
7D0FF00000
BD0FF00000
BD1FE00000
7D2FD00000
192FD00000
003FC00000
003FC00000
007F800000
00BF400000
00BF400000
00FF000000
01FE000000
01FE000000
02FD000000
03FD000000
03FC000000
ENDCHAR
STARTCHAR uni0404
ENCODING 1028
SWIDTH 497 0
DWIDTH 14 0
BBX 15 21 0 0
BITMAP
0001BF80
001FFAF4
007FD0B8
01FF407C
03FE00BC
07FC01F8
0FF80050
1FF40000
2FFAA900
2FFFFC00
3FD00000
7FD00000
7FD00000
7FD00000
7FD00000
7FD00014
7FE00074
3FF402E0
2FFFFF80
0BFFFD00
01BF9000
ENDCHAR
STARTCHAR uni0405
ENCODING 1029
SWIDTH 570 0
DWIDTH 16 0
BBX 15 21 1 0
BITMAP
0006FE40
003FEBE0
00FF02F4
01FD01F4
02FD01F4
02FE03F0
01FF0190
00FF8000
007FE000
002FF800
000BFE00
0002FF40
0B90FF80
3FF07FD0
BF403FD0
FD003FD0
FC003FC0
FD007F80
7F41FF00
2FFFF800
06FF9000
ENDCHAR
STARTCHAR uni0406
ENCODING 1030
SWIDTH 374 0
DWIDTH 10 0
BBX 12 21 0 0
BITMAP
0006FD
007FFC
02E7F8
0B87F8
2F0BF4
7D0FF0
BC0FF0
BC1FE0
7C2FD0
2C2FD0
003FC0
007FC0
007F80
00BF40
00BF40
00FF00
01FE00
01FE00
02FD00
03FC00
03FC00
ENDCHAR
STARTCHAR uni0407
ENCODING 1031
SWIDTH 375 0
DWIDTH 11 0
BBX 14 26 0 0
BITMAP
001F47D0
002F8BE0
001F47D0
00000000
00000000
0006FC00
007FF800
02EBF800
0F8BF400
3E0FF000
7D0FF000
BC1FE000
B81FE000
B82FD000
283FC000
003FC000
007F8000
00BF4000
00BF4000
00FF0000
01FE0000
01FE0000
02FD0000
03FD0000
03FC0000
07F80000
ENDCHAR
STARTCHAR uni0408
ENCODING 1032
SWIDTH 536 0
DWIDTH 15 0
BBX 16 27 0 -6
BITMAP
000001BF
00001FFF
0000BAFE
0002E2FD
000BC2FD
001F43FC
002F07F8
002F07F8
002F0BF4
000B0FF4
00000FF0
00001FE0
00002FE0
00002FD0
00003FC0
00007FC0
00007F80
0000BF40
0000FF40
0690FF00
2FF9FE00
7E16FE00
7C03FC00
7C07F800
7D1BF000
2FFF8000
06A50000
ENDCHAR
STARTCHAR uni0409
ENCODING 1033
SWIDTH 817 0
DWIDTH 23 0
BBX 23 24 -1 -3
BITMAP
0000006F8000
000002FFC000
00001E7F8000
000078BF4000
0001F0BF4000
0003D0FF0000
000B81FE0000
001F41FE0000
003E02FE6900
00BD02FFFFD0
01F803FC1FF4
02F407F807F8
07F007F803F8
0BE00BF403FC
1FC00FF003F8
2F800FF007F8
3F801FE00BF4
7F402FD41FF0
BF002FDFFFD0
BE003FCBFF40
BE003FC2F900
BE0000000000
7E0000000000
050000000000
ENDCHAR
STARTCHAR uni040A
ENCODING 1034
SWIDTH 931 0
DWIDTH 26 0
BBX 25 21 0 0
BITMAP
0006BD02FD0000
007FFC03FC0000
02E7F803FC0000
0F87F807F80000
2E0BF40BF40000
7D0FF00BF40000
BC0FF00FF00000
BC1FE01FE00000
7C2FFAAFE6A400
042FFFFFFFFE00
003FC03FD1BF40
007F803FC03F80
007F807F803FC0
00BF40BF802FC0
00BF00BF403FC0
00FF00FF003F80
01FE00FF007F40
01FE01FE41FF00
02FD02FDBFFD00
03FC02FDBFF800
03FC03FC2F9000
ENDCHAR
STARTCHAR uni040B
ENCODING 1035
SWIDTH 745 0
DWIDTH 21 0
BBX 21 21 0 0
BITMAP
001BFFA40640
02FFFFFFFF00
0BE5BFFFFE00
2F40BF5AE800
3E00FF000000
7D00FF000000
BC01FE000000
BC02FD000000
7C02FD6A4000
1803FFFFD000
0007FD1FF000
0007F80BF400
000BF40BF400
000FF00BF400
000FF00FF000
001FE01FF000
001FE01FE000
002FD02FD000
003FC02FD000
003FC02FD000
007F801FE000
ENDCHAR
STARTCHAR uni040C
ENCODING 1036
SWIDTH 635 0
DWIDTH 18 0
BBX 19 27 0 0
BITMAP
0000000BC0
0000001F40
0000003D00
0000007800
000000E000
0000000000
0006FC02F4
007FFC1FFC
02EBF87FFC
0B87F8F8B4
2F0BF6E000
7D0FF78000
BC0FFB4000
BC1FFE0000
7C2FFC0000
182FFFE400
003FD7FC00
003F81FD00
007F81FD00
00BF42FD00
00BF42FC00
00FF03F800
01FE07F800
01FE0BF400
02FD0BF000
03FC0BF000
03FC07F800
ENDCHAR
STARTCHAR uni040D
ENCODING 1037
SWIDTH 705 0
DWIDTH 20 0
BBX 21 27 0 0
BITMAP
000002F00000
000001F40000
000000B40000
000000780000
000000380000
000000000000
0006FD00BF40
007FFC01FF40
02E7F803FF00
0B87F807FE00
2F0BF40FFE00
7D0FF02FFD00
BC0FF03FFD00
BC1FE0BBFC00
7C2FD1F7F800
2C2FD2D7F800
003FC7CBF400
007FCF4FF000
007FAE0FF000
00BFBD1FE000
00BFF82FD000
00FFF02FD000
01FFD03FC000
01FF807FC000
02FF407F8000
03FE00BF4000
03FC00FF4000
ENDCHAR
STARTCHAR uni040E
ENCODING 1038
SWIDTH 644 0
DWIDTH 18 0
BBX 20 26 0 0
BITMAP
000007D00D
00000BE02C
00000BE6F4
000003FF90
0000005400
0006FD000E
007FFE001D
02E6FF003C
0B81FF0078
2F01FF40B0
7D00FF80E0
BC00BF82D0
BC007FC380
7C003FD740
18002FDF00
00002FFE00
00001FFC00
00000FF800
00000BF400
000007F000
000007D000
000003C000
000B878000
000FEF0000
000FFD0000
0007E40000
ENDCHAR
STARTCHAR uni040F
ENCODING 1039
SWIDTH 665 0
DWIDTH 19 0
BBX 20 30 0 -9
BITMAP
0006FD02FD
007FFC03FC
02E7F803FC
0B87F807F8
2F0BF40BF4
7D0FF00BF4
BC0FF00FF0
BC1FE01FF0
7C2FD01FE0
2C2FD02FD0
003FC02FD0
007FC03FC0
007F807F80
00BF407F80
00BF40BF40
00FF00FF00
01FE00FF00
01FE01FE00
02FD02FE00
03FFFFFD00
03FFFFFC00
0000400000
0007800000
000FC00000
000FE00000
000BF40000
0007F80000
0002F80000
0000F00000
0001C00000
ENDCHAR
STARTCHAR uni0410
ENCODING 1040
SWIDTH 668 0
DWIDTH 19 0
BBX 20 24 0 -3
BITMAP
00000006FD
0000002FFC
000000BBFC
000002D7F8
00000B4BF8
00002E0BF4
00007D0FF0
0000F80FF0
01AAF41FE0
1FFFFFAFD0
7F4BC1BFD0
BD1F803FC0
BD3F407F80
147F007F80
00BE00BF40
01FD00FF00
02FC00FF00
03F801FE00
07F402FE00
07F002FD00
0BF003FC00
0BE0000000
07E0000000
01F0000000
ENDCHAR
STARTCHAR uni0411
ENCODING 1041
SWIDTH 638 0
DWIDTH 18 0
BBX 18 21 0 0
BITMAP
001BFFFFE0
02FFFFFFD0
0F8BFABF80
2E0FF00000
7C0FF00000
BC1FE00000
B82FD00000
B82FD00000
783FD69000
147FFFFC00
007F81FE00
00BF40BF40
00BF007F40
00FF007F40
01FE007F40
01FE00BF40
02FD00FF00
03FD42FE00
03FDFFFC00
07F8FFF000
0BF87F8000
ENDCHAR
STARTCHAR uni0412
ENCODING 1042
SWIDTH 641 0
DWIDTH 18 0
BBX 17 21 0 0
BITMAP
0006BFA000
007FEBFD00
02F8007F00
0BC6B82F40
2F0BF41F40
7D0FF02F40
BC0FF07E00
BC1FE1F800
7C1FFFF400
2C2FFFFE00
003FC1FF40
003F807F80
007F803FC0
00BF403FC0
00BF403F80
00FF007F80
01FE00BF40
01FE41FF00
02FDFFFD00
03FCBFF400
03FC6F9000
ENDCHAR
STARTCHAR uni0413
ENCODING 1043
SWIDTH 400 0
DWIDTH 11 0
BBX 18 21 0 0
BITMAP
001AFFFFE0
01FFFFFFD0
0BD7FEBF80
2F07F80000
3E0BF40000
7D0FF00000
BD0FF00000
BD1FE00000
7D2FD00000
192FD00000
003FC00000
003FC00000
007F800000
00BF400000
00BF400000
00FF000000
01FE000000
01FE000000
02FD000000
03FD000000
03FC000000
ENDCHAR
STARTCHAR uni0414
ENCODING 1044
SWIDTH 669 0
DWIDTH 19 0
BBX 20 21 -1 0
BITMAP
0001AFF900
001FFAFF80
00FD001FE0
07E1BE07F4
0FC2FD03F8
1F43FD02FC
2F03FC02FC
2F07F802FD
1F0BF802FD
010FF402FC
000FF003FC
001FF003FC
002FE007F8
003FD00BF4
0BFFD00FF0
387FC01FE0
707F803FC0
B0BF40BF40
B5FF96FE00
7FFDFFF800
1BE42FD000
ENDCHAR
STARTCHAR uni0415
ENCODING 1045
SWIDTH 459 0
DWIDTH 13 0
BBX 14 21 0 0
BITMAP
0001BE40
001FEBD0
003F42E0
00BE01E0
00FD02E0
01FD07C0
01FD0000
00FE0000
007F8000
00BF9000
07FE0000
0FF80000
2FF00000
7FD00000
BFD00000
BFC00050
BFD000C0
BFE00B40
7FFFFE00
2FFFF400
06FE4000
ENDCHAR
STARTCHAR uni0416
ENCODING 1046
SWIDTH 777 0
DWIDTH 22 0
BBX 24 21 -1 0
BITMAP
007E001640BD
01FF80FF07FF
01FFD0FF0FFF
00B6E1FE2F2E
0000E1FE3C00
0000F2FDB800
0000B3FCF000
0000B3FDE000
0000B7FAD000
0000BBFAC000
002BFFFFFD00
00FFEFFAFF40
02FD0FF07F40
03F81FE07F40
07F42FD07F40
0BF02FD0BF00
0FF03FC0FE00
0FE07F81FD00
1FD0BF82FD00
2FC0BF42FD00
BF40FF01FE00
ENDCHAR
STARTCHAR uni0417
ENCODING 1047
SWIDTH 525 0
DWIDTH 15 0
BBX 15 21 -1 0
BITMAP
0006FF80
001FBFF0
00740BF8
00D007F8
014007F8
00000BF8
00001FF4
00007FD0
001AFE40
002FFE00
0000BFC0
00002FE0
00001FF0
00001FF4
05001FF4
2F402FF0
3E003FE0
7E007FC0
3F01FF40
2FEBFD00
06FF9000
ENDCHAR
STARTCHAR uni0418
ENCODING 1048
SWIDTH 705 0
DWIDTH 20 0
BBX 21 21 0 0
BITMAP
0006FD00BF40
007FFC01FF40
02E7F803FF00
0B87F807FE00
2F0BF40FFE00
7D0FF02FFD00
BC0FF03FFD00
BC1FE0BBFC00
7C2FD1F7F800
2C2FD2D7F800
003FC7CBF400
007FCF4FF000
007FAE0FF000
00BFBD1FE000
00BFF82FD000
00FFF02FD000
01FFD03FC000
01FF807FC000
02FF407F8000
03FE00BF4000
03FC00FF4000
ENDCHAR
STARTCHAR uni0419
ENCODING 1049
SWIDTH 705 0
DWIDTH 20 0
BBX 21 26 0 0
BITMAP
00000BC01C00
00001FD07400
00000FD6E000
000007FF8000
000000540000
0006FD00BF40
007FFC01FF40
02E7F803FF00
0B87F807FE00
2F0BF40FFE00
7D0FF02FFD00
BC0FF03FFD00
BC1FE0BBFC00
7C2FD1F7F800
2C2FD2D7F800
003FC7CBF400
007FCF4FF000
007FAE0FF000
00BFBD1FE000
00BFF82FD000
00FFF02FD000
01FFD03FC000
01FF807FC000
02FF407F8000
03FE00BF4000
03FC00FF4000
ENDCHAR
STARTCHAR uni041A
ENCODING 1050
SWIDTH 635 0
DWIDTH 18 0
BBX 19 21 0 0
BITMAP
0006FC02F4
007FFC1FFC
02EBF87FFC
0B87F8F8B4
2F0BF6E000
7D0FF78000
BC0FFB4000
BC1FFE0000
7C2FFC0000
182FFFE400
003FD7FC00
003F81FD00
007F81FD00
00BF42FD00
00BF42FC00
00FF03F800
01FE07F800
01FE0BF400
02FD0BF000
03FC0BF000
03FC07F800
ENDCHAR
STARTCHAR uni041B
ENCODING 1051
SWIDTH 549 0
DWIDTH 15 0
BBX 17 24 -1 -3
BITMAP
0000006F80
000002FFC0
00001FBF80
00007CBF80
0000F4BF40
0002D0FF00
000BC1FF00
001F41FE00
003E02FD00
00BD02FD00
00FC03FC00
02F407F800
07F007F800
0BE00BF400
0FD00FF400
1FC00FF000
3F801FE000
7F402FE000
7F002FD000
BF003FC000
BE003FC000
BE00000000
BE00000000
2E00000000
ENDCHAR
STARTCHAR uni041C
ENCODING 1052
SWIDTH 787 0
DWIDTH 22 0
BBX 21 21 2 0
BITMAP
001BFC00BF40
01BFFC00FF40
07D7FC02FF00
1F4BF803FF00
7D0FF807FF00
BC1FF80BFE00
F82FF81FFE00
F87FF82FFD00
B8BFF83FFD00
28FBF87BFD00
01F7F8B7FC00
02E7F5F7FC00
03D7F6E7F800
07C7F7C7F800
0B47FB8BF400
0F0BFF4BF400
1E0BFF0BF400
3D0BFE0FF000
7C0BFC0FF000
B80BF81FE000
F40BF41FE000
ENDCHAR
STARTCHAR uni041D
ENCODING 1053
SWIDTH 665 0
DWIDTH 19 0
BBX 20 21 0 0
BITMAP
0006FD02FD
006FFC03FC
02FFF803FC
0BD7F807F8
2F4BF407F4
3E0BF40BF4
7D0FF00FF0
BC1FE00FF0
BC1FE01FE0
3C2FFFFFD0
043FFFFFD0
003FC03FC0
007F803F80
00BF807F80
00BF40BF40
00FF00BF00
01FF00FF00
01FE01FE00
02FD01FE00
03FC02FD00
03FC03FC00
ENDCHAR
STARTCHAR uni041E
ENCODING 1054
SWIDTH 665 0
DWIDTH 19 0
BBX 19 21 0 0
BITMAP
0001AFE800
002FFAFF40
01FD041FD0
07E0BD0BE0
1F83F80BF0
3E0BF007F4
7D1FD007F4
BC3FC007F4
7C7F800BF4
2CFF400BF4
01FF000FF0
01FE000FE0
02FE001FD0
02FD002FD0
03FD007F80
03FD00BF40
03FD01FE00
02FD03FC00
01FF5FF000
00BFFF8000
001BF90000
ENDCHAR
STARTCHAR uni041F
ENCODING 1055
SWIDTH 688 0
DWIDTH 19 0
BBX 22 21 0 0
BITMAP
001AFFA50060
01FFFFFFFFF0
0BFFFFFFFFD0
2F97F85BFE40
3F0BF407F800
7D0FF40BF400
BC0FF00FF000
BC1FE00FF000
7C1FE01FE000
2C2FD02FD000
003FC02FD000
003FC03FC000
007F807FC000
00BF407F8000
00BF40BF4000
00FF00FF4000
01FE00FF0000
01FE01FE0000
02FD02FE0000
03FC02FD0000
03FC03FC0000
ENDCHAR
STARTCHAR uni0420
ENCODING 1056
SWIDTH 573 0
DWIDTH 16 0
BBX 17 21 0 0
BITMAP
0006FF9000
007FABF800
02F400BE00
0F86A43F40
2E0BF42F40
7D0FF02F80
BC1FE02F40
BC1FE03F40
B82FD07F00
2C3FD0BD00
003FC1F800
007F8BD000
00BFFE4000
00BF400000
00FF000000
01FF000000
01FE000000
02FD000000
02FD000000
03FC000000
07F8000000
ENDCHAR
STARTCHAR uni0421
ENCODING 1057
SWIDTH 497 0
DWIDTH 14 0
BBX 15 21 0 0
BITMAP
0001BF80
001FFAF4
007FD0B8
01FF407C
03FE00BC
07FC01F8
0FF80050
1FF40000
2FF00000
2FE00000
3FE00000
7FD00000
7FD00000
7FD00000
7FD00000
7FD00004
7FE00034
3FF402E0
2FFFFF80
0BFFFD00
01BF9000
ENDCHAR
STARTCHAR uni0422
ENCODING 1058
SWIDTH 481 0
DWIDTH 13 0
BBX 20 21 0 0
BITMAP
001BFE4001
01FFFFF907
0BE5BFFFFE
2F40FFFFFD
3E00FFABE4
7C01FF0000
BC02FE0000
B802FE0000
B803FD0000
7807FC0000
1807FC0000
000BF80000
000BF40000
000FF00000
001FF00000
001FE00000
002FD00000
003FD00000
003FC00000
007F800000
00BF800000
ENDCHAR
STARTCHAR uni0423
ENCODING 1059
SWIDTH 644 0
DWIDTH 18 0
BBX 20 21 0 0
BITMAP
0006FD000E
007FFE001D
02E6FF003C
0B81FF0078
2F01FF40B0
7D00FF80E0
BC00BF82D0
BC007FC380
7C003FD740
18002FDF00
00002FFE00
00001FFC00
00000FF800
00000BF400
000007F000
000007D000
000003C000
000B878000
000FEF0000
000FFD0000
0007E40000
ENDCHAR
STARTCHAR uni0424
ENCODING 1060
SWIDTH 786 0
DWIDTH 22 0
BBX 21 22 0 0
BITMAP
0006BFF90000
00BE43FC0000
01F403FC0000
02F007F80000
00A00BF40000
00016FFE4000
002F9FFBF800
01F91FF0BE00
0BE01FE03F40
1FD02FD02FC0
3F803FD02FC0
7F803FC02FC0
7F407F802FC0
7F40BF803FC0
7F80BF407F40
7F80FF00FF00
2FD0FF02FD00
1FF5FE1FF400
07FFFFFF8000
006BFEA40000
0003FC000000
0007F8000000
ENDCHAR
STARTCHAR uni0425
ENCODING 1061
SWIDTH 620 0
DWIDTH 17 0
BBX 18 21 0 0
BITMAP
0006FD02D0
007FFD0780
02E3FE0B00
0F82FE1E00
3E02FF3C00
7D01FFB400
BC00FFE000
B800FFD000
B800BFC000
28007FC000
00007FD000
00003FD000
00007FE000
0000FFF000
0002EFF000
00039FF400
000B0FF800
001D0BF800
002C0BFC00
007407FC00
00E003FD00
ENDCHAR
STARTCHAR uni0426
ENCODING 1062
SWIDTH 692 0
DWIDTH 19 0
BBX 20 26 0 -5
BITMAP
0006BD02FD
007FFC03FC
02E7F803FC
0F87F807F8
2F0BF40BF4
7D0FF00BF4
BC0FF00FF0
BC1FE01FE0
7C2FD01FE0
2C2FD02FD0
003FC03FD0
007FC03FC0
007F807F80
00BF407F80
00BF40BF40
00FF00FF00
01FE00FF00
01FE01FE00
02FD02FD00
03FFE6FD00
03FFFFFC00
0001BFFD01
00000BFFFE
000001FFFE
0000007FFD
0000000BF4
ENDCHAR
STARTCHAR uni0427
ENCODING 1063
SWIDTH 695 0
DWIDTH 19 0
BBX 20 21 0 0
BITMAP
0006FC00FF
007FFC00FF
02FBF801FE
0B87F801FE
2F0BF402FD
7D0FF003FC
BD0FF003FC
BC1FE007F8
BC1FE007F4
3C1FE00BF4
040FF42FF0
000BFFFFE0
0001BE9FE0
0000002FD0
0000002FD0
0000003FC0
0000007F80
0000007F80
000000BF40
000000FF00
000000FF00
ENDCHAR
STARTCHAR uni0428
ENCODING 1064
SWIDTH 906 0
DWIDTH 25 0
BBX 26 21 0 0
BITMAP
0006FD0BF40FF0
007FFC0BF41FF0
02E7F80FF01FE0
0B87F81FF02FD0
2F0BF41FE02FD0
7D0FF02FD03FC0
BC0FF02FD07F80
BC1FE03FC07F80
7C2FD07F80BF40
2C2FD07F80FF40
003FC0BF40FF00
007FC0FF01FE00
007F80FF02FE00
00BF41FE02FD00
00BF42FE03FC00
00FF02FD03FC00
01FE03FC07F800
01FE03FC0BF400
02FD07F80BF400
03FFFFFFFFF000
03FFFFFFFFF000
ENDCHAR
STARTCHAR uni0429
ENCODING 1065
SWIDTH 934 0
DWIDTH 26 0
BBX 27 26 0 -5
BITMAP
0006FD0BF40FF0
007FFC0BF41FF0
02E7F80FF01FE0
0B87F81FF02FD0
2F0BF41FE02FD0
7D0FF02FD03FC0
BC0FF02FD07F80
BC1FE03FC07F80
7C2FD07F80BF40
2C2FD07F80FF00
003FC0BF40FF00
007FC0FF01FE00
007F80FF02FE00
00BF41FE02FD00
00BF42FE03FC00
00FF02FD03FC00
01FE03FC07F800
01FE07FC0BF400
02FD07F80BF400
03FFFFF40FF000
03FFFFFE5FE000
00016FFFFFE404
000001BFFFFFF8
00000006FFFFF4
000000001BFFF0
0000000001AF90
ENDCHAR
STARTCHAR uni042A
ENCODING 1066
SWIDTH 714 0
DWIDTH 20 0
BBX 19 21 0 0
BITMAP
001AFFD000
01BFFFC000
07D57FC000
1F007F8000
3D00BF4000
7C00FF0000
BC00FF0000
BC01FE0000
7D02FE6A40
1A02FFFFE0
0003FD1FF4
0003FC07F8
0007F803FC
000BF403FC
000BF403FC
000FF007F8
001FE00BF4
001FE41FF0
002FDBFFD0
003FDBFF80
003FC2F900
ENDCHAR
STARTCHAR uni042B
ENCODING 1067
SWIDTH 909 0
DWIDTH 25 0
BBX 26 21 0 0
BITMAP
0006BC00000FF0
007FFC00000FF0
02E7F800001FE0
0F87F800002FE0
2E0BF400002FD0
7D0FF000003FC0
BC0FF000003FC0
BC1FE000007F80
7C2FE69000BF40
042FFFFD00BF40
003FC1FF40FF00
007F807F81FE00
007F803FC1FE00
00BF403FC2FD00
00BF003FC3FD00
00FF007F83FC00
01FE00BF47F800
01FE41FF07F800
02FDFFFD0BF400
03FCBFF80FF000
03FC2F900FF000
ENDCHAR
STARTCHAR uni042C
ENCODING 1068
SWIDTH 640 0
DWIDTH 18 0
BBX 17 21 0 0
BITMAP
0006BC0000
007FFC0000
02E7F80000
0F87F80000
2E0BF40000
7D0FF00000
BC0FF00000
BC1FE00000
7C2FE69000
042FFFFD00
003FC1FF40
007F807F80
007F803FC0
00BF403FC0
00BF003FC0
00FF007F80
01FE00BF40
01FE41FF00
02FDFFFD00
03FCBFF800
03FC2F9000
ENDCHAR
STARTCHAR uni042D
ENCODING 1069
SWIDTH 544 0
DWIDTH 15 0
BBX 16 21 -1 0
BITMAP
0006FF90
002FFFF4
00B55FFC
018007FE
030003FE
000002FF
000002FF
000002FF
001AABFF
002FFFFE
000003FE
000007FD
00000BFC
00000FF8
04001FF4
2F002FE0
7E007FD0
7D00BF40
3D02FE00
2F5BF400
06FE4000
ENDCHAR
STARTCHAR uni042E
ENCODING 1070
SWIDTH 946 0
DWIDTH 26 0
BBX 27 21 0 0
BITMAP
0006FD006FE400
006FFC02EAFF40
02FBF806002FC0
0B87F800BD0FE0
2F0BF403F40BF0
3E0FF40BE00BF0
7D0FF01FD00BF4
BC1FE03FC00BF4
BC2FE07F400BF0
3C2FFFFF000BF0
043FFFFF000FF0
003FC1FE001FE0
007F82FD001FD0
00BF83FD003FC0
00BF43FC007F80
00FF03FC00BF00
01FF03FC01FE00
01FE03FD03F800
02FD02FE1FE000
03FC00FFFF8000
03FC002FF90000
ENDCHAR
STARTCHAR uni042F
ENCODING 1071
SWIDTH 630 0
DWIDTH 18 0
BBX 21 21 -1 0
BITMAP
00001BFE9000
0002FFABF800
001FE0007E00
003F41BE2F40
00BE02FE1F40
00BD02FD1F00
00FC03FC1D00
00BD07FC0000
007E07F80000
002F8BF40000
002FFFF40000
01FE5FF00000
02FC1FE00000
07F42FE00000
07F02FD00000
0BF03FC00000
0FE03FC00000
0FD07F800000
1FD0BF800000
2FC0BF400000
BF40FF000000
ENDCHAR
STARTCHAR uni0430
ENCODING 1072
SWIDTH 526 0
DWIDTH 15 0
BBX 17 14 -1 0
BITMAP
001BEBF400
00FFBFF000
02FD1FF000
0BF41FE000
0FF02FD000
2FD02FD000
3FD03FC000
3FC07F8000
7FC07F8000
7F80BF4180
7FC1FF4340
3FEBFFEE00
2FFE7FF800
0BE41F9000
ENDCHAR
STARTCHAR uni0431
ENCODING 1073
SWIDTH 430 0
DWIDTH 12 0
BBX 17 21 -1 0
BITMAP
0000000280
000BFFFF40
002FFFFF00
002FFFFD00
001FFFF400
000BC00000
0002E00000
0000B40000
001BFC0000
01FFBD0000
07F82E0000
0FF41E0000
1FE02E0000
3FD02E0000
3FC03E0000
7FC03D0000
7F80BC0000
7F80F40000
3FD6E00000
1FFF800000
06F9000000
ENDCHAR
STARTCHAR uni0432
ENCODING 1074
SWIDTH 449 0
DWIDTH 13 0
BBX 17 21 -1 0
BITMAP
0001F90000
000BEF0000
002F8B4000
007F074000
00FD0B4000
01FC0B0000
03F80F0000
07F41D0000
0BF02C0000
0FF0340140
1FE2F41B40
2FD7FFF800
3FD3FF4000
3FC02F0000
7FC02F0000
7F802E0000
7F803D0000
7FC07C0000
3FE5F40000
1FFFD00000
06FE000000
ENDCHAR
STARTCHAR uni0433
ENCODING 1075
SWIDTH 375 0
DWIDTH 11 0
BBX 12 14 -1 0
BITMAP
00BF90
03FFF0
0BFFF8
1D0BF8
380BF4
201FE0
00BF80
07FE00
1FF400
7FC002
BF8009
BFD5B4
7FFFD0
1BFA00
ENDCHAR
STARTCHAR uni0434
ENCODING 1076
SWIDTH 507 0
DWIDTH 14 0
BBX 16 21 -1 -7
BITMAP
001BEBF4
00FFBFF0
02FC1FF0
0BF41FE0
0FE02FD0
2FD02FD0
3FC03FC0
3FC07F80
7F807F81
7F80BF43
7FC1FF0A
3FFFFF1C
2FFFFFB4
0BE6FF80
001BFD00
00BFFC00
02D3FC00
0387F800
034BF400
03EFE000
00BE4000
ENDCHAR
STARTCHAR uni0435
ENCODING 1077
SWIDTH 384 0
DWIDTH 11 0
BBX 13 14 -1 0
BITMAP
001BE400
00BFBC00
02FC3D00
0BF43D00
0FF07C00
2FD0F400
3FD7E000
3FFF8000
7FE40000
7F800140
7FC00A00
3FE57800
2FFFE000
06FE4000
ENDCHAR
STARTCHAR uni0436
ENCODING 1078
SWIDTH 882 0
DWIDTH 25 0
BBX 27 14 -1 0
BITMAP
01FE00BF00BF40
0BBFC0BF07FBC0
1C0FD0FE0FD3D0
240BE1FD2F83C0
000BE1FD3F4000
000BFBFEBF0000
000FFFFFFE0000
000FD3F8BE0000
101FC7F4FE0004
B82F8BF4FE0024
F43F0BF0FE0060
F47E0FE0BF01C0
BEF80FE03FEE00
2FD01FD00BE400
ENDCHAR
STARTCHAR uni0437
ENCODING 1079
SWIDTH 498 0
DWIDTH 14 0
BBX 15 21 0 -7
BITMAP
006FE000
02FFFC00
07FFFE00
0F42FE00
2D01FF00
3801FE00
7001FE00
6002FD00
9007F800
401FE008
02FF4018
02BF8034
002FD0A0
001FFB80
001FF900
01BFF000
0B9FE000
1D1FE000
1D3FC000
1FFF4000
06F90000
ENDCHAR
STARTCHAR uni0438
ENCODING 1080
SWIDTH 505 0
DWIDTH 14 0
BBX 16 14 -1 0
BITMAP
07F81FE0
07F82FE0
0BF42FD0
0FF43FC0
0FF03FC0
1FE07F80
1FE0BF40
2FD0BF40
3FC0FF00
3FC1FF03
7FC3FE0A
3FEEFFBC
2FFCBFF4
0BE02F80
ENDCHAR
STARTCHAR uni0439
ENCODING 1081
SWIDTH 505 0
DWIDTH 14 0
BBX 16 20 -1 0
BITMAP
00000010
003E00A0
007F01D0
007E5B80
002FFD00
00015000
07F81FE0
07F82FE0
0BF42FD0
0FF43FC0
0FF03FC0
1FE07F80
1FE0BF40
2FD0BF40
3FC0FF00
3FC1FF03
7FC3FE0A
3FEEFFBC
2FFCBFF4
0BE02F80
ENDCHAR
STARTCHAR uni043A
ENCODING 1082
SWIDTH 501 0
DWIDTH 14 0
BBX 16 14 -1 0
BITMAP
07FC06E0
07F81FF4
0BF47BF4
0BF5E1E0
0FF7C000
1FFFA400
1FFFFE00
2FE5FF00
3FC0FF00
3FC0FE07
7F81FE0A
BF41FFAC
BF40FFF4
FF002F90
ENDCHAR
STARTCHAR uni043B
ENCODING 1083
SWIDTH 558 0
DWIDTH 16 0
BBX 18 14 -1 0
BITMAP
00006FFD00
0000FBFC00
0002D3F800
000347F800
000707F400
000A0BF000
000E0FF000
000D0FE000
101C1FD010
BC2C2FD090
FC382FD1C0
F4742FFF40
BAE01FFE00
2F8007F400
ENDCHAR
STARTCHAR uni043C
ENCODING 1084
SWIDTH 827 0
DWIDTH 23 0
BBX 25 14 -1 0
BITMAP
00002F800FF800
0000FF801FF800
0002FF803FF400
00077F807FF000
00072F80FFF000
000A2F81EFE000
000E2F83DFD000
000D2FC76FD000
101C2FCF2FC040
BC2C1FDD3F81C0
FC381FFC3F8280
F4741FF43FEF00
BAE01FF02FFD00
2F801FD00BE400
ENDCHAR
STARTCHAR uni043D
ENCODING 1085
SWIDTH 507 0
DWIDTH 14 0
BBX 17 14 -1 0
BITMAP
07FC0FE000
07F81FE000
0BF41FD000
0FF42FC000
0FF02FC000
1FF03F8000
1FFFFF4000
2FEAFF4000
3FD0BF0000
3FC0FE0340
7F80FF0A00
BF80FFFD00
BF40BFF400
FF002F9000
ENDCHAR
STARTCHAR uni043E
ENCODING 1086
SWIDTH 439 0
DWIDTH 12 0
BBX 17 14 -1 0
BITMAP
001BE40000
00BFBD0000
02FD2E0000
0BF42E0280
0FF07FAE00
2FE03F9000
3FD02E0000
3FC03D0000
7FC03D0000
7F80BC0000
7FC0F40000
3FD6E00000
2FFF800000
06F9000000
ENDCHAR
STARTCHAR uni043F
ENCODING 1087
SWIDTH 505 0
DWIDTH 14 0
BBX 16 14 -1 0
BITMAP
07F9BE00
07FFFF80
0BFD7FC0
0FF43FC0
0FF03FC0
1FE07F80
1FE07F40
2FD0BF00
3FC0FF01
3FC0FE07
7F80FE0A
BF40FFFC
BF40BFF4
FF002F90
ENDCHAR
STARTCHAR uni0440
ENCODING 1088
SWIDTH 468 0
DWIDTH 13 0
BBX 16 22 -3 -7
BITMAP
003FC000
007FDBE0
007FFBF8
00BF82FD
00FF01FD
00FF01FD
01FE02FD
01FE02FD
02FD03FC
03FC07F8
03FC0BF4
07F81FF0
0BFDBFD0
0BFFFF40
0FF7F900
1FE00000
1FE00000
2FD00000
3FD00000
3FC00000
7F800000
54000000
ENDCHAR
STARTCHAR uni0441
ENCODING 1089
SWIDTH 384 0
DWIDTH 11 0
BBX 13 14 -1 0
BITMAP
001BE400
00BFBC00
02FC3D00
0BF43C00
0FF02400
2FE00000
3FD00000
3FC00000
7FC00000
7F800240
7FC00A00
3FE57800
2FFFE000
06FE4000
ENDCHAR
STARTCHAR uni0442
ENCODING 1090
SWIDTH 752 0
DWIDTH 21 0
BBX 23 14 -1 0
BITMAP
07F9BE06F800
07FFFFAFFE00
0BFD7FF5FF00
0FF43FD0FF00
0FF07FC0FE00
1FE07F81FE00
1FE0BF42FD00
2FD0BF42FC00
3FC0FF03F804
3FC1FE03F81C
7F81FE07F838
BF42FD07FFF0
BF43FD02FFD0
FF03FC00BE40
ENDCHAR
STARTCHAR uni0443
ENCODING 1091
SWIDTH 486 0
DWIDTH 14 0
BBX 16 21 -1 -7
BITMAP
07F81FE0
07F82FE0
0BF42FD0
0FF43FC0
0FF03FC0
1FE07F80
1FE0BF40
2FD0BF40
3FC0FF00
3FC1FE0A
7FC3FE0D
3FEFFD28
2FFFFDE0
0BE7FF40
001FF800
01FBF800
078BF400
0B0FF000
0B6FE000
07FFC000
01FE0000
ENDCHAR
STARTCHAR uni0444
ENCODING 1092
SWIDTH 738 0
DWIDTH 21 0
BBX 21 27 -1 -7
BITMAP
000000040000
000001FC0000
000002FC0000
000003F80000
000007F40000
000007F40000
001BEBF6F900
00FFBFFEFF00
03FC1FE0BF40
0BF41FD07F40
1FE02FC07F80
2FD02FC07F40
3FC03F80BF40
3FC07F40BF40
7F807F40FF00
7F80BF01FE00
7FC2FF03FD00
3FFFFF5FF800
2FFFFFFFE000
0BF6FEFE4000
0002FC000000
0003F8000000
0007F8000000
0007F4000000
000BF0000000
000FE0000000
000900000000
ENDCHAR
STARTCHAR uni0445
ENCODING 1093
SWIDTH 522 0
DWIDTH 15 0
BBX 16 15 0 0
BITMAP
000003D0
007F47F0
02FFC2F0
0A1FD0E0
0C0FE2C0
240FFB40
300BFD00
600BF400
900BF400
802FF401
007BF809
01D3FC2C
0782FFF4
0F01FFE0
2D007E40
ENDCHAR
STARTCHAR uni0446
ENCODING 1094
SWIDTH 535 0
DWIDTH 15 0
BBX 15 21 -1 -7
BITMAP
07F81FE0
07F82FE0
0BF42FD0
0FF43FC0
0FF03FC0
1FE07F80
1FE0BF40
2FD0BF40
3FC0FF00
3FC1FF00
7FC3FE00
3FEEFFA4
2FFCBFF0
0BE02E70
000000B0
000001E0
001FFFD0
007FFF80
00FFFF40
01FFF900
02400000
ENDCHAR
STARTCHAR uni0447
ENCODING 1095
SWIDTH 505 0
DWIDTH 14 0
BBX 15 14 0 0
BITMAP
1FF07F80
1FE07F80
2FD0BF40
2FD0FF00
3FC0FF00
7F81FE00
7F83FD00
7FEFFD00
3FFFFC00
0BE7FC0C
0007F828
0007FEB4
0003FFD0
0001BE00
ENDCHAR
STARTCHAR uni0448
ENCODING 1096
SWIDTH 752 0
DWIDTH 21 0
BBX 23 14 -1 0
BITMAP
07F81FE07F80
07F82FE0BF40
0BF42FD0BF40
0FF43FC0FF00
0FF03FC1FE00
1FE07F81FE00
1FE0BF42FD00
2FD0BF43FC00
3FC0FF03FC00
3FC1FF07F81C
7FC3FE0FF828
3FEEFFBBFEF0
2FFCBFF3FFD0
0BE02F81BE00
ENDCHAR
STARTCHAR uni0449
ENCODING 1097
SWIDTH 782 0
DWIDTH 22 0
BBX 21 21 -1 -7
BITMAP
07F81FE07F80
07F82FE0BF40
0BF42FD0BF40
0FF43FC0FF00
0FF03FC1FE00
1FE07F81FE00
1FE0BF42FD00
2FD0BF43FC00
3FC0FF03FC00
3FC1FF07F800
7FC3FE0FF800
3FEEFFBBFE80
2FFCBFF3FFC0
0BE02F81BAC0
000000000280
000000000780
000000BFFF40
000003FFFE00
000007FFFC00
00000BFFE000
00000D000000
ENDCHAR
STARTCHAR uni044A
ENCODING 1098
SWIDTH 448 0
DWIDTH 13 0
BBX 12 14 0 0
BITMAP
1FFE00
7EBC00
F8B400
B9F000
07EBE0
0FFBFC
2F81FD
7F41FD
BF01FD
FF02FC
FF07F8
FF5FE0
BFFF80
1BF900
ENDCHAR
STARTCHAR uni044B
ENCODING 1099
SWIDTH 655 0
DWIDTH 18 0
BBX 20 14 0 0
BITMAP
1FE0000BC0
1FD0007F80
2FD002FF40
3FC02FBF40
3F9FF8BF00
7F9FE0FF00
7F41F0FE00
BF01F1FD00
FF01F2FC00
FE02E2FC0D
FE07D3FC28
FF6F83FEB4
BFFE02FFE0
1BE400BE40
ENDCHAR
STARTCHAR uni044C
ENCODING 1100
SWIDTH 448 0
DWIDTH 13 0
BBX 12 14 0 0
BITMAP
1FF000
1FE000
2FD000
2FD000
3FEFE0
7FFFF8
7F82FD
BF41FD
FF01FD
FF02FC
FF07F8
FF5FE0
BFFF80
1BF900
ENDCHAR
STARTCHAR uni044D
ENCODING 1101
SWIDTH 413 0
DWIDTH 12 0
BBX 13 14 -2 0
BITMAP
006FE400
01FFFE00
0796FF00
0A00FF40
0000BF40
002AFF40
007FFF00
0000FF00
1401FE00
3C02FC00
7C07F400
7C0FE000
3E7F8000
1BF90000
ENDCHAR
STARTCHAR uni044E
ENCODING 1102
SWIDTH 675 0
DWIDTH 19 0
BBX 24 14 -1 0
BITMAP
07FC00BF8000
07F807FEE000
0BF40FE0F400
0FF42FC0F419
0FF07F82F9B4
1FF0BF42FE40
1FFFFF00F400
2FEBFE01F000
3FD2FD01F000
3FC2FD03D000
7F82FD07C000
BF82FE5F4000
BF40FFFD0000
FF002FE40000
ENDCHAR
STARTCHAR uni044F
ENCODING 1103
SWIDTH 527 0
DWIDTH 15 0
BBX 17 14 -1 0
BITMAP
000AFFF400
007FEFF000
01FD0BF000
03F80FE000
03F41FD000
03F42FD000
03FD2FC000
01FFFF8000
002EBF8000
782C7F4180
FC387F4740
F4B4BFFE00
BFF07FFC00
2F801BE000
ENDCHAR
STARTCHAR uni0450
ENCODING 1104
SWIDTH 384 0
DWIDTH 11 0
BBX 13 20 -1 0
BITMAP
002F4000
000F4000
000B8000
00078000
0002C000
00000000
001BE400
00BFBC00
02FC3D00
0BF43D00
0FF07C00
2FD0F400
3FD7E000
3FFF8000
7FE40000
7F800140
7FC00A00
3FE57800
2FFFE000
06FE4000
ENDCHAR
STARTCHAR uni0451
ENCODING 1105
SWIDTH 384 0
DWIDTH 11 0
BBX 13 19 -1 0
BITMAP
003D0F40
00BE1F80
007D0F40
00000000
00000000
001BE400
00BFBC00
02FC3D00
0BF43D00
0FF07C00
2FD0F400
3FD7E000
3FFF8000
7FE40000
7F800140
7FC00A00
3FE57800
2FFFE000
06FE4000
ENDCHAR
STARTCHAR uni0452
ENCODING 1106
SWIDTH 491 0
DWIDTH 14 0
BBX 16 26 -1 -7
BITMAP
00AB0000
01FE0000
01FE0000
02FD0000
1FFFF800
1BFEA400
07F80000
0BF9BD00
0BFBFF40
0FFFFF80
1FF47F80
1FE07F40
2FD0BF40
3FD0BF00
3FC0FE06
7F81FE09
BF81FD2C
BF42FDB4
FF03FF80
001BF800
00BFF400
03DBF400
070BF000
0B1FD000
07BF8000
01FE0000
ENDCHAR
STARTCHAR uni0453
ENCODING 1107
SWIDTH 375 0
DWIDTH 11 0
BBX 12 20 -1 0
BITMAP
00002F
00007D
0000B4
0001E0
000280
000000
00BF90
03FFF0
0BFFF8
1D0BF8
380BF4
201FE0
00BF80
07FE00
1FF400
7FC002
BF8009
BFD5B4
7FFFD0
1BFA00
ENDCHAR
STARTCHAR uni0454
ENCODING 1108
SWIDTH 384 0
DWIDTH 11 0
BBX 13 14 -1 0
BITMAP
001BE400
00BFBC00
02FC3D00
0BF43C00
0FE01000
2FFA4000
3FFF4000
3FC00000
7F800000
7F800240
7FC00A00
3FE57800
2FFFD000
06FE0000
ENDCHAR
STARTCHAR uni0455
ENCODING 1109
SWIDTH 382 0
DWIDTH 11 0
BBX 13 15 -1 0
BITMAP
00158000
007FD000
00BFD000
00FFD000
01EFD000
02AFD000
036FE000
0A2FE000
1D1FE000
7D1FE000
BD1FE240
E41FFD00
B02FE000
7EFF4000
1BF90000
ENDCHAR
STARTCHAR uni0456
ENCODING 1110
SWIDTH 267 0
DWIDTH 7 0
BBX 10 19 -1 0
BITMAP
00B900
01FE00
01FE00
00B900
000000
07F800
07F800
0BF400
0FF400
0FF000
1FE000
1FE000
2FD000
3FC000
3FC090
7FC1C0
3FEB40
2FFD00
0BE400
ENDCHAR
STARTCHAR uni0457
ENCODING 1111
SWIDTH 267 0
DWIDTH 7 0
BBX 10 19 -1 0
BITMAP
0F42D0
1F87F0
0F43D0
000000
000000
07F800
07F800
0BF400
0FF400
0FF000
1FE000
1FE000
2FD000
3FC000
3FC090
7FC1C0
3FEB40
2FFD00
0BE400
ENDCHAR
STARTCHAR uni0458
ENCODING 1112
SWIDTH 240 0
DWIDTH 7 0
BBX 14 26 -6 -7
BITMAP
00002E00
0000BF80
0000BF80
00002E00
00000000
0001FF00
0001FE00
0002FD00
0002FD00
0003FC00
0007F800
0007F800
000BF400
000FF400
000FF060
001FE090
002FE1C0
002FD740
003FE800
01BFC000
0BFF8000
3EBF4000
B4BF4000
B1FE0000
7BFC0000
1FE00000
ENDCHAR
STARTCHAR uni0459
ENCODING 1113
SWIDTH 745 0
DWIDTH 21 0
BBX 21 14 -1 0
BITMAP
00006FFD0000
0001FBFC0000
0002D3F80000
000787F80000
000B47FBFD00
000F0BFFFF40
000E0FF47F80
001E0FE03F80
102D1FD03F80
BC2C2FD07F40
FC382FC0BF00
F4B41FE6FD00
BEF00FFFF400
2F8002FE4000
ENDCHAR
STARTCHAR uni045A
ENCODING 1114
SWIDTH 694 0
DWIDTH 19 0
BBX 20 14 -1 0
BITMAP
07FC0FE000
07F81FE000
0BF41FD000
0FF42FD000
0FF02FDA90
1FF03FFFF8
1FFFFFEBFC
2FEAFF42FD
3FD0BF01FD
3FC0FF02FC
7F80FE03F8
BF80FE0BE0
BF40BFBF80
FF001BF900
ENDCHAR
STARTCHAR uni045B
ENCODING 1115
SWIDTH 505 0
DWIDTH 14 0
BBX 16 19 -1 0
BITMAP
00AB0000
01FE0000
01FE0000
02FD0000
1FFFF800
1BFEA400
07F80000
0BF9BD00
0BFBFF40
0FFFFF80
1FF47F80
1FE07F40
2FD0BF40
3FD0BF00
3FC0FE03
7F80FE0A
BF80FFFD
BF40BFF4
FF002F90
ENDCHAR
STARTCHAR uni045C
ENCODING 1116
SWIDTH 501 0
DWIDTH 14 0
BBX 16 20 -1 0
BITMAP
00000BD0
00000F40
00002E00
00003800
0000B000
00000000
07FC06E0
07F81FF4
0BF47BF4
0BF5E1E0
0FF7C000
1FFFA400
1FFFFE00
2FE5FF00
3FC0FF00
3FC0FE07
7F81FE0A
BF41FFAC
BF40FFF4
FF002F90
ENDCHAR
STARTCHAR uni045D
ENCODING 1117
SWIDTH 505 0
DWIDTH 14 0
BBX 16 20 -1 0
BITMAP
000FC000
0007C000
0003D000
0002D000
0001E000
00000000
07F81FE0
07F82FE0
0BF42FD0
0FF43FC0
0FF03FC0
1FE07F80
1FE0BF40
2FD0BF40
3FC0FF00
3FC1FF03
7FC3FE0A
3FEEFFBC
2FFCBFF4
0BE02F80
ENDCHAR
STARTCHAR uni045E
ENCODING 1118
SWIDTH 486 0
DWIDTH 14 0
BBX 16 26 -1 -7
BITMAP
003E00A0
007F01D0
007E5B40
002FFD00
00015000
07F81FE0
07F82FE0
0BF42FD0
0FF43FC0
0FF03FC0
1FE07F80
1FE0BF40
2FD0BF40
3FC0FF00
3FC1FE0A
7FC3FE0D
3FEFFD28
2FFFFDE0
0BE7FF40
001FF800
01FBF800
078BF400
0B0FF000
0B6FE000
07FFC000
01FE0000
ENDCHAR
STARTCHAR uni045F
ENCODING 1119
SWIDTH 505 0
DWIDTH 14 0
BBX 16 21 -1 -7
BITMAP
07F81FE0
07F82FE0
0BF42FD0
0FF43FC0
0FF03FC0
1FE07F80
1FE0BF40
2FD0BF40
3FC0FF00
3FC1FF03
7FC3FE0A
3FEEFFBC
2FFCBFF4
0BE02F80
00060000
001F0000
002F8000
002FC000
001FC000
000B4000
00050000
ENDCHAR
STARTCHAR uni0462
ENCODING 1122
SWIDTH 659 0
DWIDTH 18 0
BBX 18 21 0 0
BITMAP
0003FC0000
0007F80000
0007F40000
000BF40000
01AFFBFFD0
1FFFFFFFC0
7E1FEABE40
BC2FD00000
B83FD69000
7C3FFFFD00
047F81FF00
007F40BF40
00BF407F80
00FF007F80
00FE007F80
01FE00BF40
02FD00FF00
02FD42FE00
03FDFFFC00
07F8FFF400
07F86F8000
ENDCHAR
STARTCHAR uni0463
ENCODING 1123
SWIDTH 692 0
DWIDTH 19 0
BBX 20 14 -1 0
BITMAP
07F9BE0000
07FFFF8000
0BFD7FC000
0FF43FC000
0FF03FEFE0
1FE07FEBF8
1FE07F42FC
2FD0BF01FD
3FC0FF02FC
3FC0FE02FC
7F80FE07F4
BF40FF5FE0
BF40BFFF80
FF001BF900
ENDCHAR
STARTCHAR uni046A
ENCODING 1130
SWIDTH 834 0
DWIDTH 23 0
BBX 21 21 1 0
BITMAP
0006BFFFFFC0
007FFFAAAF40
02FAFF400E00
0BC1FF802C00
2F00FFC07400
7E007FD1E000
7D003FE3C000
7C002FFB4000
3D001FFE0000
051FFFFFFE00
00BF9FF5BF40
01FD0FF03F80
03F81FF03F80
07F41FE07F80
07F42FD07F40
0BF02FD0BF00
0BF03FC0FF00
0FE07FC1FE00
1FE07F81FD00
2FD0BF41FD00
7F40BF40BE00
ENDCHAR
STARTCHAR uni046B
ENCODING 1131
SWIDTH 750 0
DWIDTH 21 0
BBX 18 14 1 0
BITMAP
006FFFFF40
07DBF40E00
1F47F82C00
2E03FC7400
3E02FDE000
1A01FFD000
01BFFFFE40
03F9FF6FC0
0BF0FE1FD0
0FE1FD2FC0
0FD2FC2FC0
1FD2FC3F80
2FC3F87F40
7E47F83F80
ENDCHAR
STARTCHAR uni0472
ENCODING 1138
SWIDTH 665 0
DWIDTH 19 0
BBX 19 21 0 0
BITMAP
0001AFE800
002FFAFF40
01FD041FD0
07E0BD0BE0
1F87F80BF0
3E0FF007F4
7D2FD007F4
BC3FC007F4
7C7F800BF4
2CFF550BF4
01FFBFAFF0
01FF47DFE0
02FD001FD0
02FD002FD0
03FD003F80
03FD00BF40
03FD00FE00
02FD02FC00
01FE0BF000
00BFBF8000
001BF90000
ENDCHAR
STARTCHAR uni0473
ENCODING 1139
SWIDTH 439 0
DWIDTH 12 0
BBX 17 14 -1 0
BITMAP
001BE40000
00BFBD0000
02FD2E0000
0BF42E0280
0FF07FAD00
2FE03F9000
3FDA2E0000
3FFFFD0000
7FC6BD0000
7F80BC0000
7FC1F40000
3FEBE00000
2FFF800000
06F9000000
ENDCHAR
STARTCHAR uni0474
ENCODING 1140
SWIDTH 668 0
DWIDTH 19 0
BBX 21 21 0 0
BITMAP
0006FC002F40
007FFC00FE00
02E7FC02F800
0F83FC03F400
3E03FD0BE000
7D03FD0FC000
BC03FD1F8000
B803FD1F4000
B803FD2E0000
2803FD3D0000
0003FD7C0000
0003FD780000
0002FDB40000
0002FDF00000
0002FDE00000
0002FED00000
0002FEC00000
0002FF800000
0002FF400000
0002FF000000
0002FE000000
ENDCHAR
STARTCHAR uni0475
ENCODING 1141
SWIDTH 414 0
DWIDTH 12 0
BBX 12 14 -1 0
BITMAP
07F82E
07F87F
0BF42F
0FF40B
0FF00B
1FE00E
1FE01E
2FD02D
3FC03C
3FC0B4
7FC2E0
3FEFC0
2FFF40
0BF800
ENDCHAR
STARTCHAR uni0490
ENCODING 1168
SWIDTH 431 0
DWIDTH 12 0
BBX 18 24 0 0
BITMAP
0000000060
00000000B0
00000001F0
001AFFFFF0
02FFFFFFD0
0B8BFABE40
2E0BF40000
3D0FF00000
7C1FE00000
BC1FE00000
BC2FD00000
7C2FD00000
183FC00000
007F800000
007F800000
00BF400000
00FF000000
00FF000000
01FE000000
02FE000000
02FD000000
03FC000000
03FC000000
07F8000000
ENDCHAR
STARTCHAR uni0491
ENCODING 1169
SWIDTH 342 0
DWIDTH 10 0
BBX 12 16 -1 0
BITMAP
00002D
00003E
07FFFD
07FEA0
0BF400
0FF000
0FF000
1FE000
1FE000
2FD000
3FC000
3FC000
7F8000
BF4000
BF4000
FF0000
ENDCHAR
STARTCHAR uni0492
ENCODING 1170
SWIDTH 400 0
DWIDTH 11 0
BBX 18 21 0 0
BITMAP
001AFFFFE0
01FFFFFFD0
0BD7FEBF80
2F07F80000
3E0BF40000
7D0FF00000
BD0FF00000
BD1FE00000
7D2FD00000
192FD00000
003FC00000
07FFFE0000
05BF950000
00BF400000
00FF400000
00FF000000
01FE000000
01FE000000
02FD000000
03FC000000
03FC000000
ENDCHAR
STARTCHAR uni0493
ENCODING 1171
SWIDTH 375 0
DWIDTH 11 0
BBX 12 14 -1 0
BITMAP
00BF90
07FFF4
0FFFF8
2D0BF8
340FF4
002FE0
7FFFFC
6FFEA8
2FE000
7FC002
BF801D
BFD5B4
3FFFD0
1BF900
ENDCHAR
STARTCHAR uni0494
ENCODING 1172
SWIDTH 665 0
DWIDTH 19 0
BBX 18 22 0 -1
BITMAP
001AFFFFE0
01FFFFFFD0
0BD7FEBF80
2F07F80000
3E0BF40000
7D0FF00000
BD0FF00000
BD1FE00000
7D2FEAA400
1D2FFFFE00
003FD0BF40
003FC03FC0
007F802FC0
00BF402FD0
00BF402FD0
00FF002FC0
01FE003FC0
01FE007F80
02FD41FF00
03FDFFFD00
03FCFFF400
00006F9000
ENDCHAR
STARTCHAR uni0495
ENCODING 1173
SWIDTH 486 0
DWIDTH 14 0
BBX 16 21 -1 -7
BITMAP
02FFFFD0
07FFFFC0
0BFABE40
0BF40000
0FF00000
1FE6F800
1FFFFE00
2FE6FF00
3FD0FF00
3FC0FE0A
7F81FE0D
BF82FD28
BF42FDA0
FF03FF40
001BF800
00BFF400
038BF000
0B0FE000
0A1FD000
0BBF8000
02F90000
ENDCHAR
STARTCHAR uni0496
ENCODING 1174
SWIDTH 777 0
DWIDTH 22 0
BBX 24 29 -1 -8
BITMAP
007E001640BD
01FF80FF07FF
01FFD0FF0FFF
00B6E1FE2F2E
0000E1FE3C00
0000F2FDB800
0000B3FCF000
0000B3FDE000
0000B7FAD000
0000BBFAC000
002BFFFFFD00
00FFEFFAFF40
02FD0FF07F40
03F81FE07F40
07F42FD07F40
0BF02FD0BF00
0FF03FC0FE00
0FE07F81FD00
1FD0BF82FD00
2FC0BF42FD00
BF40FF01FE00
00000001F400
00000003E000
00000003F400
00000003FC00
00000001FE00
00000000BE00
000000007D00
000000007400
ENDCHAR
STARTCHAR uni0497
ENCODING 1175
SWIDTH 882 0
DWIDTH 25 0
BBX 27 21 -1 -7
BITMAP
01FE00BF00BF40
0BBFC0BF07FBC0
1C0FD0FE0FD3D0
240BE1FD2F83C0
000BE1FD3F4000
000BFBFEBF0000
000FFFFFFE0000
000FD3F8BE0000
101FC7F4FE0004
B42F8BF4FE0024
F43F0BF0FE00A0
F47E0FE0BF4680
B9F80FE03FFE00
2FD01FD01BE400
00000000028000
0000000007D000
000000000BF000
000000000BF000
0000000003E000
0000000002C000
00000000010000
ENDCHAR
STARTCHAR uni0498
ENCODING 1176
SWIDTH 525 0
DWIDTH 15 0
BBX 15 29 -1 -8
BITMAP
0006FF80
001FBFF0
00740BF8
00D007F8
014007F8
00000BF8
00001FF4
00007FD0
001AFE40
002FFE00
0000BFC0
00002FE0
00001FF0
00001FF4
01001FF4
2F402FF0
3E003FE0
7E007FC0
3F01FF40
2FEBFD00
06FF9000
002D0000
007E0000
007F4000
003FC000
001FD000
000BD000
00078000
000A0000
ENDCHAR
STARTCHAR uni0499
ENCODING 1177
SWIDTH 498 0
DWIDTH 14 0
BBX 15 28 0 -14
BITMAP
006FE000
02FFFC00
07FFFE00
0F42FE00
2D01FF00
3801FE00
7001FE00
6002FD00
9007F800
401FE008
02FF4018
02BF8034
002FD0A0
001FFB40
001FF400
01FFF000
0B5FE000
1D2FE000
1D7FC000
1FFF4000
07F90000
01800000
07D00000
0BF00000
0BF40000
03F00000
01D00000
01400000
ENDCHAR
STARTCHAR uni049A
ENCODING 1178
SWIDTH 635 0
DWIDTH 18 0
BBX 19 30 0 -9
BITMAP
0006FC02F4
007FFC1FFC
02EBF87FFC
0B87F8F8B4
2F0BF6E000
7D0FF78000
BC0FFB4000
BC1FFE0000
7C2FFC0000
182FFFE400
003FD7FC00
003F81FD00
007F81FD00
00BF41FD00
00BF42FC00
00FF03F800
01FE07F800
01FE07F400
02FD0BF000
03FC0BF000
03FC0BF800
000003D000
00000BD000
00000BF000
000007F800
000003FC00
000001FC00
000000B400
000000A000
0000004000
ENDCHAR
STARTCHAR uni049B
ENCODING 1179
SWIDTH 501 0
DWIDTH 14 0
BBX 16 21 -1 -7
BITMAP
07FC06E0
07F81FF4
0BF47BF4
0BF5E1E0
0FF7C000
1FFFA400
1FFFFE00
2FE5FF00
3FC0FE01
3FC0FE07
7F81FE0E
BF41FFFC
BF40FFF4
FF006F90
00001D00
00003E00
00007F40
00003F80
00001F40
00000D00
00000400
ENDCHAR
STARTCHAR uni049C
ENCODING 1180
SWIDTH 721 0
DWIDTH 20 0
BBX 22 21 0 0
BITMAP
0006FC001F80
007FFC00BFD0
02E7F802FFD0
0F87F80BDB80
2E0BF41F0000
7D0FF13D0000
BC0FF7780000
BC1FE6F00000
7C2FFFD00000
182FFFFE0000
003FCCBF4000
003F983F8000
007F943F8000
00BF407F8000
00BF007F4000
00FF00BF0000
01FE00FF0000
01FE01FE0000
02FD01FD0000
03FC01FD0000
03FC00BE0000
ENDCHAR
STARTCHAR uni049D
ENCODING 1181
SWIDTH 551 0
DWIDTH 15 0
BBX 18 14 -1 0
BITMAP
07FC00BE00
07F807FF00
0BF41E6E00
0BF7740000
0FF7900000
1FEBFF8000
1FEFFFC000
2FED2FD000
3FFC2FD000
3FEC2FC090
7FA83FC1C0
BF802FFF40
BF401FFE00
FF000BF400
ENDCHAR
STARTCHAR uni04A0
ENCODING 1184
SWIDTH 691 0
DWIDTH 19 0
BBX 21 21 0 0
BITMAP
001BFF806E00
02FFFF82FF80
0FE5BF4BFF80
2F40FF1E1E00
7D00FF3C0000
BC01FEB40000
BC02FEE00000
B802FFC00000
7803FF800000
1807FFFE0000
0007F87F8000
000BF42FC000
000BF42FC000
000FF03F8000
001FE07F8000
001FE07F4000
002FD0BF0000
003FC0FF0000
003FC0FE0000
007F81FE0000
00BF80BF4000
ENDCHAR
STARTCHAR uni04A1
ENCODING 1185
SWIDTH 676 0
DWIDTH 19 0
BBX 21 14 -1 0
BITMAP
006FFA01B800
07FBFE07FD00
1F82FD1EFD00
3F03FD78B800
7E03FDF00000
3E07FFE50000
2E0BFFFF4000
050BFDBF8000
000FF03F8000
001FF03F81C0
001FE07F8380
002FD07FEF00
003FD03FFD00
003FC01BE400
ENDCHAR
STARTCHAR uni04A2
ENCODING 1186
SWIDTH 665 0
DWIDTH 19 0
BBX 20 26 0 -5
BITMAP
0006BC02FD
007FFC03FC
02E7F803FC
0F87F807F8
2E0BF40BF4
7D0FF00BF4
BC0FE00FF0
BC1FE01FF0
7C2FFFFFE0
042FFFFFD0
003FC03FD0
007F803FC0
007F807F80
00BF40BF80
00BF00BF40
00FF00FF00
01FE00FF00
01FE01FE00
02FD02FE00
03FC02FD00
03FC03FD00
0000002FD1
0000000FFF
0000000BFE
00000007FD
00000001F4
ENDCHAR
STARTCHAR uni04A3
ENCODING 1187
SWIDTH 507 0
DWIDTH 14 0
BBX 16 21 -1 -7
BITMAP
07F80FE0
07F81FE0
0BF41FD0
0FF02FC0
0FF03FC0
1FFABF80
1FFFFF40
2FD0BF40
3FC0BF01
3FC0FE07
7F80FF0A
BF40FFFC
BF40BFF4
FF002F90
00000900
00002F00
00003F80
00003F80
00001F40
00000E00
00000400
ENDCHAR
STARTCHAR uni04A4
ENCODING 1188
SWIDTH 689 0
DWIDTH 19 0
BBX 26 21 0 0
BITMAP
0006FD02FFFFE0
006FFC03FFFFE0
02D7F803FDAF80
0B8BF807F80000
2E0BF407F40000
3D0FF40BF40000
7C1FF00FF00000
BC1FE00FE00000
BC2FE01FE00000
3C2FFFFFD00000
043FFFFFC00000
007FC03FC00000
007F803F800000
00BF807F800000
00FF40BF400000
00FF00BF000000
01FF00FF000000
01FE01FE000000
02FD01FE000000
03FC02FD000000
03FC03FC000000
ENDCHAR
STARTCHAR uni04A5
ENCODING 1189
SWIDTH 681 0
DWIDTH 19 0
BBX 21 14 -1 0
BITMAP
07F80BFFFF80
07F81FFFFF40
0BF41FDAFD00
0FF02FC00000
0FF03FC00000
1FFABF800000
1FFFFF400000
2FD0BF400000
3FC0BF010000
3FC0FE030000
7F80FE0A0000
BF40FFBC0000
BF40BFF40000
FF002F900000
ENDCHAR
STARTCHAR uni04AA
ENCODING 1194
SWIDTH 497 0
DWIDTH 14 0
BBX 15 29 0 -8
BITMAP
0001BF80
001FFAF4
007FD0B8
01FF407C
02FE00BC
07FC01F8
0FF80050
1FF40000
2FF00000
2FE00000
3FE00000
7FD00000
7FD00000
7FD00000
7FD00000
7FD00000
7FD00024
3FF000B0
2FFD5BD0
1FFFFF40
06FFF400
002E0000
003E0000
007F8000
003FD000
001FD000
000BD000
0007C000
00060000
ENDCHAR
STARTCHAR uni04AB
ENCODING 1195
SWIDTH 384 0
DWIDTH 11 0
BBX 13 21 -1 -7
BITMAP
001BE400
00BFBC00
02FC3D00
0BF43C00
0FF02400
2FE00000
3FD00000
3FC00000
7FC00000
7F800240
7FC00A00
3FE5B800
2FFFE000
07FE4000
00A00000
01F40000
02F80000
02FC0000
00F80000
00B00000
00400000
ENDCHAR
STARTCHAR uni04AE
ENCODING 1198
SWIDTH 620 0
DWIDTH 17 0
BBX 20 21 0 0
BITMAP
0006FD002D
007FFD003C
02E3FE0074
0F82FF00B0
3E01FF40E0
7D00FF42C0
BC00FF8380
B800BFC740
B8007FCA00
28003FED00
00003FFC00
00002FF400
00001FF000
00002FF000
00002FE000
00003FD000
00007FD000
00007FC000
0000BF8000
0000FF8000
0000FF4000
ENDCHAR
STARTCHAR uni04AF
ENCODING 1199
SWIDTH 480 0
DWIDTH 13 0
BBX 12 21 1 -7
BITMAP
7F8078
7F80FE
7F806E
7F800E
3FC00D
3FC01C
3FC028
2FD074
2FD0A0
2FD1C0
2FD340
1FEA00
1FFC00
1FF400
1FE000
1FE000
2FD000
3FC000
3FC000
7F8000
A90000
ENDCHAR
STARTCHAR uni04B0
ENCODING 1200
SWIDTH 620 0
DWIDTH 17 0
BBX 20 21 0 0
BITMAP
0006FD002D
007FFD003C
02E3FE0074
0F82FF00B0
3E01FF40E0
7D00FF42C0
BC00FF8380
B800BFC740
B8007FCA00
28003FED00
00003FFC00
00002FF400
0002BFFA40
0003FFFF00
00002FE000
00003FD000
00007FD000
00007FC000
0000BF8000
0000FF8000
0000FF4000
ENDCHAR
STARTCHAR uni04B1
ENCODING 1201
SWIDTH 480 0
DWIDTH 13 0
BBX 13 21 0 -7
BITMAP
1FE01E00
1FE03F80
1FE01B80
1FE00380
0FF00340
0FF00700
0FF00A00
0BF41D00
0BF42800
0BF47000
0BF4D000
07FA8000
07FF0000
6FFF9000
BFFFD000
07F80000
0BF40000
0FF00000
0FF00000
1FE00000
2A400000
ENDCHAR
STARTCHAR uni04B6
ENCODING 1206
SWIDTH 695 0
DWIDTH 19 0
BBX 21 26 0 -5
BITMAP
0006FC00FF00
007FFC00FF00
02FBF801FE00
0B87F801FE00
2F0BF402FD00
7D0FF003FC00
BD0FF003FC00
BC1FE007F800
BC1FE007F400
3C1FE00BF400
040FF42FF000
000BFFFFF000
0001BE9FE000
0000002FD000
0000002FD000
0000003FC000
0000007F8000
0000007F8000
000000BF4000
000000FF0000
000000FF4000
0000000FE400
00000007FF80
00000003FF40
00000001FF00
00000000B900
ENDCHAR
STARTCHAR uni04B7
ENCODING 1207
SWIDTH 505 0
DWIDTH 14 0
BBX 15 21 0 -7
BITMAP
1FF07F80
1FE07F80
2FD0BF40
2FD0FF00
3FC0FF00
7F81FE00
7F83FD00
7FEFFD00
3FFFFC00
0BE7FC0C
0007F828
0007FEB4
0003FFD0
0001BE40
00007400
0000F800
0001FD00
0000FE00
00007D00
00003800
00001000
ENDCHAR
STARTCHAR uni04B8
ENCODING 1208
SWIDTH 715 0
DWIDTH 20 0
BBX 21 21 0 0
BITMAP
0006FD007F80
007FFC00BF80
02E7F800BF40
0B87F800FF00
2F0BF400FF00
7D0FF001FE00
BC0FF002FD00
BC1FE002FD00
7C1FE1C3FC00
2C1FE187F800
000FFAAFF800
000BFFFFF400
0001BF9BF400
0000070FF000
0000061FE000
0000051FE000
0000002FD000
0000003FC000
0000003FC000
0000007F8000
000000BF4000
ENDCHAR
STARTCHAR uni04B9
ENCODING 1209
SWIDTH 545 0
DWIDTH 15 0
BBX 17 14 0 0
BITMAP
1FF00FF000
1FE01FE000
2FD02FD000
2FD02FD000
3FCA3FC000
7F8E7F8000
7FCDFF8000
3FFFFF4000
2FFFFF4000
0BF8FF0240
0034FF0700
0074FFAD00
0000BFF400
00002F9000
ENDCHAR
STARTCHAR uni04BA
ENCODING 1210
SWIDTH 679 0
DWIDTH 19 0
BBX 18 21 0 0
BITMAP
0006BC0000
007FFC0000
02E7F80000
0F87F80000
2E0BF40000
7D0FF00000
BC0FF00000
BC1FE00000
7C2FEAFE00
042FFFFF80
003FE07FC0
007F802FD0
007F802FD0
00BF402FD0
00BF003FD0
00FF003FC0
01FE007F80
01FE007F80
02FD00BF40
03FC00FF00
03FC00FF00
ENDCHAR
STARTCHAR uni04BB
ENCODING 1211
SWIDTH 505 0
DWIDTH 14 0
BBX 16 20 -1 0
BITMAP
00050000
00FF0000
01FE0000
02FE0000
02FD0000
03FC0000
03FCBE00
07FFFF80
0BFFFFC0
0BF83FC0
0FF43FC0
1FF03F80
1FE07F40
2FD0BF00
3FD0BF00
3FC0FE07
7F80FE0A
BF80FFFC
BF40BFF4
FF002F90
ENDCHAR
STARTCHAR uni04C0
ENCODING 1216
SWIDTH 375 0
DWIDTH 11 0
BBX 11 21 0 0
BITMAP
0006FC
007FF8
02EBF8
0F8BF4
3E0FF0
7D0FF0
BC1FE0
B81FE0
B82FD0
283FC0
003FC0
007F80
00BF40
00BF40
00FF00
01FE00
01FE00
02FD00
03FD00
03FC00
07F800
ENDCHAR
STARTCHAR uni04C1
ENCODING 1217
SWIDTH 777 0
DWIDTH 22 0
BBX 24 26 -1 0
BITMAP
000007E00A00
00000BF02C00
000007E6F400
000002FFD000
000000140000
007E001640BD
01FF80FF07FF
01FFD0FF0FFF
00B6E1FE2F2E
0000E1FE3C00
0000F2FDB800
0000B3FCF000
0000B3FDE000
0000B7FAD000
0000BBFAC000
002BFFFFFD00
00FFEFFAFF40
02FD0FF07F40
03F81FE07F40
07F42FD07F40
0BF02FD0BF00
0FF03FC0FE00
0FE07F81FD00
1FD0BF82FD00
2FC0BF42FD00
BF40FF01FE00
ENDCHAR
STARTCHAR uni04C2
ENCODING 1218
SWIDTH 882 0
DWIDTH 25 0
BBX 27 19 -1 0
BITMAP
000007E00A0000
00000BF02C0000
00000BE6F40000
000002FF900000
00000014000000
01FE00BF00BF40
0BBFC0BF07FBC0
1C0FD0FE0FD3D0
240BE1FD2F83C0
000BE1FD3F4000
000BFBFEBF0000
000FFFFFFE0000
000FD3F8BE0000
101FC7F4FE0004
B82F8BF4FE0024
F43F0BF0FE0060
F47E0FE0BF01C0
BEF80FE03FEE00
2FD01FD00BE400
ENDCHAR
STARTCHAR uni04CB
ENCODING 1227
SWIDTH 695 0
DWIDTH 19 0
BBX 20 24 0 -3
BITMAP
0006FD00FF
007FFC00FF
02FBF801FE
0B87F801FE
2F0BF402FD
7D0FF003FC
BC0FF003FC
BC1FE007F8
7C1FE00BF4
2C1FE00BF4
000FF96FF0
000BFFFFE0
0001BE9FE0
0000002FD0
0000002FC0
0000003FC0
0000007F80
0000007F80
000000BF40
000000FF00
00141BFF00
002FFF4000
002FFC0000
000BE00000
ENDCHAR
STARTCHAR uni04CC
ENCODING 1228
SWIDTH 516 0
DWIDTH 14 0
BBX 16 21 0 -7
BITMAP
0FF03FC0
0FF07FC0
1FE07F80
2FE0BF40
2FD0BF40
3FC0FF00
3FC2FE00
3FFFFE00
2FFFFD00
0BE7FD09
0003FC1C
0003FE78
0002FFF0
0001FF80
00007900
00007400
06FFF000
0FFFE000
2FFFC000
3FFE0000
74000000
ENDCHAR
STARTCHAR uni04CF
ENCODING 1231
SWIDTH 267 0
DWIDTH 7 0
BBX 10 20 -1 0
BITMAP
000100
00FF00
01FE00
02FE00
02FD00
03FC00
03FC00
07F800
0BF400
0BF400
0FF000
1FE000
1FE000
2FD000
3FC000
3FC090
7FC1C0
3FEB40
2FFE00
0BE400
ENDCHAR
STARTCHAR uni04D0
ENCODING 1232
SWIDTH 668 0
DWIDTH 19 0
BBX 23 29 0 -3
BITMAP
0000001F8024
0000002F80B0
0000002F9BD0
0000000BFE40
000000015000
00000006FD00
0000002FFC00
000000BBFC00
000002D7F800
00000B4BF800
00002E0BF400
00007D0FF000
0000F80FF000
01AAF41FE000
1FFFFFAFD000
7F4BC1BFD000
BD1F803FC000
BD3F407F8000
147F007F8000
00BE00BF4000
01FD00FF0000
02FC00FF0000
03F801FE0000
07F402FE0000
07F002FD0000
0BF003FC0000
0BE000000000
07E000000000
01F000000000
ENDCHAR
STARTCHAR uni04D1
ENCODING 1233
SWIDTH 526 0
DWIDTH 15 0
BBX 17 19 -1 0
BITMAP
000BD01C00
000FD07800
000FD6F000
0007FF8000
0000540000
001BEBF400
00FFBFF000
02FD1FF000
0BF41FE000
0FF02FD000
2FD02FD000
3FD03FC000
3FC07F8000
7FC07F8000
7F80BF4180
7FC1FF4340
3FEBFFEE00
2FFE7FF800
0BE41F9000
ENDCHAR
STARTCHAR uni04D2
ENCODING 1234
SWIDTH 668 0
DWIDTH 19 0
BBX 22 29 0 -3
BITMAP
0000000B82E0
0000001FC7F0
0000000B82E0
000000000000
000000000000
00000006FD00
0000002FFC00
000000BBFC00
000002D7F800
00000B4BF800
00002E0BF400
00007D0FF000
0000F80FF000
01AAF41FE000
1FFFFFAFD000
7F4BC1BFD000
BD1F803FC000
BD3F407F8000
147F007F8000
00BE00BF4000
01FD00FF0000
02FC00FF0000
03F801FE0000
07F402FE0000
07F002FD0000
0BF003FC0000
0BE000000000
07E000000000
01F000000000
ENDCHAR
STARTCHAR uni04D3
ENCODING 1235
SWIDTH 526 0
DWIDTH 15 0
BBX 17 19 -1 0
BITMAP
0007D0F400
000BE2F800
0007D1F400
0000000000
0000000000
001BEBF400
00FFBFF000
02FD1FF000
0BF41FE000
0FF02FD000
2FD02FD000
3FD03FC000
3FC07F8000
7FC07F8000
7F80BF4180
7FC1FF4340
3FEBFFEE00
2FFE7FF800
0BE41F9000
ENDCHAR
STARTCHAR uni04D4
ENCODING 1236
SWIDTH 764 0
DWIDTH 21 0
BBX 26 24 0 -3
BITMAP
00000006F80010
0000002FFF41D0
000000B7FFFFC0
000003D7FFFF40
00000B4BF86A00
00002E0BF40000
00007C0FF40000
0000F41FF00000
01AAF41FE00000
1FFFFFAFFFE000
7E4BC1BFFFD000
BD1F803FC00000
7D3F407F800000
007F007F800000
00BE00BF400000
01FD00FF000000
02FC00FF000000
03F801FE000000
07F402FFFFE000
07F002FFFFE000
0BF003FFFFD000
0BE00000000000
07E00000000000
02E00000000000
ENDCHAR
STARTCHAR uni04D5
ENCODING 1237
SWIDTH 650 0
DWIDTH 18 0
BBX 20 14 -1 0
BITMAP
001BF82FE0
00FAFFFEF4
02807FF878
00003FE0B8
00003FD0F4
00007FC2F0
01BFFF9BD0
0FFEFFFE00
2FD0FFA400
3F81FF4002
7FC2FF4009
3FFFBF8074
2FFD3FEBD0
0BE40BF900
ENDCHAR
STARTCHAR uni04D6
ENCODING 1238
SWIDTH 459 0
DWIDTH 13 0
BBX 16 26 0 0
BITMAP
0007D00D
000FE028
000BE6F0
0007FF80
00005400
0001BE40
001FEBD0
003F42E0
00BE01E0
00FD02E0
01FD07C0
01FD0000
00FE0000
007F8000
00BF9000
07FE0000
0FF80000
2FF00000
7FD00000
BFD00000
BFC00050
BFD000C0
BFE00B40
7FFFFE00
2FFFF400
06FE4000
ENDCHAR
STARTCHAR uni04D7
ENCODING 1239
SWIDTH 384 0
DWIDTH 11 0
BBX 13 19 -1 0
BITMAP
00BD01C0
00FD0380
00FD6F00
007FF800
00054000
001BE400
00BFBC00
02FC3D00
0BF43D00
0FF07C00
2FD0F400
3FD7E000
3FFF8000
7FE40000
7F800140
7FC00A00
3FE57800
2FFFE000
06FE4000
ENDCHAR
STARTCHAR uni04D8
ENCODING 1240
SWIDTH 544 0
DWIDTH 15 0
BBX 15 21 0 0
BITMAP
001BF900
01FFFF80
03FFFFE0
07D06FF4
03400FF8
00000BFC
000007FC
000007FC
00000BFC
0006BFFC
002FEFF8
01FD0FF8
07F41FF4
1FD02FE0
3F803FD0
7F407F80
7F00FF40
7F01FD00
3F47F400
2FEFD000
06F90000
ENDCHAR
STARTCHAR uni04D9
ENCODING 1241
SWIDTH 404 0
DWIDTH 11 0
BBX 11 14 0 0
BITMAP
06FE40
1FFFE0
2D5FF4
0007F8
0007F8
006BF8
07FFF8
1F8BF4
7D0FF0
B81FE0
F43FC0
F4BF40
BEFD00
2F9000
ENDCHAR
STARTCHAR uni04DC
ENCODING 1244
SWIDTH 777 0
DWIDTH 22 0
BBX 24 26 -1 0
BITMAP
000002E0B800
000003F4FD00
000002E0B800
000000000000
000000000000
007E001640BD
01FF80FF07FF
01FFD0FF0FFF
00B6E1FE2F2E
0000E1FE3C00
0000F2FDB800
0000B3FCF000
0000B3FDE000
0000B7FAD000
0000BBFAC000
002BFFFFFD00
00FFEFFAFF40
02FD0FF07F40
03F81FE07F40
07F42FD07F40
0BF02FD0BF00
0FF03FC0FE00
0FE07F81FD00
1FD0BF82FD00
2FC0BF42FD00
BF40FF01FE00
ENDCHAR
STARTCHAR uni04DD
ENCODING 1245
SWIDTH 882 0
DWIDTH 25 0
BBX 27 19 -1 0
BITMAP
000002E0B80000
000003F4FD0000
000002E0B80000
00000000000000
00000000000000
01FE00BF00BF40
0BBFC0BF07FBC0
1C0FD0FE0FD3D0
240BE1FD2F83C0
000BE1FD3F4000
000BFBFEBF0000
000FFFFFFE0000
000FD3F8BE0000
101FC7F4FE0004
B82F8BF4FE0024
F43F0BF0FE0060
F47E0FE0BF01C0
BEF80FE03FEE00
2FD01FD00BE400
ENDCHAR
STARTCHAR uni04DE
ENCODING 1246
SWIDTH 525 0
DWIDTH 15 0
BBX 16 26 -1 0
BITMAP
0001E078
0003F4FD
0001E078
00000000
00000000
0006FF80
001FBFF0
00740BF8
00D007F8
014007F8
00000BF8
00001FF4
00007FD0
001AFE40
002FFE00
0000BFC0
00002FE0
00001FF0
00001FF4
05001FF4
2F402FF0
3E003FE0
7E007FC0
3F01FF40
2FEBFD00
06FF9000
ENDCHAR
STARTCHAR uni04DF
ENCODING 1247
SWIDTH 498 0
DWIDTH 14 0
BBX 15 26 0 -7
BITMAP
007C1F40
00BE2F80
007D1F40
00000000
00000000
006FE000
02FFFC00
07FFFE00
0F42FE00
2D01FF00
3801FE00
7001FE00
6002FD00
9007F800
401FE008
02FF4018
02BF8034
002FD0A0
001FFB80
001FF900
01BFF000
0B9FE000
1D1FE000
1D3FC000
1FFF4000
06F90000
ENDCHAR
STARTCHAR uni04E2
ENCODING 1250
SWIDTH 705 0
DWIDTH 20 0
BBX 21 25 0 0
BITMAP
00000AAAA800
00000FFFFC00
000000000000
000000000000
0006FD00BF40
007FFC01FF40
02E7F803FF00
0B87F807FE00
2F0BF40FFE00
7D0FF02FFD00
BC0FF03FFD00
BC1FE0BBFC00
7C2FD1F7F800
2C2FD2D7F800
003FC7CBF400
007FCF4FF000
007FAE0FF000
00BFBD1FE000
00BFF82FD000
00FFF02FD000
01FFD03FC000
01FF807FC000
02FF407F8000
03FE00BF4000
03FC00FF4000
ENDCHAR
STARTCHAR uni04E3
ENCODING 1251
SWIDTH 505 0
DWIDTH 14 0
BBX 16 18 -1 0
BITMAP
002AAAA0
007FFFE0
00000000
00000000
07F81FE0
07F82FE0
0BF42FD0
0FF43FC0
0FF03FC0
1FE07F80
1FE0BF40
2FD0BF40
3FC0FF00
3FC1FF03
7FC3FE0A
3FEEFFBC
2FFCBFF4
0BE02F80
ENDCHAR
STARTCHAR uni04E4
ENCODING 1252
SWIDTH 705 0
DWIDTH 20 0
BBX 21 26 0 0
BITMAP
000007D1F400
00000BE2F800
000007D1F400
000000000000
000000000000
0006FD00BF40
007FFC01FF40
02E7F803FF00
0B87F807FE00
2F0BF40FFE00
7D0FF02FFD00
BC0FF03FFD00
BC1FE0BBFC00
7C2FD1F7F800
2C2FD2D7F800
003FC7CBF400
007FCF4FF000
007FAE0FF000
00BFBD1FE000
00BFF82FD000
00FFF02FD000
01FFD03FC000
01FF807FC000
02FF407F8000
03FE00BF4000
03FC00FF4000
ENDCHAR
STARTCHAR uni04E5
ENCODING 1253
SWIDTH 505 0
DWIDTH 14 0
BBX 16 19 -1 0
BITMAP
001E0780
003F4FD0
001E0780
00000000
00000000
07F81FE0
07F82FE0
0BF42FD0
0FF43FC0
0FF03FC0
1FE07F80
1FE0BF40
2FD0BF40
3FC0FF00
3FC1FF03
7FC3FE0A
3FEEFFBC
2FFCBFF4
0BE02F80
ENDCHAR
STARTCHAR uni04E6
ENCODING 1254
SWIDTH 665 0
DWIDTH 19 0
BBX 19 26 0 0
BITMAP
00000B82E0
00001FC7F0
00000B82E0
0000000000
0000000000
0001AFE800
002FFAFF40
01FD041FD0
07E0BD0BE0
1F83F80BF0
3E0BF007F4
7D1FD007F4
BC3FC007F4
7C7F800BF4
2CFF400BF4
01FF000FF0
01FE000FE0
02FE001FD0
02FD002FD0
03FD007F80
03FD00BF40
03FD01FE00
02FD03FC00
01FF5FF000
00BFFF8000
001BF90000
ENDCHAR
STARTCHAR uni04E7
ENCODING 1255
SWIDTH 439 0
DWIDTH 12 0
BBX 17 19 -1 0
BITMAP
001F47D000
002F8BE000
001F47D000
0000000000
0000000000
001BE40000
00BFBD0000
02FD2E0000
0BF42E0280
0FF07FAE00
2FE03F9000
3FD02E0000
3FC03D0000
7FC03D0000
7F80BC0000
7FC0F40000
3FD6E00000
2FFF800000
06F9000000
ENDCHAR
STARTCHAR uni04E8
ENCODING 1256
SWIDTH 665 0
DWIDTH 19 0
BBX 19 21 0 0
BITMAP
0001AFE800
002FFAFF40
01FD041FD0
07E0BE0BE0
1F83F80BF0
3E0BF007F4
7D1FD007F4
BC3FC007F4
7C7F800BF4
2CFF400BF4
01FFFFFFF0
01FE555FE0
02FE001FD0
02FD002FD0
03FD003F80
03FD00BF40
03FD00FE00
02FD02FC00
01FE0BF000
00BFBF8000
001BF90000
ENDCHAR
STARTCHAR uni04E9
ENCODING 1257
SWIDTH 439 0
DWIDTH 12 0
BBX 17 14 -1 0
BITMAP
001BE40000
00BFBD0000
02FD2E0000
0BF42E0280
0FF07FAE00
2FFABF9000
3FFFFF0000
3FC03D0000
7FC03D0000
7F80BC0000
7FC0F40000
3FD6E00000
2FFF800000
06F9000000
ENDCHAR
STARTCHAR uni04EE
ENCODING 1262
SWIDTH 644 0
DWIDTH 18 0
BBX 20 25 0 0
BITMAP
000006AAA9
00000BFFFD
0000000000
0000000000
0006FD000E
007FFE001D
02E6FF003C
0B81FF0078
2F01FF40B0
7D00FF80E0
BC00BF82D0
BC007FC380
7C003FD740
18002FDF00
00002FFE00
00001FFC00
00000FF800
00000BF400
000007F000
000007D000
000003C000
000B878000
000FEF0000
000FFD0000
0007E40000
ENDCHAR
STARTCHAR uni04EF
ENCODING 1263
SWIDTH 486 0
DWIDTH 14 0
BBX 16 25 -1 -7
BITMAP
002AAAA0
007FFFE0
00000000
00000000
07F81FE0
07F82FE0
0BF42FD0
0FF43FC0
0FF03FC0
1FE07F80
1FE0BF40
2FD0BF40
3FC0FF00
3FC1FE0A
7FC3FE0D
3FEFFD28
2FFFFDE0
0BE7FF40
001FF800
01FBF800
078BF400
0B0FF000
0B6FE000
07FFC000
01FE0000
ENDCHAR
STARTCHAR uni04F0
ENCODING 1264
SWIDTH 644 0
DWIDTH 18 0
BBX 20 26 0 0
BITMAP
000002E0B8
000007F1FC
000002E0B8
0000000000
0000000000
0006FD000E
007FFE001D
02E6FF003C
0B81FF0078
2F01FF40B0
7D00FF80E0
BC00BF82D0
BC007FC380
7C003FD740
18002FDF00
00002FFE00
00001FFC00
00000FF800
00000BF400
000007F000
000007D000
000003C000
000B878000
000FEF0000
000FFD0000
0007E40000
ENDCHAR
STARTCHAR uni04F1
ENCODING 1265
SWIDTH 486 0
DWIDTH 14 0
BBX 16 26 -1 -7
BITMAP
001E0780
003F4FD0
002E0780
00000000
00000000
07F81FE0
07F82FE0
0BF42FD0
0FF43FC0
0FF03FC0
1FE07F80
1FE0BF40
2FD0BF40
3FC0FF00
3FC1FE0A
7FC3FE0D
3FEFFD28
2FFFFDE0
0BE7FF40
001FF800
01FBF800
078BF400
0B0FF000
0B6FE000
07FFC000
01FE0000
ENDCHAR
STARTCHAR uni04F2
ENCODING 1266
SWIDTH 644 0
DWIDTH 18 0
BBX 21 28 0 0
BITMAP
0000003F1F40
0000007D3E00
000000F47C00
000001E0F000
00000381D000
000000000000
000000000000
0006FD000E00
007FFE001D00
02E6FF003C00
0B81FF007800
2F01FF40B000
7D00FF80E000
BC00BF82D000
BC007FC38000
7C003FD74000
18002FDF0000
00002FFE0000
00001FFC0000
00000FF80000
00000BF40000
000007F00000
000007D00000
000003C00000
000B87800000
000FEF000000
000FFD000000
0007E4000000
ENDCHAR
STARTCHAR uni04F3
ENCODING 1267
SWIDTH 486 0
DWIDTH 14 0
BBX 16 28 -1 -7
BITMAP
0002F4F8
0003D2F0
000B83D0
000F0B40
002C0E00
00000000
00000000
07F81FE0
07F82FE0
0BF42FD0
0FF43FC0
0FF03FC0
1FE07F80
1FE0BF40
2FD0BF40
3FC0FF00
3FC1FE0A
7FC3FE0D
3FEFFD28
2FFFFDE0
0BE7FF40
001FF800
01FBF800
078BF400
0B0FF000
0B6FE000
07FFC000
01FE0000
ENDCHAR
STARTCHAR uni04F4
ENCODING 1268
SWIDTH 695 0
DWIDTH 19 0
BBX 20 26 0 0
BITMAP
000007D1F4
00000BE2F8
000007D1F4
0000000000
0000000000
0006FC00FF
007FFC00FF
02FBF801FE
0B87F801FE
2F0BF402FD
7D0FF003FC
BD0FF003FC
BC1FE007F8
BC1FE007F4
3C1FE00BF4
040FF42FF0
000BFFFFE0
0001BE9FE0
0000002FD0
0000002FD0
0000003FC0
0000007F80
0000007F80
000000BF40
000000FF00
000000FF00
ENDCHAR
STARTCHAR uni04F5
ENCODING 1269
SWIDTH 505 0
DWIDTH 14 0
BBX 15 19 0 0
BITMAP
00B82E00
00FD3F40
00B82E00
00000000
00000000
1FF07F80
1FE07F80
2FD0BF40
2FD0FF00
3FC0FF00
7F81FE00
7F83FD00
7FEFFD00
3FFFFC00
0BE7FC0C
0007F828
0007FEB4
0003FFD0
0001BE00
ENDCHAR
STARTCHAR uni04F6
ENCODING 1270
SWIDTH 442 0
DWIDTH 12 0
BBX 18 26 0 -5
BITMAP
001AFFFFE0
01FFFFFFD0
0BD7FEBF80
2F07F80000
3E0BF40000
7D0FF00000
BD0FF00000
BD1FE00000
7D2FD00000
192FD00000
003FC00000
007FC00000
007F800000
00BF400000
00BF400000
00FF000000
01FE000000
01FE000000
02FD000000
03FC000000
03FE000000
002FD10000
001FFE0000
000BFE0000
0007FC0000
0002F40000
ENDCHAR
STARTCHAR uni04F7
ENCODING 1271
SWIDTH 375 0
DWIDTH 11 0
BBX 12 21 -1 -7
BITMAP
00BF90
03FFF4
0BFFF8
1D0BF8
380BF4
201FE0
007F80
07FD00
1FE000
7FC002
BF8009
BFD5B8
7FFFD0
1BFE00
00D000
03E000
07F400
07F800
02F400
00E000
004000
ENDCHAR
STARTCHAR uni04F8
ENCODING 1272
SWIDTH 909 0
DWIDTH 25 0
BBX 26 26 0 0
BITMAP
0000001F43D000
0000002F8BE000
0000001F47D000
00000000000000
00000000000000
0006BC00000FF0
007FFC00000FF0
02E7F800001FE0
0F87F800002FE0
2E0BF400002FD0
7D0FF000003FC0
BC0FF000003FC0
BC1FE000007F80
7C2FE69000BF40
042FFFFD00BF40
003FC1FF40FF00
007F807F81FE00
007F803FC1FE00
00BF403FC2FD00
00BF003FC3FD00
00FF007F83FC00
01FE00BF47F800
01FE41FF07F800
02FDFFFD0BF400
03FCBFF80FF000
03FC2F900FF000
ENDCHAR
STARTCHAR uni04F9
ENCODING 1273
SWIDTH 642 0
DWIDTH 18 0
BBX 19 19 0 0
BITMAP
0006419000
000FD3F400
000BC2F000
0001004000
0000000000
0A90000640
1FD0006F40
2FD002FF40
2FC01FFF00
3F9AF8FE00
7FAFD0FE00
7F46E1FD00
BF01F2FC00
FF01F2FC00
FE02E3F81C
FE07D3F828
FF6F83FEF0
BFFE02FFD0
1BE400BE40
ENDCHAR
STARTCHAR uni051A
ENCODING 1306
SWIDTH 665 0
DWIDTH 19 0
BBX 19 24 0 -3
BITMAP
0001AFE800
002FFAFF40
01F9041FD0
0BD0BD0BE0
1F47F80BF0
3E0FF007F4
7D2FD007F4
BC3FC007F4
7C7F800BF4
18FF400BF4
01FF000FF0
01FE001FE0
02FD002FE0
02FD003FD0
03FD007FC0
03FD00FF40
03FEFAFE00
02FE6FFD00
01FF1FF400
00BFBFD000
001BFFE000
000003FD40
000002FF80
000000BE00
ENDCHAR
STARTCHAR uni051B
ENCODING 1307
SWIDTH 486 0
DWIDTH 14 0
BBX 15 21 -1 -7
BITMAP
001BEBF4
00FFBFF0
02FC1FF0
0BF41FE0
0FE02FD0
2FD02FD0
3FC03FC0
3FC07F80
7F807F80
7F80BF40
7FC1FF00
3FFFFF00
2FFFFE00
0BE6FD00
0002FD00
0003FC00
0007FC00
0007F800
000BF400
000BF400
00090000
ENDCHAR
STARTCHAR uni051C
ENCODING 1308
SWIDTH 962 0
DWIDTH 27 0
BBX 29 21 0 0
BITMAP
0006FC003F800780
007FFC007F800B40
02E7FC00BFC00F00
0F83FC00FFC01E00
3E03FD01FFC02D00
7D03FD02FFC03C00
BC03FD03FFC07400
B803FD07BFC0B000
B803FD0B7FC0E000
2803FD0E7FC1D000
0003FD1D3FC2C000
0003FD2C3FC38000
0002FD383FC74000
0002FD743FCB0000
0002FDB03FCE0000
0002FDD03FDC0000
0002FEC03FE80000
0002FF803FF40000
0002FF403FF00000
0002FF003FE00000
0002FE003FD00000
ENDCHAR
STARTCHAR uni051D
ENCODING 1309
SWIDTH 661 0
DWIDTH 19 0
BBX 19 14 -1 0
BITMAP
07F81FE0B4
07F82FE1FC
0BF42FD0BC
0FF43FC02C
0FF03FC02C
1FE07F8038
1FE0BF4074
2FD0BF40B4
3FC0FF01E0
3FC1FF02D0
7FC3FE0B80
3FEFFFBF00
2FFCFFFD00
0BE02FE000
ENDCHAR
STARTCHAR uni0524
ENCODING 1316
SWIDTH 742 0
DWIDTH 21 0
BBX 22 26 0 -5
BITMAP
001AFFA50060
01FFFFFFFFF0
0BFFFFFFFFD0
2F97F85BFE40
3F0BF407F800
7D0BF40BF400
BC0FF00FF000
BC1FE00FF000
7C1FE01FE000
2C2FD02FD000
003FC02FD000
003FC03FC000
007F807FC000
00BF407F8000
00BF40BF4000
00FF00FF4000
01FE00FF0000
01FE01FE0000
02FD02FE0000
03FC02FD0000
03FC03FE0000
0000002FD100
0000001FFE00
0000000BFE00
00000007FC00
00000002F400
ENDCHAR
STARTCHAR uni0525
ENCODING 1317
SWIDTH 505 0
DWIDTH 14 0
BBX 16 21 -1 -7
BITMAP
07F9BE00
07FFFF80
0BFD7FC0
0FF43FC0
0FF03FC0
1FE07F80
1FE07F40
2FD0BF40
3FC0FF01
3FC0FE07
7F80FE0A
BF40FFBC
BF40BFF4
FF002F90
00000900
00002E00
00003F40
00003F80
00001F40
00000E00
00000400
ENDCHAR
STARTCHAR uni1E0C
ENCODING 7692
SWIDTH 663 0
DWIDTH 19 0
BBX 18 27 0 -6
BITMAP
0006BFA000
007FEBFD00
02F4007F40
0F86A42FC0
3F0BF40FD0
7D0FF00FE0
BC1FE00BF0
BC1FE00FF0
B82FD00FF0
2C3FC00FF0
003FC00FF0
007F801FE0
00BF401FD0
00BF402FD0
00FF003F80
01FF00BF40
01FE00FF00
02FD02FD00
02FE5BF800
03FFFFE000
07F9BE4000
0000000000
0000000000
000B800000
002FE00000
002FE00000
000B800000
ENDCHAR
STARTCHAR uni1E0D
ENCODING 7693
SWIDTH 525 0
DWIDTH 15 0
BBX 17 26 -1 -6
BITMAP
0000000500
000002FD00
000002FD00
000003FC00
000007F800
000007F800
001BEBF400
00FFBFF000
02FC1FF000
0BF41FE000
0FE02FD000
2FD02FD000
3FC03FC000
3FC07F8000
7F807F8040
7F80BF4280
7FC1FF4740
3FFFBFFE00
2FFE3FF800
0BE41FD000
0000000000
0000000000
00B9000000
01FE000000
01FE000000
00B9000000
ENDCHAR
STARTCHAR uni1E20
ENCODING 7712
SWIDTH 578 0
DWIDTH 16 0
BBX 16 32 0 -6
BITMAP
0002AAAA
0007FFFE
00000000
00000000
00000000
0001BFA0
002FFAFC
00FF903E
03FE002F
0BFC003E
1FF400BD
2FE00014
3FD00000
7FC00000
7FC000A8
7FC001FC
7FC002F8
7FC007F8
3FD00FF4
2FF46FF0
0BFFEFF0
02FF8FE0
00001FD0
00001FD0
00692FC0
03FF3F80
0BD17F40
0F407F00
0F40FE00
0B82F800
03FFE000
006A4000
ENDCHAR
STARTCHAR uni1E21
ENCODING 7713
SWIDTH 507 0
DWIDTH 14 0
BBX 16 26 -1 -7
BITMAP
001AAAA4
003FFFF0
00000000
00000000
00000000
001BEBF4
00FFBFF0
02FC1FF0
0BF41FE0
0FE02FD0
2FD02FD0
3FC03FC0
3FC07F80
7F807F81
7F80BF43
7FC1FF0A
3FFFFF1C
2FFFFFB4
0BE6FF80
001BFD00
00BFFC00
02D3FC00
0387F800
034BF400
03EFE000
00BE4000
ENDCHAR
STARTCHAR uni1E24
ENCODING 7716
SWIDTH 665 0
DWIDTH 19 0
BBX 20 27 0 -6
BITMAP
0006FD02FD
006FFC03FC
02FFF803FC
0BD7F807F8
2F4BF407F4
3E0BF40BF4
7D0FF00FF0
BC1FE00FF0
BC1FE01FE0
3C2FFFFFD0
043FFFFFD0
003FC03FC0
007F803F80
00BF807F80
00BF40BF40
00FF00BF00
01FF00FF00
01FE01FE00
02FD01FE00
03FC02FD00
03FC03FC00
0000000000
0000000000
0007D00000
000FF40000
000FF40000
0007E00000
ENDCHAR
STARTCHAR uni1E25
ENCODING 7717
SWIDTH 505 0
DWIDTH 14 0
BBX 16 26 -1 -6
BITMAP
00050000
00FF0000
01FE0000
02FE0000
02FD0000
03FC0000
03FCBE00
07FFFF80
0BFFFFC0
0BF83FC0
0FF43FC0
1FF03F80
1FE07F40
2FD0BF00
3FD0BF00
3FC0FE07
7F80FE0A
BF80FFFC
BF40BFF4
FF002F90
00000000
00000000
00B80000
02FE0000
02FE0000
00B80000
ENDCHAR
STARTCHAR uni1E2A
ENCODING 7722
SWIDTH 665 0
DWIDTH 19 0
BBX 20 27 0 -6
BITMAP
0006FD02FD
006FFC03FC
02FFF803FC
0BD7F807F8
2F4BF407F4
3E0BF40BF4
7D0FF00FF0
BC1FE00FF0
BC1FE01FE0
3C2FFFFFD0
043FFFFFD0
003FC03FC0
007F803F80
00BF807F80
00BF40BF40
00FF00BF00
01FF00FF00
01FE01FE00
02FD01FE00
03FC02FD00
03FC03FC00
0000000000
0050014000
01F007C000
00F95F4000
007FF90000
0001400000
ENDCHAR
STARTCHAR uni1E2B
ENCODING 7723
SWIDTH 505 0
DWIDTH 14 0
BBX 16 26 -1 -6
BITMAP
00050000
00FF0000
01FE0000
02FE0000
02FD0000
03FC0000
03FCBE00
07FFFF80
0BFFFFC0
0BF83FC0
0FF43FC0
1FF03F80
1FE07F40
2FD0BF00
3FD0BF00
3FC0FE07
7F80FE0A
BF80FFFC
BF40BFF4
FF002F90
00000000
14001000
3D00F400
2F57E000
0BFF4000
00500000
ENDCHAR
STARTCHAR uni1E36
ENCODING 7734
SWIDTH 379 0
DWIDTH 11 0
BBX 19 28 0 -7
BITMAP
0006FC0000
007FF80000
03EBF80000
1F4BF40000
3E0FF00000
7D0FF00000
BC1FE00000
B82FD00000
B82FD00000
183FC00000
007F800000
007F800000
00BF400000
00FF400000
00FF000000
01FE000000
01FE000000
02FD000000
03FC000000
03FC000000
07FF400000
006FF40000
0002FE0000
07E07FE404
0FF41FFFF4
0FF407FFF0
07E000BFE0
0000001B80
ENDCHAR
STARTCHAR uni1E37
ENCODING 7735
SWIDTH 293 0
DWIDTH 8 0
BBX 10 26 0 -6
BITMAP
000100
01FE00
02FD00
02FD00
03FC00
07F800
07F800
0BF400
0FF400
0FF000
1FE000
2FE000
2FD000
3FC000
7FC000
7F80D0
7F8280
7FEB40
3FFD00
1BE000
000000
000000
7D0000
FF0000
FF0000
7D0000
ENDCHAR
STARTCHAR uni1E42
ENCODING 7746
SWIDTH 787 0
DWIDTH 22 0
BBX 21 27 2 -6
BITMAP
001BFC00BF40
01BFFC00FF40
07D7FC02FF00
1F4BF803FF00
7D0FF807FF00
BC1FF80BFE00
F82FF81FFE00
F87FF82FFD00
B8BFF83FFD00
28FBF87BFD00
01F7F8B7FC00
02E7F5F7FC00
03D7F6E7F800
07C7F7C7F800
0B47FB8BF400
0F0BFF4BF400
1E0BFF0BF400
3D0BFE0FF000
7C0BFC0FF000
B80BF81FE000
F40BF41FE000
000000000000
000000000000
001B80000000
002FD0000000
002FD0000000
001B80000000
ENDCHAR
STARTCHAR uni1E43
ENCODING 7747
SWIDTH 752 0
DWIDTH 21 0
BBX 23 20 -1 -6
BITMAP
07F9BE06F800
07FFFFAFFE00
0BFD7FF5FF00
0FF43FD0FF00
0FF07FC0FE00
1FE07F81FE00
1FE0BF42FD00
2FD0BF42FC00
3FC0FF03F804
3FC1FE03F81C
7F81FE07F838
BF42FD07FFF0
BF43FD02FFD0
FF03FC00BE40
000000000000
000000000000
0006E0000000
000BF4000000
000BF4000000
0006E0000000
ENDCHAR
STARTCHAR uni1E44
ENCODING 7748
SWIDTH 668 0
DWIDTH 19 0
BBX 20 27 0 0
BITMAP
0000001F40
0000003FC0
0000007FC0
0000001F40
0000000000
0000000000
001BF8002F
01FFFC003E
0BE7FD003E
2F4BFE007D
3E0BFE00BC
BD0FFF00BC
BC1FFF40F8
BC1FFF40F4
BC2F7F81F4
3D3F3FC2F0
053E2FC2E0
007D2FD3E0
00BD1FE7D0
00BC0FE7D0
00F80FFBC0
01F80BFF80
01F407FF80
02F003FF40
03E003FF00
03E002FF00
07D001FE00
ENDCHAR
STARTCHAR uni1E45
ENCODING 7749
SWIDTH 505 0
DWIDTH 14 0
BBX 16 21 -1 0
BITMAP
0000B800
0002FE00
0002FE00
0000B800
00000000
00000000
00000000
07F9BE00
07FFFF80
0BFD7FC0
0FF43FC0
0FF03FC0
1FE07F80
1FE07F40
2FD0BF00
3FC0FF01
3FC0FE07
7F80FE0A
BF40FFFC
BF40BFF4
FF002F90
ENDCHAR
STARTCHAR uni1E46
ENCODING 7750
SWIDTH 668 0
DWIDTH 19 0
BBX 20 27 0 -6
BITMAP
001BF8002F
01FFFC003E
0BE7FD003E
2F4BFE007D
3E0BFE00BC
BD0FFF00BC
BC1FFF40F8
BC1FFF40F4
BC2F7F81F4
3D3F3FC2F0
053E2FC2E0
007D2FD3E0
00BD1FE7D0
00BC0FE7D0
00F80FFBC0
01F80BFF80
01F407FF80
02F003FF40
03E003FF00
03E002FF00
07D001FE00
0000000000
0000000000
0002E00000
000BF40000
000BF40000
0002E00000
ENDCHAR
STARTCHAR uni1E47
ENCODING 7751
SWIDTH 505 0
DWIDTH 14 0
BBX 16 20 -1 -6
BITMAP
07F9BE00
07FFFF80
0BFD7FC0
0FF43FC0
0FF03FC0
1FE07F80
1FE07F40
2FD0BF00
3FC0FF01
3FC0FE07
7F80FE0A
BF40FFFC
BF40BFF4
FF002F90
00000000
00000000
00B90000
01FE0000
01FE0000
00B90000
ENDCHAR
STARTCHAR uni1E5A
ENCODING 7770
SWIDTH 601 0
DWIDTH 17 0
BBX 17 27 0 -6
BITMAP
0006FF9000
007FEBF800
03F4007E00
1F86B42F40
3E0BF42F40
7D0FF02F40
BC1FE03E00
B81FE0BD00
782FD6F400
183FFFE400
003FC3FC00
007F82FD00
00BF42FD00
00BF42FC00
00FF03FC00
01FE07F800
01FE07F400
02FD0BF000
03FD0FF000
03FC0FF000
07F807F400
0000000000
0000000000
0007D00000
000FF00000
000FF00000
0007D00000
ENDCHAR
STARTCHAR uni1E5B
ENCODING 7771
SWIDTH 376 0
DWIDTH 11 0
BBX 13 20 -2 -6
BITMAP
01FE2F40
01FFFF80
02FF6F80
03FD0F40
03FC0000
07F80000
07F80000
0BF40000
0FF00000
0FF00000
1FE00000
2FD00000
2FD00000
3FC00000
00000000
00000000
2F400000
7FC00000
7FC00000
2F400000
ENDCHAR
STARTCHAR uni1E60
ENCODING 7776
SWIDTH 570 0
DWIDTH 16 0
BBX 15 27 1 0
BITMAP
00002E40
00007F80
00007F80
00002E40
00000000
00000000
0006FE40
003FEBE0
00FF02F4
01FD01F4
02FD01F4
02FE03F0
01FF0190
00FF8000
007FE000
002FF800
000BFE00
0002FF40
0B90FF80
3FF07FD0
BF403FD0
FD003FD0
FC003FC0
FD007F80
7F41FF00
2FFFF800
06FF9000
ENDCHAR
STARTCHAR uni1E61
ENCODING 7777
SWIDTH 382 0
DWIDTH 11 0
BBX 13 21 -1 0
BITMAP
0007D000
000FF000
000FF000
0007D000
00000000
00000000
001A9000
007FD000
00BFD000
00FFD000
01EFD000
02AFD000
076FE000
0A2FE000
1D1FE000
7D1FE000
BE1FE240
E81FF900
B02FF400
7EFF8000
1BF90000
ENDCHAR
STARTCHAR uni1E62
ENCODING 7778
SWIDTH 570 0
DWIDTH 16 0
BBX 15 27 1 -6
BITMAP
0006FE40
003FEBE0
00FF02F4
01FD01F4
02FD01F4
02FE03F0
01FF0190
00FF8000
007FE000
002FF800
000BFE00
0002FF40
0B90FF80
3FF07FD0
BF403FD0
FD003FD0
FC003FC0
FD007F80
7F41FF00
2FFFF800
06FF9000
00000000
00000000
02E40000
07F80000
07F80000
02E40000
ENDCHAR
STARTCHAR uni1E63
ENCODING 7779
SWIDTH 382 0
DWIDTH 11 0
BBX 13 21 -1 -6
BITMAP
00158000
007FD000
00BFD000
00FFD000
01EFD000
02AFD000
036FE000
0A2FE000
1D1FE000
7D1FE000
BD1FE240
E41FFD00
B02FE000
7EFF4000
1BF90000
00000000
00000000
1F400000
3FD00000
3FD00000
1F400000
ENDCHAR
STARTCHAR uni1E6C
ENCODING 7788
SWIDTH 481 0
DWIDTH 13 0
BBX 20 27 0 -6
BITMAP
001BFE4001
01FFFFF907
0BE5BFFFFE
2F40FFFFFD
3E00FFABE4
7C01FF0000
BC02FE0000
B802FE0000
B803FD0000
7807FC0000
1807FC0000
000BF80000
000BF40000
000FF00000
001FF00000
001FE00000
002FD00000
003FD00000
003FC00000
007F800000
00BF800000
0000000000
0000000000
00BD000000
01FF000000
01FF000000
00BD000000
ENDCHAR
STARTCHAR uni1E6D
ENCODING 7789
SWIDTH 267 0
DWIDTH 7 0
BBX 11 25 -2 -6
BITMAP
000040
007F80
00BF40
00BF40
00FF00
03FFE0
02FF90
02FE00
02FD00
03FC00
07FC00
07F800
0BF400
0FF400
0FF024
1FF070
0FFAD0
0BFF80
02F900
000000
000000
2F4000
7FC000
7FC000
2F4000
ENDCHAR
STARTCHAR Wgrave
ENCODING 7808
SWIDTH 962 0
DWIDTH 27 0
BBX 29 27 0 0
BITMAP
00000000BD000000
000000007D000000
000000003E000000
000000002E000000
000000001F000000
0000000000000000
0006FC003F800780
007FFC007F800B40
02E7FC00BFC00F00
0F83FC00FFC01E00
3E03FD01FFC02D00
7D03FD02FFC03C00
BC03FD03FFC07400
B803FD07BFC0B000
B803FD0B7FC0E000
2803FD0E7FC1D000
0003FD1D3FC2C000
0003FD2C3FC38000
0002FD383FC74000
0002FD743FCB0000
0002FDB03FCE0000
0002FDD03FDC0000
0002FEC03FE80000
0002FF803FF40000
0002FF403FF00000
0002FF003FE00000
0002FE003FD00000
ENDCHAR
STARTCHAR wgrave
ENCODING 7809
SWIDTH 661 0
DWIDTH 19 0
BBX 19 21 -1 0
BITMAP
0000BD0000
00007D0000
00003E0000
00002E0000
00001F0000
0000000000
0000000000
07F81FE0B4
07F82FE1FC
0BF42FD0BC
0FF43FC02C
0FF03FC02C
1FE07F8038
1FE0BF4074
2FD0BF40B4
3FC0FF01E0
3FC1FF02D0
7FC3FE0B80
3FEFFFBF00
2FFCFFFD00
0BE02FE000
ENDCHAR
STARTCHAR Wacute
ENCODING 7810
SWIDTH 962 0
DWIDTH 27 0
BBX 29 28 0 0
BITMAP
0000000000290000
0000000000BC0000
0000000001F40000
0000000002E00000
0000000007C00000
0000000006400000
0000000000000000
0006FC003F800780
007FFC007F800B40
02E7FC00BFC00F00
0F83FC00FFC01E00
3E03FD01FFC02D00
7D03FD02FFC03C00
BC03FD03FFC07400
B803FD07BFC0B000
B803FD0B7FC0E000
2803FD0E7FC1D000
0003FD1D3FC2C000
0003FD2C3FC38000
0002FD383FC74000
0002FD743FCB0000
0002FDB03FCE0000
0002FDD03FDC0000
0002FEC03FE80000
0002FF803FF40000
0002FF403FF00000
0002FF003FE00000
0002FE003FD00000
ENDCHAR
STARTCHAR wacute
ENCODING 7811
SWIDTH 661 0
DWIDTH 19 0
BBX 19 21 -1 0
BITMAP
0000007E00
000000BC00
000000F400
000002E000
000003D000
0000068000
0000000000
07F81FE0B4
07F82FE1FC
0BF42FD0BC
0FF43FC02C
0FF03FC02C
1FE07F8038
1FE0BF4074
2FD0BF40B4
3FC0FF01E0
3FC1FF02D0
7FC3FE0B80
3FEFFFBF00
2FFCFFFD00
0BE02FE000
ENDCHAR
STARTCHAR Wdieresis
ENCODING 7812
SWIDTH 962 0
DWIDTH 27 0
BBX 29 26 0 0
BITMAP
00000002E0B80000
00000003F4FD0000
00000002E0B80000
0000000000000000
0000000000000000
0006FC003F800780
007FFC007F800B40
02E7FC00BFC00F00
0F83FC00FFC01E00
3E03FD01FFC02D00
7D03FD02FFC03C00
BC03FD03FFC07400
B803FD07BFC0B000
B803FD0B7FC0E000
2803FD0E7FC1D000
0003FD1D3FC2C000
0003FD2C3FC38000
0002FD383FC74000
0002FD743FCB0000
0002FDB03FCE0000
0002FDD03FDC0000
0002FEC03FE80000
0002FF803FF40000
0002FF403FF00000
0002FF003FE00000
0002FE003FD00000
ENDCHAR
STARTCHAR wdieresis
ENCODING 7813
SWIDTH 661 0
DWIDTH 19 0
BBX 19 19 -1 0
BITMAP
0001F47D00
0002F8BE00
0001F47D00
0000000000
0000000000
07F81FE0B4
07F82FE1FC
0BF42FD0BC
0FF43FC02C
0FF03FC02C
1FE07F8038
1FE0BF4074
2FD0BF40B4
3FC0FF01E0
3FC1FF02D0
7FC3FE0B80
3FEFFFBF00
2FFCFFFD00
0BE02FE000
ENDCHAR
STARTCHAR uni1E8E
ENCODING 7822
SWIDTH 620 0
DWIDTH 17 0
BBX 20 27 0 0
BITMAP
0000002E40
0000007F80
0000007F80
0000002E40
0000000000
0000000000
0006FD002D
007FFD003C
02E3FE0074
0F82FF00B0
3E01FF40E0
7D00FF42C0
BC00FF8380
B800BFC740
B8007FCA00
28003FED00
00003FFC00
00002FF400
00001FF000
00002FF000
00002FE000
00003FD000
00007FD000
00007FC000
0000BF8000
0000FF8000
0000FF4000
ENDCHAR
STARTCHAR uni1E8F
ENCODING 7823
SWIDTH 505 0
DWIDTH 14 0
BBX 16 28 -1 -7
BITMAP
0001F800
0003FD00
0003FD00
0001F800
00000000
00000000
00000000
07F81FE0
07F82FE0
0BF42FD0
0FF43FC0
0FF03FC0
1FE07F80
1FE0BF40
2FD0BF40
3FC0FF00
3FC1FE0A
7FC3FE0D
3FEFFD28
2FFFFDE0
0BE7FF40
001FF800
01FBF800
078BF400
0B0FF000
0B6FE000
07FFC000
01FE0000
ENDCHAR
STARTCHAR uni1E92
ENCODING 7826
SWIDTH 542 0
DWIDTH 15 0
BBX 16 34 0 -6
BITMAP
00000069
000000BC
000001F4
000002E0
000007C0
00000640
00000000
01BFFFFD
03FAAFF8
07D01FF4
0BD02FE0
02807FD0
0000BF80
0001FF40
0002FE00
0007FD00
000FF800
001FF400
003FE000
007FD000
00FF8000
01FF4000
03FE0000
07FD0190
0FF803F0
1FF403F0
3FFAAFD0
7FFFFE40
00000000
00000000
007D0000
01FF0000
01FF0000
007D0000
ENDCHAR
STARTCHAR uni1E93
ENCODING 7827
SWIDTH 428 0
DWIDTH 12 0
BBX 12 20 0 -6
BITMAP
02FFFE
0FABFC
1F47F8
1F0FF0
041FD0
003FC0
00BF40
01FE00
02FD00
07F800
0FF0B8
2FD0B8
3FFAF4
BFFF90
000000
000000
1B8000
2FD000
2FD000
1B8000
ENDCHAR
STARTCHAR uni1E97
ENCODING 7831
SWIDTH 267 0
DWIDTH 7 0
BBX 11 22 -1 0
BITMAP
02D1F4
07F2F8
02D1F4
000000
01BE00
02FE00
02FD00
03FC00
0FFF80
0BFE40
0BF800
0BF400
0FF000
1FF000
1FE000
2FD000
3FD000
3FC090
7FC1C0
3FEB40
2FFE00
0BE400
ENDCHAR
STARTCHAR uni1E9E
ENCODING 7838
SWIDTH 559 0
DWIDTH 16 0
BBX 19 28 -2 -7
BITMAP
00006FFFF8
0002FEAFF0
000BF42FE0
000FF07FC0
002FD0BF80
003FC1FF00
007FC2FE00
007F87FC00
00BF4BF800
00FF0FF000
00FF0BF000
01FE03F800
02FD01FD00
02FD00FE00
03FC00FF00
03F800FF00
07F800FE00
0BF401FD00
0BF003F800
0FF3AFE000
1FE1FE4000
1FD0000000
2FD0000000
2FC0000000
3FC0000000
7F80000000
7E40000000
5000000000
ENDCHAR
STARTCHAR uni1EA0
ENCODING 7840
SWIDTH 668 0
DWIDTH 19 0
BBX 20 27 0 -6
BITMAP
00000006FD
0000002FFC
000000BBFC
000002D7F8
00000B4BF8
00002E0BF4
00007D0FF0
0000F80FF0
01AAF41FE0
1FFFFFAFD0
7F4BC1BFD0
BD1F803FC0
BD3F407F80
147F007F80
00BE00BF40
01FD00FF00
02FC00FF00
03F801FE00
07F402FE00
07F002FD00
0BF003FC00
0BE0000000
07E0000000
02F02E0000
0000BF8000
0000BF8000
00002E0000
ENDCHAR
STARTCHAR uni1EA1
ENCODING 7841
SWIDTH 526 0
DWIDTH 15 0
BBX 17 20 -1 -6
BITMAP
001BEBF400
00FFBFF000
02FD1FF000
0BF41FE000
0FF02FD000
2FD02FD000
3FD03FC000
3FC07F8000
7FC07F8000
7F80BF4180
7FC1FF4340
3FEBFFEE00
2FFE7FF800
0BE41F9000
0000000000
0000000000
00B9000000
01FE000000
01FE000000
00B9000000
ENDCHAR
STARTCHAR uni1EA2
ENCODING 7842
SWIDTH 668 0
DWIDTH 19 0
BBX 21 31 0 -3
BITMAP
000000006900
00000002FF40
000000004780
000000000740
00000000BD00
00000000A000
000000000000
00000006FD00
0000002FFC00
000000BBFC00
000002D7F800
00000B4BF800
00002E0BF400
00007D0FF000
0000F80FF000
01AAF41FE000
1FFFFFAFD000
7F4BC1BFD000
BD1F803FC000
BD3F407F8000
147F007F8000
00BE00BF4000
01FD00FF0000
02FC00FF0000
03F801FE0000
07F402FE0000
07F002FD0000
0BF003FC0000
0BE000000000
07E000000000
01F000000000
ENDCHAR
STARTCHAR uni1EA3
ENCODING 7843
SWIDTH 526 0
DWIDTH 15 0
BBX 17 22 -1 0
BITMAP
00001A4000
0000BFD000
000011E000
000001E000
00002F8000
0000280000
0000000000
0000000000
001BEBF400
00FFBFF000
02FD1FF000
0BF41FE000
0FF02FD000
2FD02FD000
3FD03FC000
3FC07F8000
7FC07F8000
7F80BF4180
7FC1FF4340
3FEBFFEE00
2FFE7FF800
0BE41F9000
ENDCHAR
STARTCHAR uni1EA4
ENCODING 7844
SWIDTH 668 0
DWIDTH 19 0
BBX 24 31 0 -3
BITMAP
000000000005
00000000001D
000000001D38
000000007E70
000000029340
000000050140
000000000000
00000006FD00
0000002FFC00
000000BBFC00
000002D7F800
00000B4BF800
00002E0BF400
00007D0FF000
0000F80FF000
01AAF41FE000
1FFFFFAFD000
7F4BC1BFD000
BD1F803FC000
BD3F407F8000
147F007F8000
00BE00BF4000
01FD00FF0000
02FC00FF0000
03F801FE0000
07F402FE0000
07F002FD0000
0BF003FC0000
0BE000000000
07E000000000
01F000000000
ENDCHAR
STARTCHAR uni1EA5
ENCODING 7845
SWIDTH 526 0
DWIDTH 15 0
BBX 18 25 -1 0
BITMAP
0000000190
00000003D0
0000000780
0000000F00
0000071900
00001F4000
00007F4000
0001E28000
0006408000
0000000000
0000000000
001BEBF400
00FFBFF000
02FD1FF000
0BF41FE000
0FF02FD000
2FD02FD000
3FD03FC000
3FC07F8000
7FC07F8000
7F80BF4180
7FC1FF4340
3FEBFFEE00
2FFE7FF800
0BE41F9000
ENDCHAR
STARTCHAR uni1EA6
ENCODING 7846
SWIDTH 668 0
DWIDTH 19 0
BBX 23 31 0 -3
BITMAP
000000000074
000000000434
000000002E28
00000000BB28
000000078340
000000050140
000000000000
00000006FD00
0000002FFC00
000000BBFC00
000002D7F800
00000B4BF800
00002E0BF400
00007D0FF000
0000F80FF000
01AAF41FE000
1FFFFFAFD000
7F4BC1BFD000
BD1F803FC000
BD3F407F8000
147F007F8000
00BE00BF4000
01FD00FF0000
02FC00FF0000
03F801FE0000
07F402FE0000
07F002FD0000
0BF003FC0000
0BE000000000
07E000000000
01F000000000
ENDCHAR
STARTCHAR uni1EA7
ENCODING 7847
SWIDTH 526 0
DWIDTH 15 0
BBX 17 24 -1 0
BITMAP
0000003D00
0000002D00
0000001E00
0000070E00
00001F0B00
00007F4000
0001E68000
000640C000
0000000000
0000000000
001BEBF400
00FFBFF000
02FD1FF000
0BF41FE000
0FF02FD000
2FD02FD000
3FD03FC000
3FC07F8000
7FC07F8000
7F80BF4180
7FC1FF4340
3FEBFFEE00
2FFE7FF800
0BE41F9000
ENDCHAR
STARTCHAR uni1EA8
ENCODING 7848
SWIDTH 668 0
DWIDTH 19 0
BBX 24 31 0 -3
BITMAP
0000000000BD
00000000040B
000000001E07
00000000BF3D
00000002E760
0000000A0240
000000000000
00000006FD00
0000002FFC00
000000BBFC00
000002D7F800
00000B4BF800
00002E0BF400
00007D0FF000
0000F80FF000
01AAF41FE000
1FFFFFAFD000
7F4BC1BFD000
BD1F803FC000
BD3F407F8000
147F007F8000
00BE00BF4000
01FD00FF0000
02FC00FF0000
03F801FE0000
07F402FE0000
07F002FD0000
0BF003FC0000
0BE000000000
07E000000000
01F000000000
ENDCHAR
STARTCHAR uni1EA9
ENCODING 7849
SWIDTH 526 0
DWIDTH 15 0
BBX 17 23 -1 0
BITMAP
0000002F40
0000000280
0000071E00
00001F5400
00007F4000
0002E28000
0006008000
0000000000
0000000000
001BEBF400
00FFBFF000
02FD1FF000
0BF41FE000
0FF02FD000
2FD02FD000
3FD03FC000
3FC07F8000
7FC07F8000
7F80BF4180
7FC1FF4340
3FEBFFEE00
2FFE7FF800
0BE41F9000
ENDCHAR
STARTCHAR uni1EAA
ENCODING 7850
SWIDTH 668 0
DWIDTH 19 0
BBX 23 31 0 -3
BITMAP
000000001500
00000001FFF4
000000001E40
00000000BB00
000000028340
000000050140
000000000000
00000006FD00
0000002FFC00
000000BBFC00
000002D7F800
00000B4BF800
00002E0BF400
00007D0FF000
0000F80FF000
01AAF41FE000
1FFFFFAFD000
7F4BC1BFD000
BD1F803FC000
BD3F407F8000
147F007F8000
00BE00BF4000
01FD00FF0000
02FC00FF0000
03F801FE0000
07F402FE0000
07F002FD0000
0BF003FC0000
0BE000000000
07E000000000
01F000000000
ENDCHAR
STARTCHAR uni1EAB
ENCODING 7851
SWIDTH 526 0
DWIDTH 15 0
BBX 17 24 -1 0
BITMAP
00001A5500
00005BF400
0000000000
0000070000
00001F4000
00007F4000
0001E28000
0006408000
0000000000
0000000000
001BEBF400
00FFBFF000
02FD1FF000
0BF41FE000
0FF02FD000
2FD02FD000
3FD03FC000
3FC07F8000
7FC07F8000
7F80BF4180
7FC1FF4340
3FEBFFEE00
2FFE7FF800
0BE41F9000
ENDCHAR
STARTCHAR uni1EAC
ENCODING 7852
SWIDTH 668 0
DWIDTH 19 0
BBX 21 34 0 -6
BITMAP
000000000100
000000001F00
000000007F40
00000001FB80
0000000B41C0
000000140040
000000000000
00000006FD00
0000002FFC00
000000BBFC00
000002D7F800
00000B4BF800
00002E0BF400
00007D0FF000
0000F80FF000
01AAF41FE000
1FFFFFAFD000
7F4BC1BFD000
BD1F803FC000
BD3F407F8000
147F007F8000
00BE00BF4000
01FD00FF0000
02FC00FF0000
03F801FE0000
07F402FE0000
07F002FD0000
0BF003FC0000
0BE000000000
07E000000000
02F02E000000
0000BF800000
0000BF800000
00002E000000
ENDCHAR
ENDFONT
